{"glyphs":{"0":{"ha":772,"x_min":75,"x_max":697,"o":"m 565 604 q 490 342 565 478 q 290 183 404 183 q 225 217 247 183 q 204 304 204 249 q 281 567 204 429 q 481 724 367 724 q 546 690 524 724 q 565 604 565 660 l 565 604 m 697 599 q 653 768 697 704 q 500 842 601 842 q 188 650 315 842 q 75 313 75 485 q 119 142 75 206 q 271 65 169 65 q 585 257 456 65 q 697 599 697 425 l 697 599 z "},"1":{"ha":772,"x_min":135,"x_max":638,"o":"m 256 72 q 279 78 271 72 q 293 96 288 83 q 415 343 335 181 q 482 481 471 456 q 526 578 493 503 q 582 683 560 654 q 618 733 606 714 q 638 789 638 767 q 621 836 638 819 q 578 853 604 853 q 515 825 540 853 q 478 764 513 821 q 404 688 457 729 q 296 619 353 647 l 250 599 q 240 574 246 596 q 235 519 235 549 q 239 492 235 497 q 257 485 243 485 q 325 511 281 485 q 383 554 356 531 l 386 551 q 277 324 331 442 q 149 107 224 206 q 140 94 143 99 q 135 81 135 86 q 140 74 135 75 q 163 72 144 72 l 256 72 z "},"2":{"ha":772,"x_min":35,"x_max":738,"o":"m 560 338 q 674 492 621 400 q 738 667 738 600 q 688 799 738 756 q 543 842 639 842 q 331 753 424 842 q 254 629 254 679 q 281 596 254 613 q 324 579 304 579 q 400 654 332 579 q 535 728 469 728 q 582 714 561 728 q 607 667 607 697 q 485 426 607 592 q 344 271 371 271 q 293 298 339 271 q 186 325 247 325 q 76 286 118 325 q 35 185 35 249 q 72 100 35 135 q 165 65 110 65 q 264 86 221 65 q 351 140 261 86 q 472 88 425 103 q 601 65 538 65 q 664 69 646 65 q 701 94 694 75 q 718 144 701 96 q 729 189 729 176 q 725 200 729 196 q 713 204 719 204 q 678 196 710 204 q 614 186 644 186 q 528 193 561 186 q 451 221 486 200 l 560 338 m 179 147 q 136 158 151 147 q 117 196 117 171 q 133 224 117 211 q 179 238 151 238 q 240 223 215 238 q 279 201 264 208 q 233 167 250 178 q 179 147 201 147 l 179 147 z "},"3":{"ha":772,"x_min":74,"x_max":699,"o":"m 121 331 q 85 313 96 331 q 74 250 74 293 q 129 118 74 167 q 301 65 189 65 q 511 143 417 65 q 611 347 611 226 q 600 414 611 386 q 556 479 588 444 q 651 563 614 518 q 699 679 699 621 q 650 799 699 753 q 529 842 603 842 q 342 775 433 842 q 257 668 257 714 q 279 635 257 651 q 318 619 301 619 q 386 672 325 619 q 493 725 447 725 q 540 713 522 725 q 558 678 558 700 q 514 585 558 633 q 446 540 472 540 q 418 544 440 540 q 385 549 396 549 q 303 528 331 549 q 274 464 274 507 q 306 414 274 431 q 367 400 331 400 q 415 410 389 400 q 443 418 443 418 q 464 400 450 418 q 481 347 481 376 q 414 224 481 274 q 292 181 356 181 q 218 204 244 181 q 193 260 193 225 q 189 315 193 301 q 163 331 182 331 l 121 331 z "},"4":{"ha":772,"x_min":50,"x_max":722,"o":"m 513 251 q 565 246 513 251 q 631 242 608 242 q 653 246 644 242 q 665 258 660 250 q 688 301 678 279 q 700 343 700 328 q 696 358 700 354 q 679 363 690 363 q 636 361 664 363 q 600 358 610 358 q 575 360 581 358 q 565 371 565 363 q 644 521 565 376 q 722 686 722 665 q 710 714 722 704 q 675 725 696 725 q 585 657 633 725 q 457 425 544 599 l 429 375 l 390 375 q 346 379 367 375 q 310 393 325 383 q 435 632 319 413 q 526 822 526 803 q 518 840 526 835 q 497 844 511 844 l 397 844 q 296 603 353 717 q 169 389 238 483 q 88 338 99 349 q 50 261 50 307 q 71 217 50 233 q 119 201 89 201 q 176 231 143 201 q 225 279 188 240 q 289 274 261 275 q 342 271 324 271 q 361 269 356 271 q 369 261 369 268 q 329 163 369 246 q 288 63 288 81 q 294 40 288 50 q 311 31 301 31 l 388 31 q 426 72 411 31 q 475 182 442 114 l 513 251 z "},"5":{"ha":772,"x_min":64,"x_max":708,"o":"m 374 842 q 340 836 351 842 q 313 807 326 829 q 257 696 285 765 q 211 575 256 694 q 157 526 172 544 q 131 460 131 494 q 150 411 131 429 q 194 394 167 394 q 278 449 224 394 q 411 503 332 503 q 471 485 450 503 q 493 424 493 464 q 403 258 493 339 q 250 183 319 183 q 207 194 221 183 q 188 235 189 206 q 178 257 186 250 q 153 264 169 264 q 85 250 104 264 q 64 196 64 235 q 113 104 64 143 q 228 65 161 65 q 492 174 367 65 q 624 431 624 288 q 574 569 624 518 q 422 625 521 625 q 392 624 406 625 q 357 618 378 622 q 380 681 368 644 q 411 718 392 718 l 646 718 q 692 747 674 718 q 708 804 708 774 q 700 833 708 825 q 674 842 692 842 l 374 842 z "},"6":{"ha":772,"x_min":100,"x_max":672,"o":"m 100 285 q 158 128 100 189 q 321 65 219 65 q 563 179 454 65 q 672 442 672 294 q 629 549 672 507 q 514 589 585 589 q 406 550 453 589 q 360 474 360 513 q 374 442 360 454 q 406 429 388 429 q 451 449 419 429 q 504 467 485 467 q 532 451 522 467 q 540 414 540 438 q 475 269 540 347 q 326 186 406 186 q 254 215 282 186 q 229 279 229 242 q 336 531 229 389 q 606 788 439 667 q 658 825 653 819 q 671 854 671 836 q 651 890 671 867 q 621 914 632 914 q 329 710 532 914 q 100 285 100 481 l 100 285 z "},"7":{"ha":772,"x_min":75,"x_max":696,"o":"m 696 814 q 692 824 696 819 q 679 829 686 829 q 656 825 678 829 q 607 821 632 821 q 497 829 571 821 q 388 836 422 836 q 343 835 372 836 q 301 832 315 832 q 294 864 300 856 q 281 871 289 871 q 190 847 214 871 q 154 764 169 828 q 101 700 114 719 q 75 622 75 660 q 92 581 75 596 q 136 565 108 565 q 210 617 176 565 q 253 701 228 642 q 289 713 257 708 q 353 717 318 717 q 419 714 379 717 q 494 708 443 713 q 436 625 425 607 q 388 540 414 590 q 292 357 325 418 q 194 175 239 256 q 158 118 192 171 q 140 76 140 90 q 160 46 140 57 q 208 36 179 36 q 309 127 272 36 q 396 314 346 218 q 521 536 458 431 q 657 753 588 649 q 684 788 672 774 q 696 814 696 801 l 696 814 z "},"8":{"ha":772,"x_min":67,"x_max":704,"o":"m 704 676 q 704 692 704 688 q 699 699 703 699 q 561 619 692 699 q 417 540 431 540 q 376 568 403 540 q 344 638 344 601 q 399 700 344 672 q 494 725 447 724 q 658 743 625 732 q 692 793 692 754 q 668 832 692 822 q 569 842 644 842 q 339 800 429 842 q 218 624 218 744 q 256 519 218 569 q 292 467 292 469 q 179 396 292 471 q 67 231 67 321 q 122 111 67 154 q 292 65 181 65 q 494 132 418 65 q 571 303 571 197 q 554 378 571 342 q 501 449 538 414 l 689 564 q 701 576 697 569 q 704 594 704 583 l 704 676 m 293 186 q 232 196 258 186 q 197 239 197 210 q 285 324 197 265 q 383 379 365 379 q 415 347 392 379 q 439 290 439 313 q 390 211 439 239 q 293 186 349 186 l 293 186 z "},"9":{"ha":772,"x_min":83,"x_max":689,"o":"m 689 615 q 631 779 689 718 q 461 842 569 842 q 219 729 329 842 q 111 482 111 617 q 158 360 111 404 q 264 321 200 321 q 379 361 329 321 q 426 440 426 399 q 411 469 426 456 q 386 481 399 481 q 340 463 372 481 q 290 443 308 443 q 258 456 271 443 q 246 485 246 468 q 311 642 246 565 q 451 721 378 721 q 528 696 499 721 q 558 624 558 669 q 422 342 558 517 q 206 118 317 208 q 119 54 156 78 q 83 10 83 31 q 106 -35 83 -8 q 143 -62 128 -62 q 442 176 217 -62 q 689 615 689 439 l 689 615 z "},"\u0000":{"ha":1389,"x_min":0,"x_max":0,"o":""}," ":{"ha":694,"x_min":0,"x_max":0,"o":""},"!":{"ha":699,"x_min":144,"x_max":554,"o":"m 315 318 l 538 815 q 550 843 547 839 q 554 867 554 857 q 543 889 554 882 q 513 894 533 894 l 464 894 q 450 888 456 894 q 438 865 443 881 l 260 382 q 251 360 256 371 q 246 339 246 349 q 250 324 246 329 q 260 318 254 318 l 315 318 m 144 146 q 161 88 144 108 q 215 65 181 65 q 290 99 258 65 q 322 174 322 131 q 301 231 322 207 q 247 257 281 257 q 175 222 206 257 q 144 146 144 188 l 144 146 z "},"\"":{"ha":476,"x_min":75,"x_max":401,"o":"m 183 943 q 183 957 183 943 q 183 972 183 972 q 174 1026 183 1007 q 129 1053 161 1053 q 83 1026 96 1053 q 75 972 75 1008 q 75 957 75 972 q 75 943 75 943 l 99 665 q 106 640 100 650 q 129 624 113 624 q 153 640 146 624 q 158 665 156 649 l 183 943 m 401 943 q 401 957 401 943 q 401 972 401 972 q 393 1026 401 1008 q 347 1053 381 1053 q 303 1026 315 1053 q 293 972 293 1007 q 293 957 293 972 q 293 943 293 943 l 318 665 q 324 640 321 649 q 347 624 331 624 q 371 640 364 624 q 378 665 376 650 l 401 943 z "},"#":{"ha":607,"x_min":35,"x_max":572,"o":"m 539 376 l 439 376 l 460 531 l 571 531 l 572 601 l 469 601 l 503 833 l 424 833 l 392 601 l 261 601 l 293 833 l 213 833 l 182 601 l 67 601 l 65 531 l 172 531 l 150 376 l 38 376 l 35 306 l 140 306 l 107 72 l 188 72 l 218 306 l 350 306 l 317 72 l 396 72 l 428 306 l 538 306 l 539 376 m 381 531 l 360 376 l 228 376 l 250 531 l 381 531 z "},"$":{"ha":649,"x_min":35,"x_max":614,"o":"m 244 110 q 426 164 354 110 q 503 321 503 222 q 478 419 503 371 q 424 497 460 454 q 367 564 371 558 q 342 624 342 599 q 364 671 342 653 q 422 688 386 688 q 475 672 457 688 q 496 638 490 660 q 510 600 504 607 q 553 585 522 585 q 601 610 585 585 q 614 663 614 631 q 585 738 614 703 q 513 789 558 765 l 539 853 q 546 869 542 861 q 550 888 550 878 q 539 906 550 899 q 514 911 528 911 q 460 906 475 911 q 435 882 443 900 l 397 803 q 260 743 308 786 q 206 619 206 694 q 232 522 206 571 q 286 444 247 493 q 342 378 333 389 q 367 311 367 342 q 332 243 367 265 q 264 225 304 225 q 190 244 217 225 q 161 304 161 264 q 151 361 161 347 q 103 375 140 375 q 51 357 68 375 q 35 301 35 339 q 60 201 35 247 q 135 133 88 153 l 85 11 q 77 -7 81 0 q 74 -26 74 -14 q 83 -39 74 -33 q 107 -44 93 -44 l 133 -44 q 175 -36 163 -44 q 194 -10 185 -29 l 244 110 z "},"%":{"ha":982,"x_min":35,"x_max":947,"o":"m 292 826 q 107 722 186 826 q 35 519 35 626 q 68 407 35 447 q 176 364 104 364 q 357 461 279 364 q 435 654 429 550 q 525 674 476 656 q 610 715 561 688 l 667 744 l 669 742 l 590 650 q 489 528 528 576 q 392 401 435 460 q 258 218 340 335 q 147 31 147 57 q 164 -12 147 13 q 197 -37 182 -37 q 236 0 213 -37 q 267 51 240 6 q 438 310 336 171 q 626 557 494 388 q 725 678 685 626 q 801 789 801 774 q 775 836 801 804 q 736 868 747 868 q 634 801 722 868 q 431 724 546 735 q 386 799 418 774 q 292 826 350 826 l 292 826 m 283 746 q 311 740 300 746 q 331 724 324 735 q 322 718 325 722 q 319 708 319 714 q 324 685 319 693 q 342 668 329 675 q 300 526 342 597 q 186 444 251 444 q 136 469 151 444 q 125 528 125 490 q 169 667 125 596 q 283 746 219 746 l 283 746 m 804 549 q 619 444 699 549 q 546 239 546 347 q 581 128 546 168 q 689 83 617 83 q 875 188 796 83 q 947 392 947 285 q 914 504 947 464 q 804 549 878 549 l 804 549 m 796 467 q 844 440 831 467 q 856 385 856 422 q 811 244 856 315 q 699 165 763 165 q 650 190 664 165 q 639 247 639 210 q 683 388 639 317 q 796 467 732 467 l 796 467 z "},"&":{"ha":717,"x_min":35,"x_max":682,"o":"m 547 424 q 513 397 532 424 q 476 344 535 428 l 474 344 q 459 381 467 360 q 443 401 451 401 q 399 376 438 401 q 358 343 358 351 q 374 313 358 340 q 393 269 389 282 q 314 204 372 235 q 225 176 258 176 q 182 183 199 176 q 165 206 165 192 q 253 322 165 256 q 339 429 339 389 q 313 494 339 456 q 285 558 285 533 q 363 688 285 631 q 515 742 435 742 q 542 739 533 742 q 550 728 550 736 q 544 711 550 718 q 522 694 539 704 q 425 621 469 661 q 372 554 372 575 q 414 521 372 546 q 458 497 453 497 q 485 519 463 497 q 542 569 514 549 l 596 613 q 661 671 649 654 q 682 740 682 699 q 638 819 682 794 q 501 844 594 844 q 282 775 381 844 q 167 568 167 694 q 189 478 167 518 q 211 440 211 438 q 124 367 211 442 q 35 217 35 292 q 88 101 35 140 q 218 65 135 65 q 383 115 321 65 q 451 164 446 164 q 480 132 461 164 q 504 92 499 100 q 519 76 510 82 q 539 72 528 72 l 629 72 q 646 76 642 74 q 650 90 650 81 q 593 165 650 93 q 536 247 536 238 q 588 311 536 247 q 638 410 638 375 q 632 419 638 415 q 617 424 626 424 l 547 424 z "},"'":{"ha":456,"x_min":174,"x_max":282,"o":"m 282 943 q 282 957 282 943 q 282 972 282 972 q 272 1026 282 1007 q 228 1053 260 1053 q 182 1026 194 1053 q 174 972 174 1008 q 174 957 174 972 q 174 943 174 943 l 197 665 q 204 640 199 650 q 228 624 211 624 q 251 640 244 624 q 257 665 254 649 l 282 943 z "},"(":{"ha":815,"x_min":129,"x_max":707,"o":"m 575 1135 q 475 1011 532 1093 q 346 814 446 968 q 183 450 242 647 q 129 96 129 264 q 133 -36 129 21 q 147 -143 138 -93 l 258 -143 q 247 -50 251 -94 q 243 46 243 -1 q 286 388 243 225 q 411 713 324 532 q 546 931 463 817 q 707 1135 606 1013 l 575 1135 z "},")":{"ha":903,"x_min":108,"x_max":774,"o":"m 243 -143 q 282 -101 256 -131 q 322 -60 308 -74 q 642 411 519 144 q 774 956 774 696 q 769 1046 774 997 q 761 1135 767 1083 l 653 1135 q 657 1061 653 1110 q 660 988 660 1011 q 500 374 660 682 q 108 -143 357 100 l 243 -143 z "},"*":{"ha":664,"x_min":104,"x_max":560,"o":"m 153 936 l 104 842 l 269 790 l 132 669 l 207 600 l 318 744 l 386 581 l 481 625 l 379 772 l 560 796 l 540 894 l 369 835 l 421 1021 l 314 1021 l 301 850 l 153 936 z "},"+":{"ha":692,"x_min":104,"x_max":588,"o":"m 306 354 l 104 354 l 104 275 l 306 275 l 306 72 l 385 72 l 385 275 l 588 275 l 588 354 l 385 354 l 385 557 l 306 557 l 306 354 z "},",":{"ha":449,"x_min":76,"x_max":372,"o":"m 139 -175 l 357 147 q 367 163 361 154 q 372 176 372 171 q 368 183 372 181 q 360 185 365 185 l 215 185 q 210 179 213 185 q 204 168 204 168 l 83 -142 q 78 -158 79 -157 q 76 -168 76 -165 q 78 -174 76 -172 q 82 -175 79 -175 l 139 -175 z "},"-":{"ha":542,"x_min":104,"x_max":438,"o":"m 157 372 q 144 365 151 372 q 129 343 138 358 q 111 300 118 325 q 104 269 104 279 q 106 261 104 264 q 110 258 107 258 l 400 258 q 407 264 404 258 q 414 281 407 265 q 431 318 425 304 q 438 358 438 340 q 435 368 438 364 q 425 372 432 372 l 157 372 z "},".":{"ha":367,"x_min":94,"x_max":272,"o":"m 94 21 q 111 -37 94 -17 q 165 -60 129 -60 q 240 -26 208 -60 q 272 49 272 6 q 251 106 272 82 q 197 132 231 132 q 124 97 154 132 q 94 21 94 63 l 94 21 z "},"/":{"ha":678,"x_min":35,"x_max":643,"o":"m 643 1053 l 526 1053 l 35 -43 l 146 -43 l 643 1053 z "},":":{"ha":522,"x_min":115,"x_max":407,"o":"m 115 146 q 133 88 115 108 q 188 65 151 65 q 261 99 229 65 q 293 174 293 131 q 274 231 293 207 q 219 257 251 257 q 146 222 176 257 q 115 146 115 188 l 115 146 m 226 450 q 244 393 226 414 q 299 371 263 371 q 375 403 343 371 q 407 479 407 436 q 386 536 407 511 q 332 563 364 563 q 257 528 289 563 q 226 450 226 493 l 226 450 z "},";":{"ha":604,"x_min":115,"x_max":489,"o":"m 179 -117 l 397 206 q 407 221 401 213 q 413 235 413 229 q 408 242 413 239 q 400 243 406 243 l 254 243 q 249 238 251 243 q 243 226 243 226 l 124 -83 q 118 -100 119 -94 q 115 -110 115 -107 q 117 -115 115 -114 q 122 -117 119 -117 l 179 -117 m 310 450 q 328 393 310 414 q 382 371 346 371 q 457 403 425 371 q 489 479 489 436 q 468 536 489 511 q 415 563 447 563 q 340 528 372 563 q 310 450 310 493 l 310 450 z "},"<":{"ha":664,"x_min":86,"x_max":578,"o":"m 578 488 l 578 568 l 86 350 l 86 279 l 578 61 l 578 142 l 188 315 l 578 488 z "},"=":{"ha":692,"x_min":104,"x_max":588,"o":"m 588 453 l 104 453 l 104 375 l 588 375 l 588 453 m 588 254 l 104 254 l 104 176 l 588 176 l 588 254 z "},">":{"ha":663,"x_min":86,"x_max":576,"o":"m 86 142 l 86 61 l 576 279 l 576 350 l 86 568 l 86 488 l 476 315 l 86 142 z "},"?":{"ha":611,"x_min":64,"x_max":547,"o":"m 358 894 q 231 860 286 894 q 139 757 178 825 q 131 743 133 747 q 125 728 125 733 q 149 688 125 714 q 185 661 172 661 q 199 665 192 661 q 208 679 204 669 q 265 754 232 724 q 346 796 307 796 q 397 779 379 796 q 415 731 415 763 q 374 633 415 675 q 286 564 382 642 q 174 435 210 503 q 146 342 146 383 q 150 328 146 335 q 158 321 153 321 q 208 322 194 321 q 225 332 224 325 q 244 381 226 346 q 293 451 267 422 q 347 494 313 474 q 417 538 349 496 q 503 614 469 569 q 547 731 547 669 q 492 854 547 810 q 358 894 442 894 l 358 894 m 64 146 q 82 88 64 108 q 136 65 100 65 q 210 99 179 65 q 242 174 242 131 q 222 231 242 207 q 168 257 201 257 q 94 222 125 257 q 64 146 64 188 l 64 146 z "},"@":{"ha":1014,"x_min":35,"x_max":979,"o":"m 453 371 q 376 404 406 371 q 346 493 346 439 q 397 651 346 578 q 531 732 453 732 q 607 696 575 732 q 638 613 638 660 q 585 454 638 531 q 453 371 528 371 l 453 371 m 676 736 q 613 811 653 788 q 525 832 576 832 q 311 721 399 832 q 229 481 229 617 q 286 329 229 393 q 426 264 343 264 q 511 289 467 264 q 579 344 547 310 l 582 344 q 607 285 583 306 q 661 264 629 264 q 861 361 761 264 q 979 644 979 476 q 843 940 979 822 q 526 1053 713 1053 q 179 910 324 1053 q 35 561 35 765 q 179 208 35 351 q 533 65 324 65 q 765 125 658 65 q 938 290 874 185 l 843 290 q 708 189 788 225 q 539 153 628 153 q 253 267 367 153 q 138 556 138 381 q 246 847 138 731 q 526 967 357 967 q 781 878 679 967 q 888 629 888 783 q 832 443 888 525 q 713 361 778 361 q 693 371 699 361 q 688 396 688 379 q 690 424 688 408 q 699 456 693 440 l 797 814 l 701 814 l 676 736 z "},"A":{"ha":1008,"x_min":35,"x_max":974,"o":"m 156 72 q 160 74 158 72 q 164 75 158 72 q 203 164 164 75 q 311 369 249 274 q 547 306 449 361 q 639 200 639 254 q 636 175 639 194 q 632 151 632 156 q 649 93 632 113 q 703 72 667 72 q 763 94 742 72 q 782 154 782 115 q 776 188 782 167 q 769 210 769 207 q 784 269 769 225 q 813 363 799 314 l 929 760 q 955 844 936 783 q 974 928 974 906 q 943 999 974 974 q 864 1021 915 1021 q 500 825 693 1021 q 244 485 361 685 q 235 478 242 481 q 222 475 229 475 q 175 474 204 475 q 118 467 140 471 q 93 460 99 463 q 79 442 83 456 l 56 378 q 53 369 53 372 q 51 363 51 365 q 56 351 51 358 q 68 344 61 344 q 92 350 67 344 q 165 360 121 356 q 96 218 126 282 q 35 79 35 92 q 36 74 35 75 q 40 72 38 72 l 156 72 m 671 350 q 476 457 592 428 q 381 481 381 479 q 549 694 381 510 q 819 897 732 897 q 828 894 826 897 q 831 885 831 892 q 825 861 831 881 q 817 836 815 832 l 671 350 z "},"B":{"ha":881,"x_min":35,"x_max":846,"o":"m 183 65 l 415 593 q 499 771 461 704 q 632 897 572 897 q 693 867 672 897 q 710 799 710 840 q 581 599 710 661 q 450 471 450 536 q 549 363 450 392 q 647 282 647 332 q 579 215 647 239 q 411 194 515 194 q 367 199 393 194 q 326 201 339 201 q 288 154 307 201 q 271 97 271 114 q 289 76 271 81 q 357 72 304 72 q 661 115 564 72 q 783 304 783 168 q 739 403 783 357 q 638 463 699 443 q 607 472 619 469 q 594 481 594 475 q 607 488 594 483 q 631 494 615 490 q 793 610 735 521 q 846 790 846 689 q 797 954 846 893 q 646 1021 743 1021 q 490 965 560 1021 q 383 817 424 911 q 214 439 283 589 q 35 65 119 233 l 183 65 z "},"C":{"ha":878,"x_min":35,"x_max":843,"o":"m 567 317 q 479 229 526 260 q 332 186 414 186 q 218 228 264 186 q 165 357 165 274 q 328 696 165 500 q 636 897 496 897 q 692 885 672 897 q 713 838 713 871 q 629 690 713 768 q 465 583 557 621 q 424 522 439 571 q 413 449 413 486 q 417 436 413 440 q 429 431 421 431 q 665 547 517 431 q 843 851 843 688 q 789 976 843 931 q 646 1021 736 1021 q 243 793 449 1021 q 35 331 35 563 q 107 144 35 215 q 329 65 186 65 q 594 160 481 65 q 683 285 683 235 q 660 313 683 299 q 613 335 642 325 l 588 346 l 567 317 z "},"D":{"ha":1061,"x_min":35,"x_max":1026,"o":"m 715 72 q 950 160 868 72 q 1026 375 1026 239 q 931 642 1026 544 q 835 758 835 740 q 856 796 835 765 q 876 835 876 826 q 836 872 876 840 q 790 904 797 904 q 765 881 783 904 q 735 842 739 846 q 557 960 638 917 q 353 1021 442 1021 q 244 986 282 1021 q 206 881 206 950 q 319 665 206 781 q 458 565 419 565 q 499 604 479 565 q 517 658 517 639 q 492 682 517 664 q 433 726 454 708 q 367 800 393 763 q 336 867 336 842 q 349 892 336 882 q 375 900 360 900 q 540 828 418 900 q 665 724 665 754 q 551 450 665 679 q 386 208 432 208 q 333 213 364 208 q 281 221 343 211 q 229 229 236 228 q 178 233 200 233 q 83 221 117 233 q 35 151 35 201 q 88 90 35 111 q 226 71 138 71 q 279 74 253 71 q 329 79 307 75 q 368 86 363 85 q 386 89 383 89 q 461 81 408 89 q 536 72 515 72 l 715 72 m 896 374 q 829 232 896 278 q 642 189 767 189 q 583 191 603 189 q 547 194 563 193 q 667 394 626 297 q 771 631 707 492 q 856 513 832 554 q 896 374 896 440 l 896 374 z "},"E":{"ha":807,"x_min":35,"x_max":772,"o":"m 547 610 q 561 603 554 606 q 569 600 565 600 q 583 611 572 600 q 608 649 596 626 q 704 774 636 694 q 772 918 772 854 q 729 1001 772 976 q 622 1021 693 1021 q 293 875 418 1021 q 190 624 190 756 q 211 532 190 574 q 231 493 231 492 q 201 464 231 483 q 133 417 150 431 q 65 340 90 383 q 35 218 35 288 q 85 107 35 147 q 226 65 136 65 q 586 204 435 65 q 703 368 697 307 q 693 383 703 379 q 669 386 685 386 l 590 386 q 578 383 582 386 q 567 371 574 381 q 429 242 514 293 q 256 186 340 186 q 197 197 219 186 q 168 238 168 211 q 278 367 168 300 q 388 460 388 433 q 354 518 388 471 q 319 618 319 565 q 410 808 319 714 q 596 903 501 903 q 618 899 606 903 q 632 885 632 893 q 556 789 632 872 q 479 682 479 706 q 485 668 479 676 q 493 657 485 668 l 547 610 z "},"F":{"ha":944,"x_min":35,"x_max":910,"o":"m 707 389 q 821 638 808 608 q 910 897 910 842 q 867 992 910 960 q 764 1021 829 1021 q 292 810 549 1021 q 35 428 35 599 q 71 336 35 369 q 165 303 107 303 q 372 403 254 303 q 524 567 453 472 q 538 592 533 581 q 542 603 542 599 q 521 672 542 611 q 494 735 499 735 q 482 728 489 735 q 468 708 478 722 q 332 533 404 613 q 182 432 236 432 q 168 436 172 432 q 163 449 163 440 q 351 700 163 525 q 729 894 563 894 q 760 892 750 894 q 771 879 771 888 q 681 635 771 838 q 557 389 594 444 l 458 389 q 446 383 451 389 q 439 374 443 382 q 407 314 419 339 q 390 276 390 283 q 397 272 390 272 q 418 271 403 271 l 476 271 q 486 268 483 271 q 490 261 490 267 q 428 157 490 244 q 308 4 374 82 l 465 4 q 479 8 472 4 q 492 19 486 11 q 575 146 538 81 q 646 271 583 160 l 803 271 q 818 275 813 271 q 831 290 826 279 l 872 389 l 707 389 z "},"G":{"ha":836,"x_min":35,"x_max":801,"o":"m 296 -231 q 299 -257 296 -250 q 308 -264 301 -264 q 493 -29 378 -264 q 642 332 572 133 q 682 396 647 347 q 708 475 708 432 q 694 519 708 501 q 653 539 679 539 q 564 468 590 539 q 510 360 538 397 q 407 254 468 303 q 267 189 328 189 q 192 218 219 189 q 164 293 164 246 q 293 667 164 458 q 594 897 436 897 q 647 885 626 897 q 675 839 675 869 q 643 771 675 808 q 583 722 614 736 q 578 710 579 719 q 576 689 576 704 l 576 622 q 578 599 576 606 q 588 590 581 590 q 715 671 638 590 q 801 847 801 761 q 744 979 801 935 q 589 1021 690 1021 q 203 764 382 1021 q 35 299 35 524 q 86 140 35 207 q 235 65 143 65 q 344 82 299 65 q 436 143 394 100 l 439 140 q 386 36 399 61 q 331 -65 356 -22 q 313 -90 321 -82 q 304 -118 306 -97 l 296 -231 z "},"H":{"ha":1285,"x_min":35,"x_max":1250,"o":"m 883 72 q 904 79 897 72 q 913 99 910 85 q 949 239 932 181 q 982 340 968 308 q 1081 365 985 342 q 1132 388 1132 378 q 1124 442 1132 407 q 1113 483 1118 467 q 1107 494 1110 492 q 1097 499 1104 499 q 1063 489 1088 499 q 1029 479 1036 479 l 1061 569 q 1138 772 1090 658 q 1218 960 1144 789 q 1240 1001 1215 956 q 1250 1029 1250 1018 q 1247 1047 1250 1040 q 1238 1053 1243 1053 q 1156 1019 1204 1053 q 1058 910 1096 979 q 961 690 1006 813 q 881 451 928 603 q 829 439 871 444 q 778 433 793 433 q 758 433 765 433 q 739 438 746 435 q 857 721 800 538 q 906 928 906 881 q 904 939 906 936 q 897 943 903 943 q 846 938 888 943 q 789 929 792 929 q 775 924 781 928 q 769 911 771 919 q 717 707 749 801 q 586 429 668 564 q 246 394 375 429 q 35 192 35 338 q 82 93 35 125 q 193 65 122 65 q 465 129 349 65 q 657 310 572 189 q 741 316 699 315 q 835 318 783 317 q 799 185 828 292 q 776 92 776 107 q 782 76 776 81 q 794 72 788 72 l 883 72 m 156 211 q 256 274 156 249 q 489 303 343 294 q 369 211 432 244 q 224 174 297 174 q 181 179 196 174 q 156 211 156 189 l 156 211 z "},"I":{"ha":753,"x_min":35,"x_max":718,"o":"m 378 597 q 389 643 378 606 q 421 743 401 690 q 482 854 442 799 q 560 917 528 917 q 578 907 571 917 q 583 889 583 900 q 547 740 583 851 q 457 507 508 618 q 299 267 385 347 q 164 200 226 200 q 129 206 147 200 q 110 210 111 210 q 97 204 104 210 q 85 189 92 199 l 50 140 q 39 119 42 128 q 35 96 35 108 q 72 74 35 82 q 158 65 107 65 q 560 415 374 65 q 718 900 718 711 q 692 1004 718 964 q 600 1053 661 1053 q 453 997 525 1053 q 346 878 392 950 q 268 721 303 814 q 228 554 228 618 q 231 538 228 544 q 240 525 233 525 q 281 542 247 525 q 332 568 314 558 l 378 597 z "},"J":{"ha":831,"x_min":35,"x_max":796,"o":"m 175 -168 q 160 -156 165 -168 q 156 -135 156 -147 q 239 49 156 -71 q 399 231 317 161 l 401 228 q 265 -46 376 183 q 175 -168 207 -168 l 175 -168 m 399 513 q 417 526 413 522 q 428 547 425 535 q 515 803 464 703 q 636 917 575 917 q 654 907 646 917 q 661 885 661 897 q 583 642 661 851 q 485 417 506 428 q 185 176 314 325 q 35 -153 35 3 q 69 -253 35 -212 q 165 -293 107 -293 q 331 -193 258 -293 q 474 74 363 -146 q 661 489 578 289 q 796 924 796 814 q 761 1015 796 978 q 674 1053 726 1053 q 392 843 511 1053 q 288 479 288 660 q 289 463 288 469 q 293 449 289 449 q 300 451 294 449 q 313 458 303 453 l 399 513 z "},"K":{"ha":924,"x_min":35,"x_max":889,"o":"m 615 1021 l 485 1021 q 471 1015 476 1021 q 461 1001 465 1011 q 374 811 442 961 q 299 649 311 672 q 244 613 299 649 q 199 551 199 582 q 213 521 199 539 q 226 494 226 503 q 221 478 226 492 q 203 440 214 463 q 115 257 147 325 q 35 72 67 154 l 160 72 q 175 78 169 72 q 185 90 182 82 q 235 217 206 149 q 293 340 263 279 q 301 360 301 361 q 313 374 307 374 q 328 363 319 374 q 346 333 331 358 q 406 244 372 290 q 469 158 433 206 q 524 93 497 124 q 551 65 546 69 l 781 65 q 558 250 663 128 q 407 460 496 321 q 383 497 388 489 q 375 517 375 511 q 390 536 375 526 q 442 567 388 533 q 765 821 631 688 q 889 997 889 944 q 882 1014 889 1008 q 860 1021 875 1021 l 788 1021 q 775 1015 781 1021 q 767 1003 772 1011 q 643 860 714 929 q 579 804 589 807 l 475 724 l 472 725 l 615 1021 z "},"L":{"ha":1029,"x_min":35,"x_max":994,"o":"m 861 224 q 707 196 781 204 q 544 185 626 185 q 490 186 513 185 q 435 194 460 189 q 551 408 497 279 q 636 636 571 454 q 725 815 678 749 q 826 892 778 892 q 851 878 844 892 q 857 849 857 867 q 804 700 857 804 q 719 551 765 622 q 696 514 717 547 q 686 492 686 500 q 688 483 686 485 q 697 481 690 481 q 728 488 701 481 q 818 506 763 497 q 840 510 832 507 q 853 519 850 513 q 943 692 901 594 q 994 869 994 808 q 950 981 994 939 q 838 1021 907 1021 q 590 842 694 1021 q 465 543 543 763 q 394 371 438 457 q 294 215 343 264 q 238 224 288 217 q 181 229 203 229 q 88 211 131 229 q 35 150 35 189 q 83 82 35 103 q 169 68 115 68 q 239 74 206 68 q 306 94 276 81 q 372 81 349 85 q 450 72 418 72 q 518 72 450 72 q 593 72 593 72 q 681 74 651 72 q 769 78 731 74 q 813 86 800 81 q 835 115 829 94 l 861 224 z "},"M":{"ha":1343,"x_min":35,"x_max":1308,"o":"m 196 54 q 439 447 310 193 q 597 779 413 394 l 600 776 q 507 422 519 474 q 450 140 450 199 q 461 90 450 104 q 507 72 474 72 q 560 99 531 72 q 601 147 576 115 q 822 442 714 303 q 1094 775 944 599 l 1096 775 q 922 433 978 564 q 832 89 832 224 q 838 71 832 76 q 854 65 843 65 q 896 69 872 65 q 924 72 919 72 q 946 74 939 72 q 956 82 956 75 q 1065 463 956 225 q 1250 811 1108 557 q 1290 892 1276 861 q 1308 956 1308 933 q 1289 1003 1308 986 q 1240 1021 1271 1021 q 1163 999 1199 1021 q 1101 946 1140 985 q 847 660 976 819 q 618 358 740 528 l 615 358 q 701 713 736 858 q 744 940 744 894 q 725 999 744 976 q 667 1021 704 1021 q 589 976 621 1021 q 544 893 588 975 q 319 458 272 374 q 35 54 165 181 l 196 54 z "},"N":{"ha":1014,"x_min":35,"x_max":979,"o":"m 181 49 q 192 51 188 49 q 197 57 196 53 q 394 426 282 168 q 551 808 346 317 l 554 808 l 554 192 q 569 97 554 124 q 625 72 585 72 q 708 138 674 72 q 813 399 739 192 q 881 597 908 671 q 960 749 894 635 q 974 772 969 764 q 979 785 979 782 q 967 860 979 799 q 943 931 953 931 q 915 904 936 931 q 861 822 892 875 q 758 596 813 744 q 672 349 757 592 l 671 349 l 671 883 q 654 989 671 958 q 586 1021 636 1021 q 525 992 553 1021 q 476 906 499 963 q 293 493 411 739 q 35 49 126 144 l 181 49 z "},"O":{"ha":851,"x_min":35,"x_max":817,"o":"m 290 65 q 661 283 494 65 q 817 696 817 486 q 779 822 817 775 q 671 871 740 871 q 447 757 543 871 q 361 546 361 654 q 363 514 361 522 q 374 501 365 501 q 443 525 393 501 q 507 576 500 551 q 561 707 528 664 q 642 751 594 751 q 678 733 665 751 q 688 703 688 721 q 567 382 688 560 q 296 189 435 189 q 199 225 232 189 q 164 338 164 263 q 313 717 164 531 q 658 933 465 908 q 697 953 685 938 q 710 994 710 967 q 694 1039 710 1025 q 649 1053 681 1053 q 221 806 417 1053 q 35 333 35 572 q 99 139 35 208 q 290 65 165 65 l 290 65 z "},"P":{"ha":796,"x_min":35,"x_max":761,"o":"m 628 808 q 579 569 628 688 q 410 392 517 419 q 349 374 363 381 q 314 326 314 358 q 332 272 314 293 q 367 254 347 254 q 653 436 535 254 q 761 800 761 603 q 711 990 761 926 q 565 1053 661 1053 q 182 569 368 1053 q 35 60 35 183 q 44 6 35 24 q 79 -14 56 -14 q 201 151 146 -14 q 247 369 247 288 q 350 654 247 424 q 556 922 468 922 q 615 885 599 922 q 628 808 628 857 l 628 808 z "},"Q":{"ha":989,"x_min":35,"x_max":954,"o":"m 954 804 q 878 971 954 914 q 704 1021 811 1021 q 453 940 564 1021 q 271 719 349 864 q 254 686 260 700 q 249 664 249 672 q 288 613 249 653 q 332 572 325 572 q 343 582 339 572 q 353 604 347 592 q 486 797 396 711 q 693 897 590 897 q 783 878 751 897 q 818 811 818 857 q 688 553 818 711 q 451 333 572 414 q 324 249 344 261 q 275 229 293 229 q 231 236 267 229 q 158 243 194 243 q 76 224 110 243 q 35 154 35 200 q 79 82 35 104 q 167 65 111 65 q 244 78 199 65 q 310 101 285 89 q 386 83 346 90 q 554 72 457 72 q 675 75 608 72 q 782 81 751 76 q 806 106 796 83 q 832 208 815 131 q 719 196 761 199 q 604 192 667 192 q 531 192 554 192 q 456 193 489 192 l 456 196 q 763 443 597 263 q 954 804 954 651 l 954 804 z "},"R":{"ha":736,"x_min":35,"x_max":701,"o":"m 86 65 q 157 124 117 65 q 210 244 194 181 q 232 358 214 265 q 257 478 244 433 q 357 742 296 621 q 499 897 436 897 q 550 871 528 897 q 572 801 572 842 q 433 506 572 599 q 293 383 293 414 q 347 279 293 338 q 513 69 446 168 q 539 28 535 35 q 558 7 553 7 q 610 39 565 7 q 654 75 654 69 q 647 104 654 88 q 624 147 640 119 q 513 285 592 194 q 450 367 450 354 q 468 385 450 376 q 510 403 478 390 q 651 557 597 443 q 701 782 701 663 q 657 950 701 886 q 515 1021 607 1021 q 376 971 438 1021 q 232 761 300 908 q 115 431 189 661 q 35 119 35 178 q 46 82 35 97 q 86 65 60 65 l 86 65 z "},"S":{"ha":926,"x_min":35,"x_max":892,"o":"m 769 325 q 593 535 769 446 q 417 690 417 625 q 526 843 417 779 q 715 897 621 897 q 750 893 736 897 q 768 876 768 889 q 686 807 768 847 q 578 765 618 774 q 554 728 563 763 q 547 678 547 703 q 554 644 547 653 q 578 638 560 638 q 761 707 653 638 q 892 893 892 789 q 843 990 892 957 q 733 1021 800 1021 q 413 915 543 1021 q 286 668 286 813 q 460 457 286 540 q 633 314 633 374 q 544 219 633 256 q 361 186 464 186 q 229 197 283 186 q 164 233 164 210 q 208 281 164 265 q 281 292 240 292 q 332 288 297 292 q 388 283 368 283 q 417 310 407 283 q 425 376 425 333 q 400 406 425 397 q 301 413 375 413 q 126 369 206 413 q 35 238 35 319 q 121 103 35 144 q 360 65 199 65 q 679 151 569 65 q 769 325 769 222 l 769 325 z "},"T":{"ha":910,"x_min":35,"x_max":875,"o":"m 406 40 q 438 50 426 40 q 460 83 447 58 q 644 486 550 271 q 807 871 731 682 q 856 910 836 882 q 875 969 875 939 q 851 1017 875 997 q 800 1033 829 1033 q 740 1013 765 1033 q 700 963 721 997 q 221 864 317 892 q 35 732 35 810 q 135 600 35 674 q 243 538 221 538 q 299 572 265 538 q 332 625 332 606 q 261 671 332 631 q 189 721 189 711 q 411 790 189 740 q 638 836 617 836 q 646 833 642 836 q 649 825 649 831 q 646 813 649 821 q 639 794 644 808 q 365 207 489 419 q 279 60 279 58 q 289 44 279 47 q 322 40 297 40 l 406 40 z "},"U":{"ha":1054,"x_min":35,"x_max":1019,"o":"m 275 204 l 272 204 l 433 526 q 532 751 494 650 q 569 889 569 851 q 519 990 569 956 q 406 1021 476 1021 q 122 804 238 1021 q 35 547 35 642 q 38 531 35 536 q 47 522 40 522 q 113 549 63 522 q 182 607 172 578 q 253 783 219 724 q 393 894 315 894 q 422 888 411 894 q 432 868 432 879 q 399 777 432 842 q 321 615 367 713 q 171 293 190 336 q 128 147 128 193 q 151 85 128 106 q 219 65 174 65 q 469 235 292 65 q 688 460 544 306 l 689 457 q 600 236 633 351 q 575 114 575 150 q 576 82 575 90 q 582 68 578 68 q 650 78 599 68 q 713 99 713 88 q 715 151 713 126 q 721 199 717 174 q 883 611 742 319 q 1019 889 1019 893 q 1017 900 1019 896 q 1000 904 1011 904 q 932 894 967 904 q 876 858 886 881 q 818 771 858 821 q 701 640 772 713 l 275 204 z "},"V":{"ha":1008,"x_min":35,"x_max":974,"o":"m 874 901 q 846 882 856 890 q 835 863 836 871 q 649 451 819 707 q 357 186 471 186 q 317 194 332 186 q 297 226 297 204 q 436 561 297 296 q 574 890 574 825 q 528 989 574 953 q 418 1021 485 1021 q 129 814 250 1021 q 35 542 35 651 q 39 528 35 533 q 50 522 42 522 q 124 549 78 522 q 179 601 174 576 q 250 781 199 693 q 390 897 317 897 q 421 890 408 897 q 435 865 435 882 q 304 586 435 853 q 174 233 174 319 q 211 107 174 147 q 336 65 250 65 q 786 429 568 65 q 974 922 974 740 q 972 942 974 935 q 964 951 969 951 q 951 949 958 951 q 938 942 949 947 l 874 901 z "},"W":{"ha":1367,"x_min":35,"x_max":1332,"o":"m 524 740 q 556 822 544 782 q 568 896 568 864 q 519 989 568 954 q 407 1021 474 1021 q 129 814 249 1021 q 35 549 35 650 q 38 531 35 535 q 54 524 40 524 q 125 553 79 524 q 182 606 174 582 q 282 832 235 768 q 403 897 332 897 q 424 892 417 897 q 432 869 432 885 q 275 513 432 822 q 118 142 118 203 q 144 83 118 104 q 201 65 168 65 q 371 169 269 65 q 667 503 374 172 l 669 503 q 600 363 629 429 q 557 215 557 264 q 600 103 557 142 q 721 65 642 65 q 1136 447 915 65 q 1332 950 1332 786 q 1329 969 1332 963 q 1319 978 1326 978 q 1254 960 1301 978 q 1199 924 1203 939 q 961 403 1128 642 q 728 186 811 186 q 697 194 710 186 q 682 221 682 204 q 799 526 682 274 q 915 796 915 778 q 885 821 915 806 q 822 836 851 836 q 790 822 804 836 q 768 792 803 836 q 549 536 693 701 q 282 242 378 340 l 279 242 l 524 740 z "},"X":{"ha":999,"x_min":35,"x_max":964,"o":"m 704 65 q 724 68 718 65 q 726 78 726 71 q 690 185 726 94 q 653 447 653 275 q 654 489 653 464 q 656 538 654 485 q 790 697 851 765 q 929 839 869 788 q 958 901 949 858 q 964 963 964 929 q 961 989 964 978 q 954 1000 958 1000 q 854 922 940 1000 q 657 711 747 826 l 654 714 l 658 860 q 635 979 658 943 q 536 1021 607 1021 q 349 929 446 1021 q 261 817 268 854 q 283 754 261 808 q 308 700 304 700 q 389 799 307 700 q 501 897 471 897 q 515 882 513 897 q 521 782 521 860 q 521 690 521 726 q 517 561 519 626 q 244 257 365 374 q 97 132 164 178 q 47 99 36 90 q 35 76 35 89 q 44 67 35 69 q 68 65 50 65 l 182 65 q 365 224 219 65 q 514 381 511 381 q 522 369 519 381 q 524 354 524 363 q 536 211 524 292 q 568 88 550 122 q 586 71 575 75 q 614 65 596 65 l 704 65 z "},"Y":{"ha":996,"x_min":35,"x_max":961,"o":"m 154 565 q 169 581 164 571 q 186 615 178 592 q 242 771 224 735 q 388 897 303 897 q 415 888 404 897 q 425 868 425 879 q 418 840 425 858 q 397 792 411 822 l 201 344 q 149 226 169 269 q 129 147 129 183 q 157 88 129 110 q 222 65 183 65 q 450 171 322 65 q 636 358 528 233 l 639 358 l 519 106 q 399 -124 474 6 q 342 -232 342 -221 q 360 -262 342 -249 q 396 -276 378 -276 q 735 253 490 -276 q 961 808 961 746 q 951 829 961 822 q 931 835 943 835 l 885 835 q 849 822 865 835 q 829 792 833 810 q 610 483 806 683 q 364 261 479 351 l 275 189 l 272 192 l 433 549 q 525 756 517 735 q 560 890 560 843 q 519 989 560 954 q 418 1021 481 1021 q 113 788 226 1021 q 35 540 35 628 q 38 519 35 526 q 47 513 40 513 q 61 515 54 513 q 78 522 69 517 l 154 565 z "},"Z":{"ha":864,"x_min":35,"x_max":829,"o":"m 510 469 q 717 624 653 561 q 829 844 829 733 q 768 979 829 932 q 622 1021 713 1021 q 488 993 557 1021 q 368 924 428 968 q 335 840 353 911 q 319 749 319 776 q 322 736 319 739 q 333 731 325 731 q 347 735 340 731 q 358 746 351 739 q 513 864 424 825 q 624 892 575 892 q 676 879 658 892 q 693 846 693 867 q 525 632 693 767 q 356 458 356 499 q 443 368 356 389 q 531 281 531 349 q 425 13 531 163 q 217 -143 315 -143 q 183 -132 194 -143 q 169 -99 169 -121 q 265 61 169 -29 q 361 176 361 150 q 349 208 361 194 q 317 224 335 224 q 143 113 244 224 q 35 -111 35 -6 q 82 -224 35 -182 q 199 -264 128 -264 q 519 -78 367 -264 q 668 285 668 104 q 631 411 668 363 q 510 467 588 467 l 510 469 z "},"[":{"ha":913,"x_min":129,"x_max":804,"o":"m 368 -140 l 392 -57 l 263 -57 l 643 1053 l 778 1053 l 804 1138 l 561 1138 l 129 -140 l 368 -140 z "},"\\":{"ha":667,"x_min":35,"x_max":632,"o":"m 35 1053 l 518 -71 l 632 -71 l 151 1053 l 35 1053 z "},"]":{"ha":913,"x_min":108,"x_max":783,"o":"m 351 -143 l 783 1135 l 544 1135 l 519 1050 l 649 1050 l 268 -60 l 135 -60 l 108 -143 l 351 -143 z "},"^":{"ha":576,"x_min":35,"x_max":542,"o":"m 461 342 l 542 342 l 324 833 l 253 833 l 35 342 l 115 342 l 288 732 l 461 342 z "},"_":{"ha":747,"x_min":35,"x_max":713,"o":"m 713 -96 l 713 -29 l 35 -29 l 35 -96 l 713 -96 z "},"`":{"ha":600,"x_min":164,"x_max":436,"o":"m 164 883 l 267 763 q 316 697 283 744 q 371 650 349 650 l 436 650 l 419 678 q 363 774 390 725 q 315 857 331 826 l 301 883 l 164 883 z "},"a":{"ha":672,"x_min":35,"x_max":638,"o":"m 456 393 q 433 396 449 393 q 414 400 410 401 q 317 258 372 322 q 200 178 247 178 q 175 193 185 178 q 165 226 165 207 l 165 265 q 258 413 165 347 q 433 472 344 472 q 506 461 468 472 q 536 449 525 454 q 542 451 539 449 q 544 461 544 456 q 542 511 544 482 q 536 554 539 540 q 492 563 524 560 q 438 564 468 564 q 178 488 300 564 q 35 264 35 397 l 35 233 q 69 110 35 154 q 160 65 103 65 l 186 65 q 263 85 229 65 q 324 136 288 100 q 333 83 324 99 q 379 65 344 65 q 472 96 414 65 q 565 151 492 106 q 625 200 607 178 q 638 240 638 219 q 635 289 638 274 q 624 307 632 307 q 610 299 618 307 q 594 285 603 292 q 518 228 564 258 q 457 192 468 192 q 447 196 451 192 q 443 203 443 199 q 474 274 443 208 q 531 393 492 313 l 456 393 z "},"b":{"ha":660,"x_min":35,"x_max":625,"o":"m 557 488 q 544 542 557 522 q 508 561 532 561 q 418 485 460 561 q 375 307 375 407 q 379 285 375 299 q 382 260 382 271 q 332 199 382 238 q 257 160 283 160 q 233 168 242 160 q 226 193 226 176 q 262 318 226 235 q 344 519 297 401 q 457 744 367 575 q 547 997 547 913 q 539 1036 547 1022 q 504 1053 528 1053 q 463 1043 478 1053 q 438 1014 450 1035 q 299 694 397 949 q 196 435 196 435 q 121 358 181 410 q 46 299 67 310 q 36 279 38 294 q 35 236 35 269 q 38 196 35 208 q 44 183 39 183 q 71 203 49 183 q 113 235 99 226 q 107 199 108 213 q 104 163 104 178 q 135 99 104 126 q 217 68 167 68 q 343 93 294 68 q 443 179 382 114 q 476 165 460 169 q 514 161 493 161 q 565 169 540 161 q 600 186 575 174 q 619 214 614 194 q 625 263 625 231 q 621 299 625 286 q 613 310 618 310 q 579 286 611 310 q 533 261 549 261 q 517 264 522 261 q 508 279 508 268 q 533 350 508 278 q 557 488 557 422 l 557 488 z "},"c":{"ha":564,"x_min":35,"x_max":529,"o":"m 450 361 q 478 408 458 361 q 496 482 496 457 q 461 540 496 519 q 356 564 425 564 q 154 493 253 564 q 35 276 35 408 l 35 225 q 85 96 35 132 q 225 65 126 65 q 364 99 293 65 q 488 174 414 121 q 521 208 510 190 q 529 239 529 224 q 524 299 529 282 q 514 308 521 308 q 419 238 501 308 q 240 168 336 168 q 179 193 199 168 q 161 261 161 217 q 218 414 161 347 q 335 478 272 478 q 357 467 349 478 q 363 443 363 457 q 349 392 363 418 q 335 367 335 365 q 342 363 335 363 q 356 361 344 361 l 450 361 z "},"d":{"ha":781,"x_min":35,"x_max":746,"o":"m 163 65 q 250 79 214 65 q 325 126 282 93 q 358 78 344 89 q 411 63 376 63 q 535 101 463 63 q 651 176 579 125 q 683 215 674 193 q 690 251 690 232 q 686 282 690 267 q 671 304 681 304 q 583 239 674 304 q 469 174 493 174 q 444 179 453 174 q 436 204 436 186 q 464 247 436 217 q 510 300 504 292 q 675 592 613 436 q 746 918 746 767 q 739 999 746 968 q 694 1053 726 1053 q 549 917 636 1053 q 392 551 453 768 q 357 554 383 551 q 321 557 335 557 q 219 535 269 557 q 131 475 174 514 q 49 358 68 415 q 35 233 35 318 q 63 113 35 153 q 163 65 94 65 l 163 65 m 460 407 q 536 671 471 499 q 658 931 603 849 l 661 928 q 596 671 651 824 q 463 404 535 501 l 460 407 m 203 174 q 167 203 178 174 q 157 265 157 226 q 219 407 157 346 q 336 464 278 464 q 353 463 347 464 q 361 451 361 458 q 343 378 361 456 q 325 258 325 301 q 275 203 325 235 q 203 174 228 174 l 203 174 z "},"e":{"ha":564,"x_min":35,"x_max":529,"o":"m 35 229 q 85 103 35 144 q 208 65 128 65 q 371 101 288 65 q 497 179 438 131 q 524 217 517 199 q 529 261 529 232 q 526 292 529 278 q 517 307 522 307 q 503 297 513 307 q 475 272 483 279 q 375 211 436 242 q 236 168 292 168 q 189 183 210 168 q 167 215 167 199 q 175 228 167 224 q 200 231 182 231 q 363 288 261 231 q 488 444 488 357 q 453 539 488 510 q 367 564 424 564 q 149 486 253 564 q 35 293 35 403 l 35 229 m 360 426 q 278 350 360 388 q 158 315 206 317 q 224 415 175 368 q 325 467 276 467 q 351 456 342 467 q 360 426 360 444 l 360 426 z "},"f":{"ha":593,"x_min":35,"x_max":558,"o":"m 457 183 q 482 215 475 196 q 488 258 488 231 q 482 297 488 282 q 472 311 478 311 q 438 285 469 311 q 318 192 382 240 q 307 178 311 186 q 304 158 306 171 q 286 49 299 103 q 251 -62 272 -10 q 199 -167 224 -128 q 158 -207 174 -207 q 147 -201 151 -207 q 144 -183 144 -196 q 228 65 144 -165 q 381 497 342 381 q 477 717 396 540 q 558 1001 558 893 q 549 1038 558 1024 q 515 1053 538 1053 q 397 878 458 1053 q 253 469 265 497 q 200 407 247 454 q 86 303 157 365 q 72 282 76 294 q 67 238 67 265 q 68 204 67 217 q 76 183 69 183 q 130 224 85 183 q 179 267 175 264 l 182 267 q 100 26 72 -58 q 35 -218 35 -169 q 58 -296 35 -267 q 132 -326 83 -326 q 249 -258 188 -326 q 326 -140 289 -211 q 368 -10 356 -82 q 383 135 375 29 l 457 183 z "},"g":{"ha":661,"x_min":35,"x_max":626,"o":"m 418 399 q 326 268 351 297 q 201 178 253 178 q 169 200 181 178 q 161 240 161 217 l 161 278 q 235 413 161 354 q 415 472 310 472 q 503 463 481 472 q 531 453 525 453 q 539 463 538 453 q 540 513 540 474 q 525 556 540 549 q 431 564 508 564 q 165 497 276 564 q 35 281 35 419 l 35 217 q 68 108 35 149 q 169 65 104 65 q 218 72 193 65 q 272 96 249 79 q 272 86 272 94 q 271 75 271 79 q 183 -51 271 75 q 94 -268 94 -176 q 110 -308 94 -292 q 154 -326 126 -326 q 250 -239 204 -326 q 333 -50 210 -317 q 465 79 351 -15 q 613 194 518 122 q 624 214 621 201 q 626 257 626 226 q 624 294 626 278 q 615 310 619 310 q 554 264 613 310 q 443 179 474 201 l 442 182 q 485 290 463 238 q 533 399 508 347 l 418 399 z "},"h":{"ha":788,"x_min":35,"x_max":753,"o":"m 354 531 q 481 771 435 672 q 556 1004 556 931 q 546 1038 556 1026 q 500 1053 532 1053 q 351 814 443 1053 q 215 472 258 575 q 143 389 207 449 q 47 304 106 354 q 38 283 40 297 q 35 247 35 271 q 35 204 35 217 q 39 183 36 183 q 63 199 44 183 q 103 233 94 226 l 106 231 q 81 170 97 208 q 65 110 65 132 q 78 75 65 86 q 114 65 89 65 q 194 117 139 65 q 322 233 250 169 q 457 344 401 303 q 510 379 503 379 q 511 378 511 379 q 513 372 513 375 q 458 258 513 374 q 404 122 404 144 q 425 78 404 92 q 472 65 443 65 q 588 99 519 65 q 690 161 631 121 q 738 201 722 182 q 753 247 753 222 q 749 290 753 269 q 739 310 743 310 q 661 253 738 310 q 567 194 586 194 q 560 197 561 194 q 557 204 557 199 q 622 340 557 214 q 688 510 688 468 q 674 542 688 529 q 626 557 657 557 q 461 460 579 557 q 267 306 293 322 l 264 306 l 354 531 z "},"i":{"ha":493,"x_min":35,"x_max":458,"o":"m 258 549 q 247 518 242 501 q 233 486 240 499 q 147 393 219 461 q 49 303 96 343 q 36 281 39 294 q 35 239 35 271 q 36 197 35 207 q 43 183 38 183 q 69 203 47 183 q 113 238 100 228 l 115 235 q 93 179 115 233 q 78 122 78 144 q 94 81 78 93 q 144 68 110 68 q 301 122 211 68 q 406 196 336 143 q 419 218 415 203 q 424 261 424 235 q 421 292 424 279 q 411 308 418 308 q 396 300 406 308 q 379 283 381 285 q 314 233 321 238 q 243 194 260 194 q 236 199 239 194 q 235 207 235 201 q 242 233 235 217 q 257 265 250 249 l 385 549 l 258 549 m 396 781 q 335 753 360 781 q 310 693 310 726 q 326 646 310 667 q 371 625 344 625 q 433 653 407 625 q 458 713 458 678 q 442 760 458 739 q 396 781 424 781 l 396 781 z "},"j":{"ha":572,"x_min":35,"x_max":538,"o":"m 368 549 q 235 421 307 488 q 99 300 178 368 q 89 283 92 294 q 86 256 86 274 q 88 207 86 222 q 93 182 89 182 q 150 229 96 182 q 269 332 236 304 l 272 331 q 199 129 250 276 q 151 11 161 21 q 82 -97 119 -26 q 35 -250 35 -190 q 46 -310 35 -287 q 90 -336 60 -336 q 139 -312 117 -336 q 171 -264 157 -294 q 224 -128 192 -218 q 256 -47 249 -54 l 497 179 q 519 206 514 196 q 526 240 526 219 q 524 285 526 267 q 514 308 521 308 q 419 231 504 308 q 324 143 335 153 l 321 144 q 397 343 450 488 q 469 549 440 460 l 368 549 m 475 781 q 413 753 439 781 q 388 693 388 726 q 404 646 388 665 q 450 625 422 625 q 513 653 486 625 q 538 713 538 678 q 521 760 538 739 q 475 781 503 781 l 475 781 z "},"k":{"ha":788,"x_min":35,"x_max":753,"o":"m 704 443 q 669 532 704 500 q 578 564 635 564 q 442 526 504 564 q 331 438 401 503 l 328 440 q 469 736 342 476 q 569 1001 569 936 q 557 1038 569 1025 q 514 1053 542 1053 q 385 872 460 1053 q 207 456 229 501 q 143 386 199 438 q 50 303 139 382 q 38 279 40 294 q 35 250 35 268 q 36 201 35 213 q 42 183 38 183 q 69 203 49 183 q 107 235 99 229 l 110 233 q 85 174 86 175 q 68 107 68 128 q 82 75 68 86 q 114 65 94 65 q 157 81 136 65 q 197 124 176 93 q 371 344 300 268 q 540 461 478 461 q 557 454 549 461 q 565 436 565 446 q 529 374 565 410 q 390 310 478 324 q 349 235 367 281 q 328 157 328 188 q 358 90 328 117 q 426 65 388 65 q 604 111 508 65 q 738 194 678 146 q 750 222 747 201 q 753 258 753 235 q 747 296 753 283 q 733 307 742 307 q 718 293 733 307 q 667 254 697 274 q 582 210 622 228 q 483 181 518 181 q 468 186 471 181 q 464 203 464 190 q 493 238 464 221 q 568 271 508 246 q 658 339 617 290 q 704 443 704 392 l 704 443 z "},"l":{"ha":539,"x_min":35,"x_max":504,"o":"m 504 989 q 496 1035 504 1019 q 458 1053 485 1053 q 418 1033 433 1053 q 393 988 406 1019 q 301 739 364 914 q 199 450 213 490 q 150 394 197 442 q 46 300 99 342 q 39 281 42 296 q 35 244 35 264 q 36 200 35 214 q 42 185 38 185 q 68 204 44 185 q 119 244 99 229 l 122 242 q 103 180 117 221 q 90 129 90 139 q 113 79 90 94 q 165 65 131 65 q 265 99 203 65 q 372 164 308 121 q 414 207 403 186 q 425 264 425 228 q 419 294 425 281 q 410 308 415 308 q 335 251 408 308 q 244 194 261 194 q 236 203 238 194 q 235 215 235 207 q 283 381 235 246 q 351 549 329 506 q 447 763 404 646 q 504 989 504 911 l 504 989 z "},"m":{"ha":1040,"x_min":35,"x_max":1006,"o":"m 257 549 q 239 507 235 499 q 224 475 228 479 q 136 381 208 450 q 43 296 76 324 q 36 260 38 290 q 35 214 35 242 q 35 193 35 200 q 38 181 36 181 q 67 204 40 181 q 100 231 94 228 l 103 228 q 79 171 99 217 q 60 106 60 125 q 72 75 60 86 q 110 65 85 65 q 186 119 135 65 q 263 197 253 190 q 367 294 267 200 q 463 381 460 381 q 465 378 464 381 q 465 372 465 376 q 411 251 465 368 q 357 106 357 133 q 365 79 357 89 q 397 65 376 65 q 469 104 432 65 q 586 218 506 143 q 689 314 654 282 q 756 372 751 372 q 758 371 757 372 q 760 367 760 369 q 708 251 760 360 q 656 122 656 143 q 672 85 656 101 q 718 65 690 65 q 874 119 776 65 q 983 190 935 153 q 1001 222 996 201 q 1006 258 1006 236 q 1001 296 1006 282 q 992 308 997 308 q 919 253 993 308 q 826 197 847 197 q 818 199 822 197 q 814 207 814 201 q 879 356 814 222 q 943 514 943 489 q 929 543 943 531 q 886 557 913 557 q 777 506 832 557 q 586 346 722 456 q 621 439 592 375 q 647 511 647 497 q 631 547 647 535 q 585 557 614 557 q 422 464 533 557 q 293 354 290 353 l 290 357 q 328 444 300 385 q 376 549 317 422 l 257 549 z "},"n":{"ha":788,"x_min":35,"x_max":753,"o":"m 261 549 q 251 542 256 549 q 242 521 246 535 q 161 403 231 478 q 79 326 110 349 q 46 296 54 308 q 35 261 35 282 q 36 214 35 231 q 40 183 36 183 q 69 203 46 183 q 99 229 93 224 l 101 229 q 75 167 60 126 q 58 103 58 124 q 68 78 58 88 q 99 65 81 65 q 170 103 129 65 q 289 204 211 140 q 403 299 318 228 q 500 369 488 369 q 501 368 501 369 q 503 365 503 367 q 451 254 503 361 q 400 121 400 147 q 422 78 400 92 q 479 65 442 65 q 618 115 525 65 q 736 194 700 160 q 747 211 743 201 q 753 251 753 226 q 749 294 753 279 q 736 308 743 308 q 661 251 739 308 q 560 194 583 194 q 556 199 556 194 q 554 208 554 201 q 621 353 554 224 q 686 506 686 481 q 669 543 686 531 q 613 557 651 557 q 432 450 572 557 q 290 343 292 343 q 285 344 288 343 q 283 347 283 346 q 319 426 283 351 q 375 549 361 517 l 261 549 z "},"o":{"ha":596,"x_min":35,"x_max":561,"o":"m 350 594 q 136 507 225 594 q 35 235 35 407 q 79 110 35 156 q 197 65 122 65 q 322 92 269 65 q 421 174 371 115 q 440 165 431 168 q 460 163 450 163 q 499 169 478 163 q 540 188 508 174 q 557 206 551 193 q 561 250 561 218 q 560 297 561 285 q 553 310 557 310 q 529 292 554 310 q 483 274 504 274 q 471 274 474 274 q 461 276 464 275 q 471 303 463 283 q 478 329 478 321 q 474 357 478 340 q 465 381 472 361 q 485 400 472 389 q 497 449 497 411 q 451 557 497 515 q 350 594 408 594 l 350 594 m 238 178 q 185 196 201 178 q 164 261 164 217 q 217 414 164 349 q 314 472 265 472 q 361 454 344 472 q 374 418 374 439 q 339 376 374 411 q 303 289 303 340 q 308 261 303 279 q 321 229 313 247 q 286 193 313 210 q 238 178 258 178 l 238 178 z "},"p":{"ha":864,"x_min":35,"x_max":829,"o":"m 329 549 q 324 542 326 546 q 315 518 321 536 q 206 411 306 492 q 83 308 107 331 q 69 293 74 299 q 64 272 64 285 l 64 203 q 65 188 64 192 q 71 183 68 183 q 115 219 75 183 q 193 292 156 254 l 238 338 l 240 338 q 121 40 174 179 q 35 -258 35 -192 q 49 -306 35 -287 q 90 -326 64 -326 q 132 -306 114 -326 q 158 -247 150 -285 q 200 -79 178 -158 q 254 89 228 21 q 410 340 307 229 q 558 442 504 442 q 582 435 574 442 q 589 419 589 429 q 517 257 589 357 q 410 160 446 160 q 379 165 399 160 q 351 169 358 169 q 325 163 333 169 q 317 135 317 154 q 342 86 317 108 q 389 65 365 65 q 446 74 419 65 q 485 89 463 78 q 515 79 499 82 q 544 78 526 78 q 667 103 607 78 q 771 164 713 122 q 814 201 803 185 q 829 257 829 222 q 825 290 829 276 q 811 307 819 307 q 800 300 807 307 q 781 282 793 293 q 696 215 728 235 q 594 178 654 190 l 594 181 q 681 292 654 242 q 717 425 717 356 q 685 521 717 483 q 600 557 653 557 q 475 519 532 557 q 378 425 428 489 l 375 425 q 399 485 406 506 q 421 549 411 521 l 329 549 z "},"q":{"ha":692,"x_min":35,"x_max":657,"o":"m 586 532 q 518 557 558 549 q 446 564 485 564 q 175 492 294 564 q 35 264 35 406 l 35 210 q 68 107 35 147 q 168 65 104 65 q 222 74 197 65 q 271 99 246 82 l 274 96 q 191 -79 236 7 q 146 -218 146 -165 q 172 -299 146 -272 q 251 -326 197 -326 q 447 -193 368 -326 q 528 103 521 -68 q 583 146 557 125 q 633 190 611 168 q 654 217 649 204 q 657 250 657 225 q 651 293 657 275 q 640 310 646 310 q 569 254 636 310 q 443 143 493 193 q 369 -126 428 -10 q 289 -224 321 -224 q 275 -214 281 -224 q 268 -185 268 -203 q 313 -72 268 -168 q 406 126 324 -46 l 513 354 q 521 372 518 364 q 524 389 524 382 q 489 396 524 393 q 435 399 461 399 q 418 396 422 399 q 406 385 411 393 q 321 263 364 314 q 194 176 249 176 q 169 199 176 176 q 163 257 163 218 q 251 417 163 354 q 425 472 329 472 q 510 458 467 472 q 586 418 550 443 l 586 532 z "},"r":{"ha":614,"x_min":35,"x_max":579,"o":"m 196 556 q 200 528 196 540 q 214 504 204 513 q 139 397 182 449 q 42 297 97 346 q 36 281 36 292 q 35 233 35 271 q 36 197 35 206 q 43 185 38 185 q 144 272 51 185 q 279 415 246 365 q 303 444 296 439 q 333 453 314 453 q 351 450 344 453 q 360 442 360 447 q 293 303 360 438 q 225 139 225 167 q 244 83 225 101 q 308 65 264 65 q 429 107 351 65 q 564 197 504 146 q 576 217 572 204 q 579 250 579 228 q 574 294 579 279 q 561 308 568 308 q 549 301 556 308 q 526 279 542 293 q 457 226 506 258 q 397 194 407 194 q 385 197 390 194 q 379 210 379 201 q 382 215 379 211 q 389 229 388 225 q 466 384 433 322 q 499 476 499 446 q 475 531 499 510 q 419 551 453 551 q 383 547 406 551 q 354 543 360 543 q 342 561 346 543 q 339 588 339 574 q 321 621 339 604 q 269 642 299 642 q 215 615 236 642 q 196 556 196 590 l 196 556 z "},"s":{"ha":560,"x_min":35,"x_max":525,"o":"m 257 289 q 228 203 247 238 q 185 163 207 163 q 140 167 167 163 q 103 171 113 171 q 79 165 88 171 q 68 146 68 160 q 97 86 68 107 q 172 65 126 65 q 191 69 183 65 q 206 74 199 72 q 228 79 214 76 q 264 81 242 81 q 374 104 319 81 q 492 182 426 128 q 519 217 514 200 q 525 263 525 231 q 521 297 525 286 q 510 308 517 308 q 442 256 507 308 q 349 201 375 203 q 383 300 371 232 q 394 397 393 350 q 394 497 394 397 q 394 558 394 558 q 410 589 394 565 q 425 643 425 613 q 413 690 425 672 q 371 711 399 711 q 301 658 326 711 q 281 563 281 615 q 169 422 239 497 q 39 297 103 349 q 35 272 36 294 q 35 235 35 260 q 36 196 35 204 q 42 185 38 185 q 153 289 50 185 q 263 392 256 392 q 265 388 264 392 q 267 374 267 382 q 264 332 267 358 q 257 289 261 308 l 257 289 z "},"t":{"ha":563,"x_min":35,"x_max":528,"o":"m 244 729 q 215 710 226 729 q 203 657 203 690 q 207 640 203 646 q 218 635 210 635 l 292 635 l 246 511 q 168 411 235 483 q 63 311 104 343 q 40 283 46 299 q 35 247 35 271 q 38 196 35 210 q 44 185 39 185 q 79 210 50 185 q 146 267 122 249 l 149 267 q 117 176 125 201 q 103 115 103 132 q 126 74 103 86 q 175 65 144 65 q 296 104 218 65 q 390 160 350 131 q 443 207 431 186 q 453 257 453 222 q 449 297 453 282 q 439 310 444 310 q 358 247 438 310 q 261 183 281 183 q 249 188 253 183 q 243 201 243 192 q 299 353 243 217 q 415 635 244 219 l 489 635 q 519 653 510 635 q 528 700 528 669 q 524 724 528 717 q 511 729 521 729 l 447 729 q 497 854 510 890 q 525 950 525 929 q 518 990 525 976 q 489 1007 508 1007 q 392 907 438 1007 q 342 767 367 853 l 332 729 l 244 729 z "},"u":{"ha":788,"x_min":35,"x_max":753,"o":"m 614 549 q 603 544 608 549 q 594 538 599 540 q 503 446 503 446 q 390 338 432 375 q 307 269 368 317 q 232 217 240 217 q 228 219 229 217 q 228 224 228 221 q 233 235 228 225 q 240 249 239 244 l 361 503 q 369 521 360 501 q 374 536 374 531 q 369 544 374 542 q 361 549 365 549 l 260 549 q 253 542 257 549 q 247 529 250 536 q 233 497 243 518 q 211 461 221 472 q 139 382 179 422 q 47 303 97 342 q 36 278 39 294 q 35 229 35 267 q 36 197 35 206 q 40 183 36 183 q 65 203 44 183 q 99 233 92 228 l 101 231 q 75 172 86 206 q 60 110 60 133 q 78 74 60 83 q 118 65 92 65 q 296 147 176 65 q 456 271 369 197 l 458 268 q 428 194 449 242 q 407 119 407 147 q 429 76 407 89 q 479 65 447 65 q 597 107 518 65 q 704 172 657 138 q 743 208 732 192 q 753 256 753 225 q 749 292 753 274 q 739 310 744 310 q 724 300 735 310 q 700 278 700 278 q 631 226 674 254 q 571 197 585 197 q 563 201 565 197 q 560 210 560 204 q 563 215 561 213 q 569 231 567 222 l 682 469 q 703 514 686 478 q 711 533 711 529 q 708 543 711 539 q 694 549 704 549 l 614 549 z "},"v":{"ha":685,"x_min":35,"x_max":650,"o":"m 281 549 q 264 543 271 549 q 247 510 256 535 q 142 382 229 461 q 40 297 88 332 q 36 282 36 294 q 35 244 35 272 q 36 193 35 201 q 40 183 36 183 q 67 203 46 183 q 114 242 97 229 l 115 239 q 107 207 110 225 q 104 168 104 189 q 139 88 104 113 q 239 65 169 65 q 363 101 303 65 q 457 182 408 128 q 496 160 475 168 q 539 153 517 153 q 576 160 558 153 q 626 188 600 168 q 643 215 638 196 q 650 264 650 235 q 646 297 650 283 q 636 310 642 310 q 604 283 635 310 q 557 257 574 257 q 538 261 547 257 q 528 271 529 265 q 571 353 528 272 q 614 490 614 435 q 607 535 614 519 q 572 557 597 557 q 464 450 514 557 q 415 294 426 371 q 354 222 414 278 q 256 163 290 163 q 232 171 242 163 q 222 190 222 178 q 272 314 222 218 q 361 504 336 438 q 371 522 363 508 q 376 539 376 532 q 371 546 376 543 q 353 549 365 549 l 281 549 z "},"w":{"ha":911,"x_min":35,"x_max":876,"o":"m 267 549 q 228 513 242 549 q 204 456 207 458 q 135 382 189 433 q 56 311 82 331 q 39 293 44 303 q 35 269 35 285 l 35 208 q 36 189 35 196 q 40 183 38 183 q 65 199 49 183 q 103 235 81 215 l 106 233 q 90 189 94 204 q 85 144 85 167 q 113 86 85 108 q 172 65 138 65 q 293 89 246 65 q 383 164 331 108 q 413 86 389 107 q 490 65 435 65 q 608 101 551 65 q 701 179 651 128 q 729 160 715 165 q 764 154 744 154 q 807 164 782 154 q 847 183 824 169 q 871 210 864 194 q 876 260 876 225 q 874 296 876 283 q 863 310 869 310 q 831 283 861 310 q 788 257 799 257 q 776 260 779 257 q 771 269 771 263 q 814 361 771 275 q 857 483 857 446 q 850 532 857 515 q 814 557 840 557 q 699 433 738 557 q 654 292 661 308 q 597 221 646 271 q 514 163 542 163 q 501 168 507 163 q 496 178 496 172 q 542 326 496 190 q 588 476 588 463 q 578 503 588 493 q 547 513 567 513 q 494 481 518 513 q 449 403 479 463 q 333 246 411 329 q 229 163 258 163 q 215 167 221 163 q 208 179 208 171 q 285 363 208 192 q 360 542 360 532 q 354 547 360 544 q 340 549 350 549 l 267 549 z "},"x":{"ha":760,"x_min":35,"x_max":725,"o":"m 565 549 l 458 442 q 443 526 457 501 q 386 557 426 557 q 226 461 322 557 q 53 306 131 365 q 40 292 44 299 q 35 276 35 285 l 35 211 q 35 190 35 197 q 38 181 36 181 q 51 189 40 181 q 81 214 63 199 l 299 404 q 315 422 310 415 q 326 429 321 429 q 338 419 332 429 q 344 385 344 406 q 343 353 344 363 q 333 336 340 343 q 165 168 194 197 q 82 76 82 83 q 85 72 82 74 q 90 72 86 72 l 197 72 l 338 208 q 365 103 342 135 q 454 65 392 65 q 575 106 496 65 q 686 175 635 138 q 719 211 713 196 q 725 247 725 222 q 721 294 725 279 q 711 310 718 310 q 617 239 714 310 q 481 168 518 168 q 458 181 467 168 q 449 228 449 196 q 451 268 449 240 q 456 313 453 293 q 615 474 533 392 q 682 540 657 515 l 679 540 q 675 547 679 546 q 663 549 671 549 l 565 549 z "},"y":{"ha":738,"x_min":35,"x_max":703,"o":"m 574 549 q 554 532 567 544 q 533 510 544 522 q 411 389 497 469 q 231 233 303 286 l 228 235 l 369 549 l 251 549 l 215 467 q 142 388 207 449 q 43 300 93 342 q 38 281 42 299 q 35 253 35 263 q 36 204 35 215 q 42 185 38 185 q 69 204 50 185 q 100 233 97 231 l 103 231 q 78 172 94 208 q 61 110 61 135 q 78 75 61 88 q 115 65 93 65 q 252 135 172 65 q 431 283 332 204 l 433 281 q 384 174 408 226 q 336 67 360 121 q 236 -83 335 64 q 160 -262 160 -196 q 176 -308 160 -290 q 221 -326 193 -326 q 331 -207 278 -326 q 410 -42 400 -53 q 537 78 475 32 q 660 174 599 125 q 692 204 683 190 q 703 249 703 221 q 699 290 703 274 q 688 310 694 310 q 679 303 686 310 q 665 292 672 297 q 578 221 621 254 q 506 169 521 176 l 674 549 l 574 549 z "},"z":{"ha":746,"x_min":35,"x_max":711,"o":"m 685 185 q 707 211 703 199 q 711 253 711 222 q 708 290 711 274 q 699 310 704 310 q 686 303 693 310 q 653 272 679 296 q 533 172 601 228 q 463 121 467 121 q 447 146 457 121 q 439 179 439 171 q 517 250 439 175 q 593 413 593 324 q 553 515 593 475 q 449 557 513 557 q 247 459 331 557 q 90 308 163 361 q 71 279 76 297 q 67 243 67 265 q 68 203 67 218 q 76 183 71 183 q 113 210 81 183 q 192 282 144 238 q 326 408 297 385 q 421 456 383 456 q 456 440 443 456 q 468 392 468 424 q 417 292 468 350 q 344 238 368 238 q 328 239 343 238 q 301 240 313 240 q 231 217 268 240 q 189 154 189 189 q 206 122 189 133 q 244 111 221 111 q 289 118 265 111 q 311 124 313 124 q 325 111 319 124 q 329 81 329 100 q 326 56 329 67 q 314 36 322 40 q 132 -76 186 -33 q 35 -228 35 -153 q 60 -307 35 -281 q 143 -336 86 -336 q 329 -224 242 -336 q 443 -3 403 -132 l 685 185 m 119 -233 q 186 -143 119 -192 q 288 -76 147 -171 q 236 -186 281 -125 q 142 -253 186 -253 q 126 -249 132 -253 q 119 -233 119 -243 l 119 -233 z "},"{":{"ha":871,"x_min":129,"x_max":763,"o":"m 172 454 q 226 426 207 454 q 243 364 243 400 q 239 326 242 344 q 228 290 235 307 l 142 38 q 132 -3 135 18 q 129 -40 129 -21 q 158 -111 129 -82 q 228 -140 186 -140 l 325 -140 l 354 -57 l 286 -57 q 257 -47 267 -57 q 247 -11 247 -35 q 251 21 247 3 q 261 61 254 38 l 347 311 q 360 360 356 338 q 364 400 364 381 q 344 463 364 435 q 292 499 325 492 l 293 503 q 379 546 333 510 q 472 682 444 597 l 560 933 q 601 1015 576 985 q 667 1053 631 1053 l 733 1053 l 763 1138 l 665 1138 q 540 1092 593 1138 q 457 957 486 1046 l 371 704 q 296 588 346 633 q 204 544 249 544 l 172 454 z "},"|":{"ha":396,"x_min":158,"x_max":238,"o":"m 158 -53 l 238 -53 l 238 1053 l 158 1053 l 158 -53 z "},"}":{"ha":871,"x_min":108,"x_max":742,"o":"m 697 538 q 644 567 664 538 q 628 628 628 592 q 632 665 629 649 q 643 703 636 685 l 728 954 q 739 996 735 975 q 742 1032 742 1014 q 713 1104 742 1074 q 643 1135 683 1135 l 544 1135 l 517 1050 l 585 1050 q 614 1039 604 1050 q 624 1003 624 1028 q 619 971 624 989 q 608 931 615 953 l 522 681 q 511 633 514 656 q 507 593 507 613 q 525 531 507 557 q 578 496 544 503 l 576 492 q 490 447 538 485 q 397 310 425 394 l 310 58 q 269 -22 293 7 q 204 -60 240 -60 l 136 -60 l 108 -143 l 206 -143 q 331 -99 276 -143 q 414 35 383 -53 l 500 289 q 575 404 524 358 q 668 447 622 447 l 697 538 z "},"~":{"ha":696,"x_min":35,"x_max":661,"o":"m 611 417 q 561 351 579 369 q 493 319 529 319 q 428 336 469 319 q 354 369 439 332 q 276 399 308 389 q 203 411 235 411 q 96 375 142 411 q 35 296 61 346 l 83 211 q 126 278 104 256 q 197 310 156 310 q 282 294 240 310 q 353 261 314 283 q 421 229 390 240 q 492 217 457 217 q 592 254 547 217 q 661 333 619 276 l 611 417 z "},"":{"ha":1389,"x_min":0,"x_max":0,"o":""},"":{"ha":1389,"x_min":0,"x_max":0,"o":""},"":{"ha":1389,"x_min":0,"x_max":0,"o":""},"":{"ha":1389,"x_min":0,"x_max":0,"o":""},"":{"ha":1389,"x_min":0,"x_max":0,"o":""},"":{"ha":1389,"x_min":0,"x_max":0,"o":""},"":{"ha":1389,"x_min":0,"x_max":0,"o":""},"":{"ha":1389,"x_min":0,"x_max":0,"o":""},"":{"ha":1389,"x_min":0,"x_max":0,"o":""},"":{"ha":1389,"x_min":0,"x_max":0,"o":""},"":{"ha":1389,"x_min":0,"x_max":0,"o":""},"":{"ha":1389,"x_min":0,"x_max":0,"o":""},"":{"ha":1389,"x_min":0,"x_max":0,"o":""},"":{"ha":1389,"x_min":0,"x_max":0,"o":""},"":{"ha":1389,"x_min":0,"x_max":0,"o":""},"":{"ha":1389,"x_min":0,"x_max":0,"o":""},"":{"ha":1389,"x_min":0,"x_max":0,"o":""},"":{"ha":1389,"x_min":0,"x_max":0,"o":""},"":{"ha":1389,"x_min":0,"x_max":0,"o":""},"":{"ha":1389,"x_min":0,"x_max":0,"o":""},"":{"ha":1389,"x_min":0,"x_max":0,"o":""},"":{"ha":1389,"x_min":0,"x_max":0,"o":""},"":{"ha":1389,"x_min":0,"x_max":0,"o":""},"":{"ha":1389,"x_min":0,"x_max":0,"o":""},"":{"ha":1389,"x_min":0,"x_max":0,"o":""},"":{"ha":1389,"x_min":0,"x_max":0,"o":""},"":{"ha":1389,"x_min":0,"x_max":0,"o":""},"":{"ha":1389,"x_min":0,"x_max":0,"o":""},"":{"ha":1389,"x_min":0,"x_max":0,"o":""},"":{"ha":1389,"x_min":0,"x_max":0,"o":""},"":{"ha":1389,"x_min":0,"x_max":0,"o":""},"":{"ha":1389,"x_min":0,"x_max":0,"o":""},"":{"ha":1389,"x_min":0,"x_max":0,"o":""},"":{"ha":1389,"x_min":0,"x_max":0,"o":""},"":{"ha":1389,"x_min":0,"x_max":0,"o":""},"":{"ha":1389,"x_min":0,"x_max":0,"o":""},"":{"ha":1389,"x_min":0,"x_max":0,"o":""},"":{"ha":1389,"x_min":0,"x_max":0,"o":""},"":{"ha":1389,"x_min":0,"x_max":0,"o":""},"":{"ha":1389,"x_min":0,"x_max":0,"o":""},"":{"ha":1389,"x_min":0,"x_max":0,"o":""},"":{"ha":1389,"x_min":0,"x_max":0,"o":""},"":{"ha":1389,"x_min":0,"x_max":0,"o":""},"":{"ha":1389,"x_min":0,"x_max":0,"o":""},"":{"ha":1389,"x_min":0,"x_max":0,"o":""},"":{"ha":1389,"x_min":0,"x_max":0,"o":""},"":{"ha":1389,"x_min":0,"x_max":0,"o":""},"":{"ha":1389,"x_min":0,"x_max":0,"o":""},"":{"ha":1389,"x_min":0,"x_max":0,"o":""},"":{"ha":1389,"x_min":0,"x_max":0,"o":""},"":{"ha":1389,"x_min":0,"x_max":0,"o":""},"":{"ha":1389,"x_min":0,"x_max":0,"o":""},"":{"ha":1389,"x_min":0,"x_max":0,"o":""},"":{"ha":1389,"x_min":0,"x_max":0,"o":""},"":{"ha":1389,"x_min":0,"x_max":0,"o":""},"":{"ha":1389,"x_min":0,"x_max":0,"o":""},"":{"ha":1389,"x_min":0,"x_max":0,"o":""},"":{"ha":1389,"x_min":0,"x_max":0,"o":""},"":{"ha":1389,"x_min":0,"x_max":0,"o":""},"":{"ha":1389,"x_min":0,"x_max":0,"o":""},"":{"ha":1389,"x_min":0,"x_max":0,"o":""},"":{"ha":1389,"x_min":0,"x_max":0,"o":""},"":{"ha":1389,"x_min":0,"x_max":0,"o":""},"":{"ha":1389,"x_min":0,"x_max":0,"o":""},"":{"ha":1389,"x_min":0,"x_max":0,"o":""},"":{"ha":1389,"x_min":0,"x_max":0,"o":""},"":{"ha":1389,"x_min":0,"x_max":0,"o":""},"":{"ha":1389,"x_min":0,"x_max":0,"o":""},"":{"ha":1389,"x_min":0,"x_max":0,"o":""},"":{"ha":1389,"x_min":0,"x_max":0,"o":""},"":{"ha":1389,"x_min":0,"x_max":0,"o":""},"":{"ha":1389,"x_min":0,"x_max":0,"o":""},"":{"ha":1389,"x_min":0,"x_max":0,"o":""},"":{"ha":1389,"x_min":0,"x_max":0,"o":""},"":{"ha":1389,"x_min":0,"x_max":0,"o":""},"":{"ha":1389,"x_min":0,"x_max":0,"o":""},"":{"ha":1389,"x_min":0,"x_max":0,"o":""},"":{"ha":1389,"x_min":0,"x_max":0,"o":""},"":{"ha":1389,"x_min":0,"x_max":0,"o":""},"":{"ha":1389,"x_min":0,"x_max":0,"o":""},"":{"ha":1389,"x_min":0,"x_max":0,"o":""},"":{"ha":1389,"x_min":0,"x_max":0,"o":""},"":{"ha":1389,"x_min":0,"x_max":0,"o":""},"":{"ha":1389,"x_min":0,"x_max":0,"o":""},"":{"ha":1389,"x_min":0,"x_max":0,"o":""},"":{"ha":1389,"x_min":0,"x_max":0,"o":""},"":{"ha":1389,"x_min":0,"x_max":0,"o":""},"":{"ha":1389,"x_min":0,"x_max":0,"o":""},"":{"ha":1389,"x_min":0,"x_max":0,"o":""},"":{"ha":1389,"x_min":0,"x_max":0,"o":""},"":{"ha":1389,"x_min":0,"x_max":0,"o":""},"":{"ha":1389,"x_min":0,"x_max":0,"o":""},"":{"ha":1389,"x_min":0,"x_max":0,"o":""},"":{"ha":1389,"x_min":0,"x_max":0,"o":""},"":{"ha":1389,"x_min":0,"x_max":0,"o":""},"":{"ha":1389,"x_min":0,"x_max":0,"o":""},"":{"ha":1389,"x_min":0,"x_max":0,"o":""},"":{"ha":1389,"x_min":0,"x_max":0,"o":""},"":{"ha":1389,"x_min":0,"x_max":0,"o":""},"":{"ha":1389,"x_min":0,"x_max":0,"o":""},"":{"ha":1389,"x_min":0,"x_max":0,"o":""},"":{"ha":1389,"x_min":0,"x_max":0,"o":""},"":{"ha":1389,"x_min":0,"x_max":0,"o":""},"":{"ha":1389,"x_min":0,"x_max":0,"o":""},"":{"ha":1389,"x_min":0,"x_max":0,"o":""},"":{"ha":1389,"x_min":0,"x_max":0,"o":""},"":{"ha":1389,"x_min":0,"x_max":0,"o":""},"":{"ha":1389,"x_min":0,"x_max":0,"o":""},"":{"ha":1389,"x_min":0,"x_max":0,"o":""},"":{"ha":1389,"x_min":0,"x_max":0,"o":""},"":{"ha":1389,"x_min":0,"x_max":0,"o":""},"":{"ha":1389,"x_min":0,"x_max":0,"o":""},"":{"ha":1389,"x_min":0,"x_max":0,"o":""},"":{"ha":1389,"x_min":0,"x_max":0,"o":""},"":{"ha":1389,"x_min":0,"x_max":0,"o":""},"":{"ha":1389,"x_min":0,"x_max":0,"o":""},"":{"ha":1389,"x_min":0,"x_max":0,"o":""},"":{"ha":1389,"x_min":0,"x_max":0,"o":""},"":{"ha":1389,"x_min":0,"x_max":0,"o":""},"":{"ha":1389,"x_min":0,"x_max":0,"o":""},"":{"ha":1389,"x_min":0,"x_max":0,"o":""},"":{"ha":1389,"x_min":0,"x_max":0,"o":""},"":{"ha":1389,"x_min":0,"x_max":0,"o":""},"":{"ha":1389,"x_min":0,"x_max":0,"o":""},"":{"ha":1389,"x_min":0,"x_max":0,"o":""},"":{"ha":1389,"x_min":0,"x_max":0,"o":""},"":{"ha":1389,"x_min":0,"x_max":0,"o":""},"":{"ha":1389,"x_min":0,"x_max":0,"o":""},"":{"ha":1389,"x_min":0,"x_max":0,"o":""},"":{"ha":1389,"x_min":0,"x_max":0,"o":""},"":{"ha":1389,"x_min":0,"x_max":0,"o":""},"":{"ha":1389,"x_min":0,"x_max":0,"o":""},"":{"ha":1389,"x_min":0,"x_max":0,"o":""},"":{"ha":1389,"x_min":0,"x_max":0,"o":""},"":{"ha":1389,"x_min":0,"x_max":0,"o":""},"":{"ha":1389,"x_min":0,"x_max":0,"o":""},"":{"ha":1389,"x_min":0,"x_max":0,"o":""},"":{"ha":1389,"x_min":0,"x_max":0,"o":""},"":{"ha":1389,"x_min":0,"x_max":0,"o":""},"":{"ha":1389,"x_min":0,"x_max":0,"o":""},"":{"ha":1389,"x_min":0,"x_max":0,"o":""},"":{"ha":1389,"x_min":0,"x_max":0,"o":""},"":{"ha":1389,"x_min":0,"x_max":0,"o":""},"":{"ha":1389,"x_min":0,"x_max":0,"o":""},"":{"ha":1389,"x_min":0,"x_max":0,"o":""},"":{"ha":1389,"x_min":0,"x_max":0,"o":""},"":{"ha":1389,"x_min":0,"x_max":0,"o":""},"":{"ha":1389,"x_min":0,"x_max":0,"o":""},"":{"ha":1389,"x_min":0,"x_max":0,"o":""},"":{"ha":1389,"x_min":0,"x_max":0,"o":""},"":{"ha":1389,"x_min":0,"x_max":0,"o":""},"":{"ha":1389,"x_min":0,"x_max":0,"o":""},"":{"ha":1389,"x_min":0,"x_max":0,"o":""},"":{"ha":1389,"x_min":0,"x_max":0,"o":""},"":{"ha":1389,"x_min":0,"x_max":0,"o":""},"":{"ha":1389,"x_min":0,"x_max":0,"o":""},"":{"ha":1389,"x_min":0,"x_max":0,"o":""},"":{"ha":1389,"x_min":0,"x_max":0,"o":""},"":{"ha":1389,"x_min":0,"x_max":0,"o":""},"":{"ha":1389,"x_min":0,"x_max":0,"o":""},"":{"ha":1389,"x_min":0,"x_max":0,"o":""},"":{"ha":1389,"x_min":0,"x_max":0,"o":""},"":{"ha":1389,"x_min":0,"x_max":0,"o":""},"":{"ha":1389,"x_min":0,"x_max":0,"o":""},"":{"ha":1389,"x_min":0,"x_max":0,"o":""},"":{"ha":1389,"x_min":0,"x_max":0,"o":""},"":{"ha":1389,"x_min":0,"x_max":0,"o":""},"":{"ha":1389,"x_min":0,"x_max":0,"o":""},"":{"ha":1389,"x_min":0,"x_max":0,"o":""},"":{"ha":1389,"x_min":0,"x_max":0,"o":""},"":{"ha":1389,"x_min":0,"x_max":0,"o":""},"":{"ha":1389,"x_min":0,"x_max":0,"o":""},"":{"ha":1389,"x_min":0,"x_max":0,"o":""},"":{"ha":1389,"x_min":0,"x_max":0,"o":""},"":{"ha":1389,"x_min":0,"x_max":0,"o":""},"":{"ha":1389,"x_min":0,"x_max":0,"o":""},"":{"ha":1389,"x_min":0,"x_max":0,"o":""},"":{"ha":1389,"x_min":0,"x_max":0,"o":""},"":{"ha":1389,"x_min":0,"x_max":0,"o":""},"":{"ha":1389,"x_min":0,"x_max":0,"o":""},"":{"ha":1389,"x_min":0,"x_max":0,"o":""},"":{"ha":1389,"x_min":0,"x_max":0,"o":""},"":{"ha":1389,"x_min":0,"x_max":0,"o":""},"":{"ha":1389,"x_min":0,"x_max":0,"o":""},"":{"ha":1389,"x_min":0,"x_max":0,"o":""},"":{"ha":1389,"x_min":0,"x_max":0,"o":""},"":{"ha":1389,"x_min":0,"x_max":0,"o":""},"":{"ha":1389,"x_min":0,"x_max":0,"o":""},"":{"ha":1389,"x_min":0,"x_max":0,"o":""},"":{"ha":1389,"x_min":0,"x_max":0,"o":""},"":{"ha":1389,"x_min":0,"x_max":0,"o":""},"":{"ha":1389,"x_min":0,"x_max":0,"o":""},"":{"ha":1389,"x_min":0,"x_max":0,"o":""},"":{"ha":1389,"x_min":0,"x_max":0,"o":""},"":{"ha":1389,"x_min":0,"x_max":0,"o":""},"":{"ha":1389,"x_min":0,"x_max":0,"o":""},"":{"ha":1389,"x_min":0,"x_max":0,"o":""},"":{"ha":1389,"x_min":0,"x_max":0,"o":""},"":{"ha":1389,"x_min":0,"x_max":0,"o":""},"":{"ha":1389,"x_min":0,"x_max":0,"o":""},"":{"ha":1389,"x_min":0,"x_max":0,"o":""},"":{"ha":1389,"x_min":0,"x_max":0,"o":""},"":{"ha":1389,"x_min":0,"x_max":0,"o":""},"":{"ha":1389,"x_min":0,"x_max":0,"o":""},"":{"ha":1389,"x_min":0,"x_max":0,"o":""},"":{"ha":1389,"x_min":0,"x_max":0,"o":""},"":{"ha":1389,"x_min":0,"x_max":0,"o":""},"":{"ha":1389,"x_min":0,"x_max":0,"o":""},"":{"ha":1389,"x_min":0,"x_max":0,"o":""},"":{"ha":1389,"x_min":0,"x_max":0,"o":""},"":{"ha":1389,"x_min":0,"x_max":0,"o":""},"":{"ha":1389,"x_min":0,"x_max":0,"o":""},"":{"ha":1389,"x_min":0,"x_max":0,"o":""},"":{"ha":1389,"x_min":0,"x_max":0,"o":""},"":{"ha":1389,"x_min":0,"x_max":0,"o":""},"":{"ha":1389,"x_min":0,"x_max":0,"o":""},"":{"ha":1389,"x_min":0,"x_max":0,"o":""},"":{"ha":1389,"x_min":0,"x_max":0,"o":""},"":{"ha":1389,"x_min":0,"x_max":0,"o":""},"":{"ha":1389,"x_min":0,"x_max":0,"o":""},"":{"ha":1389,"x_min":0,"x_max":0,"o":""},"":{"ha":1389,"x_min":0,"x_max":0,"o":""},"":{"ha":1389,"x_min":0,"x_max":0,"o":""},"":{"ha":1389,"x_min":0,"x_max":0,"o":""},"":{"ha":1389,"x_min":0,"x_max":0,"o":""},"":{"ha":1389,"x_min":0,"x_max":0,"o":""},"":{"ha":1389,"x_min":0,"x_max":0,"o":""},"":{"ha":1389,"x_min":0,"x_max":0,"o":""},"":{"ha":1389,"x_min":0,"x_max":0,"o":""},"":{"ha":1389,"x_min":0,"x_max":0,"o":""},"":{"ha":1389,"x_min":0,"x_max":0,"o":""},"":{"ha":1389,"x_min":0,"x_max":0,"o":""},"":{"ha":1389,"x_min":0,"x_max":0,"o":""},"":{"ha":1389,"x_min":0,"x_max":0,"o":""},"":{"ha":1389,"x_min":0,"x_max":0,"o":""},"":{"ha":1389,"x_min":0,"x_max":0,"o":""},"":{"ha":1389,"x_min":0,"x_max":0,"o":""},"":{"ha":1389,"x_min":0,"x_max":0,"o":""},"":{"ha":1389,"x_min":0,"x_max":0,"o":""},"":{"ha":1389,"x_min":0,"x_max":0,"o":""},"":{"ha":1389,"x_min":0,"x_max":0,"o":""},"":{"ha":1389,"x_min":0,"x_max":0,"o":""},"":{"ha":1389,"x_min":0,"x_max":0,"o":""},"":{"ha":1389,"x_min":0,"x_max":0,"o":""},"":{"ha":1389,"x_min":0,"x_max":0,"o":""},"":{"ha":1389,"x_min":0,"x_max":0,"o":""},"":{"ha":1389,"x_min":0,"x_max":0,"o":""},"":{"ha":1389,"x_min":0,"x_max":0,"o":""},"":{"ha":1389,"x_min":0,"x_max":0,"o":""},"":{"ha":1389,"x_min":0,"x_max":0,"o":""},"":{"ha":1389,"x_min":0,"x_max":0,"o":""},"":{"ha":1389,"x_min":0,"x_max":0,"o":""},"":{"ha":1389,"x_min":0,"x_max":0,"o":""},"":{"ha":1389,"x_min":0,"x_max":0,"o":""},"":{"ha":1389,"x_min":0,"x_max":0,"o":""},"":{"ha":1389,"x_min":0,"x_max":0,"o":""},"":{"ha":1389,"x_min":0,"x_max":0,"o":""},"":{"ha":1389,"x_min":0,"x_max":1389,"o":"m 860 229 q 768 192 831 165 q 744 288 704 219 q 833 481 825 447 q 725 574 863 599 q 540 536 639 557 q 383 501 432 514 q 293 550 293 481 q 372 629 293 619 q 532 663 400 633 q 711 697 661 690 q 960 553 956 733 q 860 229 963 429 l 860 229 z "},"":{"ha":1389,"x_min":0,"x_max":1389,"o":"m 1047 215 q 954 179 1018 151 q 931 274 890 207 q 1021 468 1004 422 q 997 579 1063 588 q 875 554 953 574 q 760 519 794 535 q 668 551 689 489 q 714 642 647 613 q 842 679 743 657 q 989 703 938 700 q 1144 533 1151 714 q 1047 215 1139 393 l 1047 215 m 604 215 q 511 179 574 151 q 488 275 447 207 q 576 454 581 463 q 553 549 618 557 q 431 525 510 544 q 315 489 351 504 q 226 521 247 458 q 271 613 204 583 q 397 649 299 628 q 544 672 493 669 q 701 519 708 685 q 604 215 696 394 l 604 215 z "},"":{"ha":1389,"x_min":0,"x_max":1389,"o":"m 1185 278 q 1203 175 1243 225 q 1114 167 1161 124 q 1004 265 1065 214 q 869 369 932 326 q 810 271 818 283 q 751 190 783 231 q 654 169 693 121 q 656 276 615 218 q 699 332 663 282 q 731 382 733 381 q 808 513 772 446 q 864 633 847 583 q 951 679 893 714 q 986 596 1010 646 q 959 537 972 567 q 929 478 946 507 q 1063 378 996 432 q 1185 278 1122 332 l 1185 278 m 593 215 q 500 179 563 151 q 476 275 436 207 q 565 454 569 463 q 542 549 607 557 q 419 525 499 544 q 304 489 340 504 q 215 521 236 458 q 260 613 193 583 q 386 649 288 628 q 533 672 482 669 q 690 519 697 685 q 593 215 685 394 l 593 215 z "},"":{"ha":1389,"x_min":0,"x_max":1389,"o":"m 979 314 q 817 251 936 286 q 651 213 707 218 q 510 218 569 201 q 410 300 436 239 q 410 461 393 335 q 442 640 421 547 q 525 699 457 710 q 576 626 593 688 q 553 515 567 581 q 532 407 539 446 q 576 328 522 333 q 696 347 604 325 q 804 378 743 357 q 926 431 885 406 q 1019 414 990 468 q 979 314 1049 358 l 979 314 z "},"":{"ha":1389,"x_min":0,"x_max":1389,"o":"m 1235 331 q 1243 233 1282 286 q 1150 232 1206 179 q 1072 285 1126 251 q 968 350 988 338 q 839 240 826 229 q 763 186 790 200 q 657 204 685 149 q 697 297 629 258 q 849 406 779 340 q 950 568 935 489 q 944 585 953 579 q 919 589 938 589 q 815 560 861 586 q 722 517 758 525 q 635 563 636 497 q 707 644 633 626 q 807 686 733 651 q 917 713 861 711 q 1051 675 1008 715 q 1083 578 1088 639 q 1081 521 1082 526 q 1058 463 1076 489 q 1161 393 1114 428 q 1235 331 1210 356 l 1235 331 m 647 275 q 514 213 597 244 q 379 175 428 181 q 264 189 300 164 q 222 272 231 210 q 239 428 217 314 q 271 603 261 543 q 354 661 286 672 q 406 589 422 650 q 378 479 404 585 q 354 369 358 401 q 357 300 344 310 q 421 310 368 292 q 500 339 456 319 q 592 388 550 360 q 688 375 656 431 q 647 275 719 319 l 647 275 z "},"":{"ha":1389,"x_min":0,"x_max":1389,"o":"m 1119 390 q 1044 228 1114 303 q 885 126 978 153 q 747 135 811 106 q 667 231 681 164 q 699 376 650 307 q 879 535 747 450 l 894 504 q 879 501 886 503 q 858 496 868 499 q 708 458 785 482 q 563 444 632 435 q 471 515 460 453 q 569 565 481 578 q 690 572 629 563 q 797 594 736 578 q 761 633 771 621 q 732 681 740 658 q 760 746 715 729 q 832 739 801 763 q 886 686 854 722 q 935 625 915 653 q 1026 594 1001 632 q 1029 519 1047 561 q 1099 475 1074 510 q 1119 390 1122 440 l 1119 390 m 647 275 q 514 213 597 244 q 379 175 428 181 q 264 189 300 164 q 222 272 231 210 q 239 428 217 314 q 271 603 261 543 q 354 661 286 672 q 406 589 422 650 q 378 479 404 585 q 354 369 358 401 q 357 300 344 310 q 421 310 368 292 q 500 339 456 319 q 592 388 550 360 q 688 375 656 431 q 647 275 719 319 l 647 275 m 996 394 q 957 421 1000 432 q 860 378 940 415 q 814 325 826 346 q 793 269 797 300 q 825 239 792 239 q 881 251 850 238 q 954 304 924 271 q 996 394 992 344 l 996 394 z "},"":{"ha":1389,"x_min":0,"x_max":1389,"o":"m 1022 289 q 857 211 988 260 q 678 153 740 167 q 550 151 603 138 q 449 268 465 174 q 447 363 443 300 q 460 485 450 422 q 429 483 447 483 q 399 481 406 481 q 310 539 304 475 q 397 604 314 603 q 658 631 506 608 q 914 674 763 646 q 1015 629 1006 693 q 926 550 1024 565 q 761 522 785 526 q 594 500 665 507 q 582 419 574 357 q 578 317 575 365 q 601 275 581 282 q 668 279 618 269 q 796 322 715 292 q 940 390 896 360 q 1038 381 1007 435 q 1022 289 1069 326 l 1022 289 z "},"":{"ha":1389,"x_min":0,"x_max":1389,"o":"m 1314 382 q 1176 304 1275 350 q 1025 246 1079 257 q 897 244 950 231 q 796 361 813 267 q 794 438 790 393 q 807 536 797 474 q 776 535 794 535 q 746 532 753 532 q 657 590 651 526 q 744 656 661 654 q 978 682 849 660 q 1206 725 922 672 q 1307 681 1297 744 q 1218 601 1315 617 q 1079 574 1185 596 q 942 551 1001 558 q 930 494 938 521 q 925 410 922 468 q 949 368 928 375 q 1015 372 965 363 q 1115 415 1049 381 q 1232 483 1182 450 q 1329 474 1299 528 q 1314 382 1361 419 l 1314 382 m 728 267 q 578 220 689 235 q 414 194 467 206 q 286 193 339 179 q 185 310 201 215 q 183 386 179 342 q 196 485 186 422 q 165 483 183 483 q 135 481 142 481 q 46 539 40 475 q 133 604 50 603 q 367 631 238 608 q 594 674 311 621 q 696 629 686 693 q 607 550 704 565 q 468 522 574 544 q 331 500 390 507 q 319 443 326 469 q 314 358 311 417 q 338 317 317 324 q 404 321 354 311 q 523 338 436 329 q 660 382 610 347 q 750 365 725 426 q 728 267 774 304 l 728 267 z "},"":{"ha":1389,"x_min":0,"x_max":1389,"o":"m 1053 308 q 835 225 969 268 q 600 163 694 179 q 476 160 529 150 q 392 232 403 174 q 549 417 381 288 q 753 558 633 482 q 825 585 790 582 q 826 582 797 582 q 579 551 749 582 q 346 511 410 519 q 282 565 285 506 q 346 632 279 624 q 565 671 410 642 q 822 704 719 700 q 956 632 938 713 q 840 465 974 547 q 665 357 744 408 q 533 256 540 276 q 553 257 528 240 q 596 281 586 279 q 813 344 675 296 q 1003 422 950 392 q 1082 396 1051 451 q 1053 308 1113 340 l 1053 308 z "},"":{"ha":1389,"x_min":0,"x_max":1389,"o":"m 1093 257 q 1000 219 1064 192 q 976 314 936 247 q 1067 529 1043 453 q 1042 656 1110 665 q 913 629 997 650 q 790 593 825 608 q 719 600 747 576 q 699 658 696 621 q 718 697 706 682 q 750 724 729 711 q 889 756 789 736 q 1035 779 988 775 q 1188 593 1196 790 q 1093 257 1182 436 l 1093 257 m 806 357 q 628 275 742 318 q 436 217 519 233 q 331 211 375 201 q 260 286 268 225 q 378 469 249 354 q 535 608 508 583 q 582 639 561 635 q 583 638 579 638 q 401 604 533 640 q 231 558 233 558 q 179 613 183 549 q 222 688 174 675 q 394 729 467 744 q 600 758 528 758 q 644 753 625 758 q 678 733 664 746 q 704 692 697 714 q 708 656 708 676 q 686 593 706 625 q 625 522 664 557 q 499 415 432 354 q 400 308 410 336 q 403 314 400 308 q 422 339 415 336 q 582 393 546 379 q 754 475 685 431 q 824 443 794 503 q 806 357 854 385 l 806 357 z "},"":{"ha":1389,"x_min":0,"x_max":1389,"o":"m 1229 292 q 1086 256 1179 278 q 938 221 988 232 q 832 263 851 203 q 843 344 815 313 q 971 514 913 417 q 1026 625 1011 582 q 1025 631 1031 633 q 988 618 1007 621 q 908 604 954 614 q 831 586 829 586 q 831 416 832 497 q 847 232 829 335 q 800 132 864 133 q 722 207 736 129 q 715 256 718 226 q 710 300 711 294 q 554 238 639 267 q 407 193 468 207 q 300 188 344 178 q 229 264 238 201 q 347 446 219 319 q 503 583 396 493 q 550 613 531 610 q 551 611 543 613 q 369 579 501 614 q 200 533 201 533 q 149 586 153 524 q 192 661 143 649 q 364 703 296 689 q 568 732 496 732 q 678 661 661 732 q 593 499 694 585 q 468 392 436 363 q 369 285 379 313 q 371 290 375 296 q 392 315 382 313 q 539 365 544 367 q 704 439 638 401 q 706 572 704 506 q 694 724 707 639 q 751 811 685 804 q 825 731 817 819 q 826 721 826 726 q 826 711 826 718 q 903 728 867 719 q 978 742 940 736 q 1153 728 1107 761 q 1175 639 1189 700 q 1118 506 1160 582 q 1026 367 1078 433 q 1133 396 1058 375 q 1213 415 1192 411 q 1301 369 1292 431 q 1229 292 1311 308 l 1229 292 z "},"":{"ha":1389,"x_min":0,"x_max":1389,"o":"m 1165 669 q 1132 504 1161 600 q 1075 350 1107 424 q 1058 261 1099 297 q 961 207 1035 240 q 926 193 956 206 q 878 172 897 181 q 800 167 838 160 q 725 232 743 176 q 718 254 721 240 q 715 279 717 261 q 560 211 632 240 q 386 150 443 161 q 282 147 326 138 q 211 221 219 161 q 329 403 201 276 q 485 542 268 343 q 531 571 511 568 q 532 569 524 571 q 351 538 483 572 q 182 493 188 494 q 129 546 132 483 q 175 621 125 608 q 344 663 349 664 q 550 692 476 692 q 660 621 643 692 q 574 456 676 544 q 462 365 536 424 q 372 272 388 306 q 374 274 374 272 q 375 274 375 274 q 549 338 446 296 q 696 406 657 382 q 692 531 693 468 q 675 632 690 593 q 714 721 646 706 q 803 651 782 736 q 818 472 813 614 q 833 301 822 336 q 843 289 838 289 q 871 299 846 289 q 904 311 889 304 q 936 331 922 319 q 958 378 947 351 q 978 433 968 403 q 911 410 932 417 q 860 396 878 399 q 793 457 799 388 q 856 528 786 526 q 926 544 875 528 q 1017 576 953 553 q 1028 626 1024 599 q 1036 676 1029 631 q 1110 763 1046 760 q 1165 669 1175 765 l 1165 669 z "},"":{"ha":1389,"x_min":0,"x_max":1389,"o":"m 1196 278 q 1214 175 1254 225 q 1125 167 1172 124 q 1015 265 1076 214 q 881 369 943 326 q 797 244 838 299 q 714 144 753 183 q 619 111 663 97 q 583 168 581 124 q 489 136 536 150 q 401 113 440 121 q 296 107 339 97 q 226 185 233 121 q 344 368 217 240 q 500 506 393 415 q 544 535 526 531 q 546 533 543 533 q 367 501 499 536 q 197 456 204 457 q 143 508 147 446 q 189 583 139 571 q 360 626 293 611 q 564 656 492 656 q 674 585 658 656 q 588 419 690 510 q 466 320 549 385 q 372 224 383 256 q 375 224 369 217 q 389 236 383 235 q 546 289 519 279 q 715 371 647 326 q 729 378 722 376 q 740 381 735 381 q 821 515 785 447 q 875 633 857 583 q 963 679 904 714 q 997 596 1021 646 q 970 537 983 567 q 940 478 957 507 q 1074 378 1007 432 q 1196 278 1133 332 l 1196 278 z "},"":{"ha":1389,"x_min":0,"x_max":1389,"o":"m 1081 478 q 992 439 1032 454 q 861 397 931 415 q 813 451 825 389 q 843 521 799 513 q 957 557 894 532 q 1042 593 929 546 q 1149 572 1129 629 q 1081 478 1168 515 l 1081 478 m 1224 350 q 1072 267 1147 306 q 942 213 981 221 q 821 203 872 196 q 710 294 733 215 q 558 235 646 264 q 408 192 481 208 q 301 186 346 176 q 232 263 240 200 q 343 432 222 319 q 490 554 233 329 q 536 585 517 581 q 538 583 533 583 q 365 551 490 586 q 203 506 213 507 q 149 558 153 496 q 194 633 144 621 q 358 676 322 668 q 556 706 483 706 q 603 699 582 706 q 638 679 624 692 q 660 690 647 686 q 689 696 674 694 q 881 720 811 699 q 1058 763 950 742 q 1157 721 1147 782 q 1071 640 1167 660 q 951 614 1025 631 q 839 588 871 594 q 835 465 836 513 q 833 383 832 408 q 856 328 838 336 q 928 336 874 319 q 1032 385 958 344 q 1139 449 1099 421 q 1233 435 1201 494 q 1224 350 1265 375 l 1224 350 m 704 571 q 700 501 701 536 q 700 435 699 467 q 540 364 632 397 q 396 317 479 340 q 374 290 386 314 q 371 285 372 289 q 462 376 382 317 q 581 468 542 435 q 632 522 611 496 q 658 572 650 547 q 674 571 668 571 q 692 571 683 569 q 699 571 692 571 q 704 571 704 571 l 704 571 z "},"":{"ha":1389,"x_min":0,"x_max":1389,"o":"m 1276 304 q 1100 237 1238 290 q 876 169 963 183 q 774 207 794 157 q 779 285 757 247 q 789 300 782 293 q 801 315 793 307 q 791 407 794 368 q 774 503 788 446 l 774 504 q 739 501 761 503 q 706 499 715 499 q 615 557 611 493 q 703 624 619 619 q 949 656 825 626 q 1192 708 1074 686 q 1293 664 1283 728 q 1204 585 1301 600 q 1051 557 1146 576 q 900 526 929 532 q 901 519 901 522 q 903 513 903 515 q 910 457 907 474 q 913 417 911 435 q 969 471 954 453 q 1013 539 983 489 q 1110 572 1050 603 q 1136 497 1168 542 q 1082 388 1110 429 q 1029 332 1058 354 q 1146 378 1092 354 q 1236 422 1204 403 q 1338 406 1306 469 q 1276 304 1368 343 l 1276 304 m 722 315 q 544 233 658 276 q 353 175 436 192 q 247 169 292 160 q 176 244 185 183 q 295 427 165 313 q 451 567 425 542 q 499 597 478 593 q 500 596 496 596 q 318 563 450 599 q 147 517 150 517 q 96 571 100 507 q 139 646 90 633 q 311 688 383 703 q 517 717 444 717 q 561 711 542 717 q 594 692 581 704 q 621 650 614 672 q 625 614 625 635 q 603 551 622 583 q 542 481 581 515 q 415 374 349 313 q 317 267 326 294 q 319 272 317 267 q 339 297 332 294 q 499 351 463 338 q 671 433 601 389 q 740 401 711 461 q 722 315 771 343 l 722 315 z "},"":{"ha":1389,"x_min":0,"x_max":1389,"o":"m 1229 358 q 1156 194 1224 271 q 997 93 1089 119 q 860 103 922 75 q 779 197 792 132 q 778 214 778 204 q 775 232 776 219 q 625 164 704 194 q 469 114 538 129 q 363 108 407 99 q 292 185 300 122 q 403 368 283 242 q 550 506 469 439 q 596 536 576 532 q 597 535 593 535 q 425 501 549 538 q 265 456 269 457 q 211 510 215 446 q 257 585 207 572 q 418 626 438 631 q 615 656 544 656 q 715 610 686 656 q 715 510 744 565 q 750 524 731 517 q 768 529 767 529 q 851 546 828 540 q 908 563 868 550 q 874 601 885 586 q 846 649 854 625 q 885 726 824 711 q 971 683 946 742 q 1006 639 979 668 q 1046 592 1036 604 q 1138 561 1114 599 q 1140 486 1158 529 q 1208 443 1183 476 q 1229 358 1232 408 l 1229 358 m 1107 363 q 1069 388 1111 399 q 974 347 1058 385 q 926 292 942 317 q 907 236 910 265 q 938 206 906 206 q 992 218 961 204 q 1065 271 1035 238 q 1107 363 1103 313 l 1107 363 m 1006 471 l 990 501 q 883 422 926 460 q 813 347 839 383 q 783 369 800 364 q 750 364 765 375 q 596 286 681 319 q 457 238 561 272 q 435 213 447 235 q 432 207 432 208 q 518 313 442 235 q 632 419 571 364 q 635 422 632 421 q 638 424 636 424 q 654 417 646 419 q 678 413 665 414 q 822 425 744 403 q 971 463 899 447 q 990 468 979 465 q 1006 471 993 468 l 1006 471 z "},"":{"ha":1389,"x_min":0,"x_max":1389,"o":"m 1014 225 q 828 189 979 215 q 635 154 661 160 q 529 194 550 136 q 540 278 511 246 q 703 425 596 335 q 810 522 796 504 q 796 513 804 517 q 771 507 785 508 q 633 489 704 497 q 500 472 563 479 q 499 328 499 344 q 514 165 500 247 q 467 76 529 85 q 389 140 403 69 q 372 394 371 251 q 363 643 375 549 q 419 733 353 724 q 493 650 485 742 q 496 622 494 642 q 499 594 499 604 q 636 613 546 600 q 764 631 729 626 q 933 610 883 644 q 960 525 978 581 q 874 413 942 476 q 743 300 843 382 q 894 328 1001 347 q 997 349 975 343 q 1086 304 1076 364 q 1014 225 1096 244 l 1014 225 z "},"":{"ha":1389,"x_min":0,"x_max":1389,"o":"m 1051 644 q 1018 479 1047 576 q 964 324 997 407 q 940 229 986 271 q 840 181 904 197 q 738 164 796 172 q 624 147 675 154 q 547 144 574 140 q 476 208 490 154 q 438 393 461 264 q 397 533 419 479 q 438 619 371 606 q 528 553 504 635 q 557 411 538 517 q 586 276 575 311 q 597 268 589 265 q 631 274 622 274 q 728 286 682 278 q 824 313 786 296 q 844 353 833 328 q 863 401 850 368 q 710 371 781 383 q 607 357 628 356 q 525 432 515 367 q 613 489 533 499 q 738 504 638 486 q 903 538 821 518 q 914 594 908 560 q 922 651 921 642 q 997 739 932 736 q 1051 644 1063 740 l 1051 644 z "},"":{"ha":1389,"x_min":0,"x_max":1389,"o":"m 1211 601 q 1178 436 1207 532 q 1121 282 1154 360 q 1104 189 1144 226 q 1004 138 1076 163 q 950 122 989 132 q 890 106 901 110 q 813 99 851 92 q 739 163 757 110 q 719 351 726 197 q 692 556 713 503 q 729 643 663 628 q 819 578 796 658 q 829 522 826 558 q 832 451 831 500 q 850 458 840 456 q 871 460 860 460 q 953 478 889 461 q 1063 508 913 467 q 1074 560 1069 532 q 1081 608 1076 575 q 1154 692 1090 689 q 1211 601 1218 693 l 1211 601 m 697 546 q 664 381 693 476 q 607 226 640 304 q 590 133 631 171 q 490 82 563 107 q 436 69 467 76 q 376 51 399 60 q 299 46 333 40 q 225 107 243 54 q 206 296 213 142 q 178 500 199 447 q 215 588 149 572 q 306 522 282 603 q 315 467 313 503 q 318 396 317 444 q 336 403 326 400 q 357 404 346 404 q 439 422 375 406 q 549 453 399 411 q 560 504 556 476 q 567 553 563 519 q 640 636 576 633 q 697 546 704 638 l 697 546 m 1024 369 q 937 344 979 357 q 875 329 894 332 q 854 329 865 328 q 836 331 847 329 q 840 274 839 300 q 847 233 842 249 q 857 222 851 221 q 888 229 853 222 q 933 242 913 236 q 979 263 964 253 q 1003 311 992 282 q 1024 369 1014 338 l 1024 369 m 510 314 q 423 289 465 301 q 361 274 381 276 q 340 274 351 272 q 322 275 333 274 q 326 219 325 244 q 333 178 328 193 q 343 167 338 165 q 374 174 339 167 q 419 186 399 181 q 465 207 450 197 q 489 256 478 226 q 510 314 500 282 l 510 314 z "},"":{"ha":1389,"x_min":0,"x_max":1389,"o":"m 1194 267 q 1214 163 1254 214 q 1124 156 1172 111 q 1015 254 1074 204 q 879 357 943 314 q 796 233 836 288 q 713 133 751 172 q 594 111 640 67 q 610 213 550 154 q 764 408 679 275 q 874 618 840 531 q 960 667 901 700 q 996 583 1019 633 q 969 525 983 554 q 939 467 954 494 q 1074 367 1007 418 q 1194 267 1135 317 l 1194 267 m 725 601 q 692 436 721 532 q 635 282 668 360 q 618 189 658 226 q 518 138 590 163 q 464 122 503 132 q 404 106 415 110 q 326 99 365 92 q 253 163 271 110 q 233 351 240 197 q 206 556 226 503 q 243 643 176 628 q 333 578 310 658 q 343 522 340 558 q 346 451 344 500 q 364 458 354 456 q 385 460 374 460 q 467 478 403 461 q 576 508 426 467 q 588 560 583 532 q 594 608 590 575 q 668 692 604 689 q 725 601 732 693 l 725 601 m 538 369 q 451 344 493 357 q 389 329 408 332 q 368 329 379 328 q 350 331 361 329 q 354 274 353 300 q 361 233 356 249 q 371 222 365 221 q 401 229 367 222 q 447 242 426 236 q 493 263 478 253 q 517 311 506 282 q 538 369 528 338 l 538 369 z "},"":{"ha":1389,"x_min":0,"x_max":1389,"o":"m 1038 338 q 1068 240 1106 290 q 975 225 1032 189 q 831 328 881 293 q 667 435 735 394 q 547 307 610 369 q 440 204 489 247 q 318 185 361 140 q 342 286 276 231 q 535 475 431 360 q 690 681 647 600 q 786 719 732 756 q 814 636 842 683 q 782 585 801 614 q 744 529 769 564 q 893 435 999 367 q 1038 338 981 379 l 1038 338 z "},"":{"ha":1389,"x_min":0,"x_max":1389,"o":"m 1186 292 q 1206 188 1246 239 q 1115 182 1164 138 q 1001 283 1057 236 q 858 392 925 347 q 774 263 815 319 q 688 160 728 199 q 572 138 617 92 q 586 240 528 183 q 610 261 596 247 q 632 286 610 261 q 574 336 597 317 q 506 381 540 361 q 418 257 464 315 q 332 160 374 201 q 217 136 261 92 q 231 238 174 179 q 392 436 301 304 q 510 646 479 565 q 597 690 539 725 q 633 608 657 656 q 606 547 619 576 q 571 485 590 515 q 640 439 617 457 q 707 388 671 418 q 793 525 754 454 q 849 644 831 596 q 938 690 879 724 q 972 608 996 656 q 949 554 954 568 q 919 497 933 522 q 1060 397 992 449 q 1186 292 1125 346 l 1186 292 z "},"":{"ha":1389,"x_min":0,"x_max":1389,"o":"m 978 503 q 867 272 982 386 q 631 142 756 163 q 489 154 549 126 q 410 238 431 181 q 507 518 371 379 q 788 656 636 647 q 925 622 875 661 q 978 503 976 582 l 978 503 m 850 492 q 835 522 850 511 q 789 532 818 533 q 601 442 693 531 q 533 290 513 354 q 565 261 540 267 q 624 263 585 257 q 771 353 693 276 q 850 492 849 429 l 850 492 z "},"":{"ha":1389,"x_min":0,"x_max":1389,"o":"m 1040 303 q 1049 206 1088 258 q 956 204 1011 151 q 867 276 910 242 q 749 361 800 328 q 561 232 672 299 q 429 158 482 183 q 324 176 351 121 q 364 269 296 231 q 585 392 519 350 q 756 568 742 493 q 750 585 758 579 q 725 589 743 589 q 551 559 644 586 q 389 517 457 532 q 301 563 303 497 q 374 644 300 626 q 543 686 494 675 q 722 713 661 711 q 857 675 814 715 q 889 578 893 639 q 875 518 888 549 q 838 456 863 489 q 954 374 896 417 q 1040 303 1015 328 l 1040 303 z "},"":{"ha":1389,"x_min":0,"x_max":1389,"o":"m 1276 414 q 1285 317 1324 369 q 1192 315 1247 263 q 1114 368 1168 335 q 1010 433 1029 421 q 881 324 868 313 q 804 269 832 283 q 699 288 726 232 q 739 381 671 342 q 890 489 821 424 q 992 651 976 572 q 986 668 994 663 q 961 672 979 672 q 857 643 903 669 q 764 600 800 608 q 676 646 678 581 q 749 728 675 710 q 849 769 775 735 q 958 796 903 794 q 1093 758 1050 799 q 1125 661 1129 722 q 1122 604 1124 610 q 1100 546 1118 572 q 1203 476 1156 511 q 1276 414 1251 439 l 1276 414 m 696 347 q 704 250 743 303 q 611 249 667 196 q 533 301 588 268 q 429 367 449 354 q 300 257 288 246 q 224 203 251 217 q 118 221 146 165 q 158 314 90 275 q 310 422 240 357 q 411 585 396 506 q 406 601 414 596 q 381 606 399 606 q 276 576 322 603 q 183 533 219 542 q 96 579 97 514 q 168 661 94 643 q 268 703 194 668 q 378 729 322 728 q 513 692 469 732 q 544 594 549 656 q 542 538 543 543 q 519 479 538 506 q 622 410 575 444 q 696 347 671 372 l 696 347 z "},"":{"ha":1389,"x_min":0,"x_max":1389,"o":"m 1060 269 q 1082 175 1115 228 q 996 157 1049 122 q 899 221 911 213 q 775 290 833 261 q 589 179 701 232 q 421 110 515 144 q 326 144 344 82 q 367 225 308 206 q 582 313 474 257 q 772 471 746 394 q 764 478 775 481 q 739 474 740 474 q 551 444 671 472 q 390 401 649 467 q 294 442 301 376 q 357 528 286 507 q 461 553 390 538 q 618 585 549 572 q 582 626 589 618 q 556 672 563 650 q 599 742 538 724 q 679 710 658 760 q 722 653 688 688 q 774 599 764 613 q 875 563 843 593 q 901 475 908 532 q 892 429 900 451 q 867 385 883 407 q 972 329 921 360 q 1060 269 1018 301 l 1060 269 z "},"":{"ha":1389,"x_min":0,"x_max":1389,"o":"m 832 104 q 740 71 803 44 q 717 163 678 97 q 744 232 729 188 q 772 325 758 275 q 689 301 774 328 q 539 269 588 269 q 486 315 479 261 q 535 376 492 368 q 680 394 563 381 q 800 421 797 408 q 811 539 819 507 q 725 574 797 586 q 540 536 639 557 q 383 501 432 514 q 293 550 293 481 q 372 629 293 619 q 532 663 400 633 q 711 697 661 690 q 943 489 950 733 q 832 104 938 313 l 832 104 z "},"":{"ha":1389,"x_min":0,"x_max":1389,"o":"m 863 429 q 708 390 847 426 q 535 356 603 363 q 490 415 494 350 q 531 481 486 479 q 700 511 596 483 q 847 554 600 483 q 947 515 936 578 q 863 429 957 453 l 863 429 m 1025 308 q 806 228 967 278 q 610 174 665 185 q 496 165 538 160 q 381 272 404 179 q 368 371 371 308 q 374 519 365 442 q 351 518 358 518 q 331 515 339 517 q 240 574 236 510 q 326 640 243 636 q 589 665 436 643 q 844 708 688 679 q 946 665 938 728 q 857 585 954 601 q 681 556 767 568 q 507 532 586 542 q 503 418 503 456 q 501 344 500 368 q 525 293 507 300 q 601 299 539 289 q 763 343 658 311 q 942 411 897 385 q 1040 393 1010 450 q 1025 308 1071 336 l 1025 308 z "},"":{"ha":1389,"x_min":0,"x_max":1389,"o":"m 943 599 q 632 533 881 589 q 347 485 426 489 q 257 543 253 479 q 344 610 261 606 q 640 656 467 613 q 931 722 813 700 q 1032 678 1022 742 q 943 599 1040 614 l 943 599 m 1015 276 q 790 195 976 263 q 518 114 604 128 q 415 151 436 101 q 421 229 399 192 q 431 244 424 238 q 443 260 435 251 q 433 351 436 313 q 415 446 429 389 q 467 536 397 525 q 544 457 535 547 q 551 401 549 418 q 554 361 553 379 q 665 463 638 435 q 751 567 726 522 q 847 599 789 631 q 874 522 906 567 q 744 371 822 444 q 617 260 696 324 q 821 328 714 288 q 975 394 935 369 q 1076 378 1044 442 q 1015 276 1107 315 l 1015 276 z "},"":{"ha":1389,"x_min":0,"x_max":1389,"o":"m 1010 413 q 924 235 1003 314 q 749 135 851 163 q 596 129 658 108 q 507 246 518 154 q 553 390 497 311 q 746 563 614 476 l 760 532 q 743 528 753 531 q 722 522 733 525 q 542 485 646 508 q 369 471 439 461 q 274 542 264 479 q 376 593 283 606 q 522 600 439 589 q 663 626 567 607 q 624 671 635 656 q 594 719 603 696 q 638 789 576 771 q 718 756 699 807 q 757 706 726 736 q 804 656 796 667 q 894 629 869 663 q 901 563 917 601 q 989 514 958 554 q 1010 413 1021 472 l 1010 413 m 885 417 q 835 444 888 457 q 717 396 807 438 q 664 338 681 361 q 639 281 644 310 q 676 239 632 233 q 746 264 696 242 q 835 319 796 283 q 885 417 882 365 l 885 417 z "},"":{"ha":1389,"x_min":0,"x_max":1389,"o":"m 982 572 q 806 479 892 536 q 654 356 721 422 q 632 111 640 211 q 619 -56 622 -3 q 560 -121 618 -101 q 496 -51 500 -139 q 536 447 496 -32 q 546 979 571 876 q 596 1071 528 1058 q 675 992 663 1085 q 683 794 686 926 q 668 525 681 681 q 786 611 728 575 q 938 688 847 647 q 1036 661 1006 721 q 982 572 1065 601 l 982 572 z "},"":{"ha":1389,"x_min":0,"x_max":1389,"o":"m 925 1008 q 910 474 947 856 q 867 -39 872 93 q 807 -106 865 -86 q 744 -36 749 -125 q 763 236 742 14 q 797 646 790 539 q 692 464 728 536 q 624 282 639 360 q 547 211 610 207 q 496 289 485 217 q 528 611 518 450 q 531 900 538 779 q 590 992 525 983 q 658 903 654 999 q 658 778 661 857 q 651 633 657 724 q 728 756 675 672 q 806 881 779 836 q 803 949 806 918 q 794 996 800 978 q 843 1088 778 1075 q 925 1008 910 1100 l 925 1008 z "},"":{"ha":1389,"x_min":0,"x_max":1389,"o":"m 946 496 q 765 399 854 458 q 611 271 678 339 q 594 85 601 167 q 583 -44 586 3 q 524 -111 582 -92 q 461 -42 465 -131 q 500 458 460 -18 q 511 990 536 888 q 560 1082 493 1069 q 642 1003 626 1094 q 649 910 647 961 q 647 788 651 849 q 726 829 685 810 q 846 879 776 853 q 935 860 913 906 q 931 781 956 818 q 883 711 929 778 q 844 657 858 675 q 726 551 758 538 q 761 704 693 565 q 763 707 761 706 q 763 708 763 708 q 700 674 717 683 q 640 631 665 651 q 633 538 638 583 q 624 443 629 489 q 747 532 690 497 q 901 613 814 574 q 1001 583 974 642 q 946 496 1029 525 l 946 496 z "},"":{"ha":1389,"x_min":0,"x_max":1389,"o":"m 906 1014 q 890 480 928 861 q 847 -33 853 99 q 788 -100 846 -81 q 725 -31 729 -119 q 732 124 722 10 q 756 369 736 168 q 686 370 721 368 q 621 374 651 372 q 615 268 619 319 q 604 172 611 217 q 531 104 596 101 q 476 176 465 106 q 510 574 499 326 q 511 936 519 804 q 571 1028 506 1019 q 639 939 635 1035 q 639 844 639 813 q 636 744 639 788 q 711 757 669 749 q 785 775 750 765 q 786 908 788 854 q 775 1001 783 969 q 824 1093 758 1081 q 906 1014 890 1106 l 906 1014 m 776 639 q 706 626 743 632 q 635 617 668 619 q 632 558 635 597 q 629 499 631 518 q 696 493 658 494 q 765 493 731 492 q 771 568 767 515 q 776 639 774 614 l 776 639 z "},"":{"ha":1389,"x_min":0,"x_max":1389,"o":"m 890 1008 q 876 474 914 854 q 833 -39 839 93 q 774 -106 832 -86 q 711 -36 715 -125 q 729 229 708 11 q 763 635 756 528 q 628 586 692 608 q 503 549 553 561 q 425 597 451 535 q 485 681 397 658 q 622 718 569 703 q 769 772 706 743 q 771 904 772 850 q 761 996 769 964 q 810 1088 743 1075 q 890 1008 878 1100 l 890 1008 z "},"":{"ha":1389,"x_min":0,"x_max":1389,"o":"m 1007 1008 q 993 474 1031 854 q 950 -39 956 93 q 890 -106 949 -86 q 828 -36 832 -125 q 867 464 826 -6 q 878 996 903 894 q 926 1088 860 1075 q 1007 1008 992 1100 l 1007 1008 m 785 932 q 782 604 792 769 q 751 243 776 503 q 678 168 746 165 q 624 246 610 171 q 644 453 636 339 q 657 676 654 568 q 564 592 615 635 q 468 514 531 563 q 339 485 372 428 q 425 625 307 542 q 550 736 483 674 q 661 851 625 808 q 660 893 661 871 q 658 929 660 910 q 717 1025 653 1017 q 785 932 781 1032 l 785 932 z "},"":{"ha":1389,"x_min":0,"x_max":1389,"o":"m 915 1019 q 902 485 939 865 q 860 -28 865 104 q 800 -93 858 -75 q 738 -24 742 -112 q 751 183 736 18 q 779 511 775 456 q 622 456 708 485 q 485 411 542 428 q 407 460 433 397 q 467 544 381 522 q 621 590 532 561 q 789 650 717 621 q 793 710 792 676 q 796 764 794 725 q 640 743 678 749 q 490 715 547 729 q 378 747 385 668 q 486 850 371 825 q 642 875 549 861 q 797 897 721 886 q 794 961 797 932 q 786 1007 792 989 q 835 1099 768 1086 q 915 1019 903 1113 l 915 1019 z "},"":{"ha":1389,"x_min":0,"x_max":1389,"o":"m 1026 1008 q 1013 474 1050 854 q 969 -39 975 93 q 910 -106 968 -86 q 847 -36 851 -125 q 886 464 846 -6 q 897 996 922 894 q 946 1088 879 1075 q 1026 1008 1011 1100 l 1026 1008 m 804 932 q 801 611 811 771 q 771 257 796 524 q 697 183 765 179 q 643 260 629 188 q 656 365 650 308 q 665 479 661 417 q 572 438 614 456 q 485 401 524 417 q 382 428 397 371 q 460 533 365 486 q 563 571 506 547 q 675 624 626 597 q 676 672 676 654 q 678 718 678 699 q 594 703 606 706 q 508 683 551 694 q 403 699 419 644 q 481 806 386 753 q 571 835 519 833 q 681 844 622 838 q 679 890 681 867 q 678 929 679 908 q 736 1025 672 1017 q 804 932 800 1032 l 804 932 z "},"":{"ha":1389,"x_min":0,"x_max":1389,"o":"m 1218 315 q 886 218 1142 275 q 549 153 672 169 q 406 150 479 142 q 325 229 292 163 q 453 446 364 303 q 572 688 542 589 q 653 707 596 728 q 692 649 710 686 q 589 442 669 576 q 492 272 508 307 q 490 265 488 265 q 503 269 500 269 q 843 333 647 289 q 1165 435 1094 390 q 1263 417 1229 478 q 1218 315 1296 354 l 1218 315 z "},"":{"ha":1389,"x_min":0,"x_max":1389,"o":"m 1299 614 q 1150 557 1219 592 q 1006 463 1069 517 q 979 167 999 369 q 963 -39 965 10 q 903 -104 961 -85 q 839 -35 843 -122 q 847 111 838 3 q 868 347 853 178 q 617 228 756 286 q 399 154 467 165 q 253 164 308 142 q 194 299 172 196 q 250 483 213 371 q 318 683 281 578 q 394 711 333 729 q 439 649 456 693 q 374 447 425 606 q 322 286 331 318 q 339 268 318 268 q 383 275 333 268 q 635 365 471 292 q 881 496 789 435 q 899 793 896 701 q 890 996 904 942 q 939 1088 872 1075 q 1021 1008 1006 1100 q 1028 846 1029 951 q 1018 622 1026 747 q 1126 685 1076 660 q 1267 739 1192 715 q 1340 693 1321 756 q 1299 614 1358 631 l 1299 614 z "},"":{"ha":1389,"x_min":0,"x_max":1389,"o":"m 1144 1010 q 1130 475 1168 856 q 1086 -37 1092 94 q 1028 -103 1085 -85 q 965 -35 969 -122 q 982 232 963 15 q 1017 633 1010 535 q 921 460 956 535 q 858 285 874 361 q 783 214 846 210 q 732 292 721 219 q 735 317 732 300 q 738 342 736 332 q 547 239 644 286 q 372 171 438 186 q 235 169 285 151 q 182 301 160 196 q 236 485 200 374 q 304 686 268 582 q 381 714 319 732 q 425 651 442 696 q 360 450 418 628 q 310 289 317 321 q 319 279 306 272 q 353 293 353 293 q 560 378 436 314 q 753 496 669 436 q 768 753 764 624 q 767 968 772 882 q 825 1058 761 1050 q 893 971 889 1067 q 893 822 896 922 q 885 639 890 738 q 953 760 917 697 q 1025 882 985 813 q 1022 950 1025 918 q 1015 997 1019 979 q 1064 1090 997 1078 q 1144 1010 1129 1103 l 1144 1010 z "},"":{"ha":1389,"x_min":0,"x_max":1389,"o":"m 1035 1010 q 1022 475 1058 857 q 981 -39 985 93 q 919 -103 975 -85 q 857 -36 861 -119 q 864 111 856 6 q 886 347 872 206 q 628 229 771 286 q 404 156 475 167 q 263 164 318 142 q 204 300 182 197 q 258 485 222 371 q 325 686 286 569 q 401 715 340 732 q 444 651 461 697 q 381 449 433 614 q 331 288 339 319 q 347 269 326 268 q 389 278 349 269 q 644 367 476 293 q 897 496 804 436 q 917 796 913 715 q 908 997 922 944 q 956 1093 888 1081 q 1035 1010 1022 1106 l 1035 1010 z "},"":{"ha":1389,"x_min":0,"x_max":1389,"o":"m 1210 261 q 961 167 1131 219 q 707 101 813 122 q 615 94 647 92 q 524 147 544 99 q 538 385 508 181 q 589 681 561 563 q 665 725 606 742 q 711 656 724 708 q 672 450 690 549 q 639 250 649 326 q 640 219 636 226 q 657 215 643 213 q 914 279 779 238 q 1154 379 1083 331 q 1251 363 1217 421 q 1210 261 1285 304 l 1210 261 m 526 138 q 475 72 533 90 q 407 94 415 56 q 336 332 390 165 q 264 539 288 481 q 297 631 232 611 q 385 582 363 649 q 460 363 417 493 q 526 138 514 193 l 526 138 z "},"":{"ha":1389,"x_min":0,"x_max":1389,"o":"m 1189 543 q 997 496 956 486 q 721 431 844 458 q 650 174 669 271 q 658 31 618 24 q 797 35 775 60 q 686 -90 824 6 q 606 -100 656 -108 q 532 -42 547 -89 q 535 144 519 3 q 576 396 549 278 q 310 346 419 361 q 143 336 186 328 q 64 418 53 353 q 157 465 75 483 q 389 483 217 453 q 729 558 515 507 q 957 624 796 590 q 1176 672 1118 658 q 1271 629 1260 693 q 1189 543 1281 564 l 1189 543 z "},"":{"ha":1389,"x_min":0,"x_max":1389,"o":"m 1079 1010 q 1065 475 1103 856 q 1021 -37 1028 94 q 961 -101 1019 -85 q 899 -33 903 -119 q 910 144 897 11 q 936 431 917 236 q 757 331 856 383 q 596 250 657 278 q 529 142 544 169 q 499 65 500 89 q 426 -31 497 -17 q 358 50 354 -43 q 442 235 361 92 q 583 493 524 379 q 338 432 478 471 q 143 374 249 407 q 36 414 53 344 q 106 504 21 483 q 322 558 154 515 q 635 626 489 600 q 746 585 732 644 q 711 478 758 533 q 704 458 704 458 q 696 436 700 446 q 828 513 753 467 q 947 586 882 544 q 961 832 958 750 q 949 997 963 951 q 997 1090 931 1078 q 1079 1010 1064 1103 l 1079 1010 z "},"":{"ha":1389,"x_min":0,"x_max":1389,"o":"m 1150 1010 q 1135 475 1174 856 q 1092 -37 1097 94 q 1033 -103 1090 -85 q 971 -35 975 -122 q 1008 465 969 -6 q 1019 997 1044 896 q 1068 1090 1001 1078 q 1150 1010 1135 1103 l 1150 1010 m 935 981 q 921 533 958 825 q 876 110 883 242 q 818 44 875 64 q 756 111 760 25 q 760 228 753 144 q 779 403 765 285 q 643 313 718 360 q 518 239 572 269 q 456 138 465 154 q 426 65 428 88 q 354 -31 426 -17 q 286 50 282 -43 q 370 234 289 90 q 513 493 451 378 q 308 432 424 474 q 144 374 146 374 q 38 414 54 344 q 107 504 22 483 q 300 564 111 506 q 563 626 469 615 q 676 582 663 640 q 640 475 686 533 q 633 457 638 465 q 626 440 631 449 q 715 503 665 465 q 797 564 718 506 q 814 799 811 718 q 804 968 818 914 q 851 1060 783 1047 q 935 981 919 1074 l 935 981 z "},"":{"ha":1389,"x_min":0,"x_max":1389,"o":"m 1040 1010 q 1026 474 1064 856 q 983 -39 989 93 q 924 -103 982 -85 q 861 -36 865 -121 q 900 465 860 -11 q 911 997 936 894 q 960 1092 893 1079 q 1040 1010 1028 1106 l 1040 1010 m 742 474 q 615 240 715 406 q 529 64 531 100 q 457 -31 528 -17 q 389 49 385 -44 q 473 234 392 90 q 613 492 554 378 q 351 431 499 468 q 144 372 225 397 q 38 414 54 344 q 107 503 22 482 q 345 570 156 514 q 667 626 535 626 q 776 574 765 626 q 742 474 786 529 l 742 474 z "},"":{"ha":1389,"x_min":0,"x_max":1389,"o":"m 1193 558 q 1064 526 1133 543 q 879 482 969 503 q 881 198 894 335 q 860 -40 867 61 q 794 -101 860 -83 q 731 -36 729 -118 q 749 183 731 -17 q 754 453 765 350 q 665 433 711 443 q 576 411 624 424 q 503 188 493 150 q 508 67 469 65 q 658 86 657 86 q 543 -44 717 76 q 464 -54 513 -62 q 390 4 406 -43 q 392 164 378 46 q 432 381 404 274 q 260 354 324 361 q 149 351 181 344 q 68 435 57 371 q 161 481 81 499 q 394 500 222 468 q 736 574 514 521 q 993 643 846 606 q 1181 688 1099 669 q 1275 644 1264 708 q 1193 558 1285 579 l 1193 558 z "},"":{"ha":1389,"x_min":0,"x_max":1389,"o":"m 1188 326 q 635 204 1113 317 q 150 122 226 107 q 69 204 60 139 q 161 251 79 268 q 508 302 233 236 q 906 393 782 368 q 1067 431 975 407 q 1181 457 1143 451 q 1274 404 1265 472 q 1188 326 1281 336 l 1188 326 z "},"":{"ha":1389,"x_min":0,"x_max":1389,"o":"m 1043 1010 q 1029 475 1067 857 q 988 -39 992 93 q 926 -103 982 -85 q 864 -36 868 -119 q 875 151 863 7 q 900 451 864 15 q 539 238 751 340 q 157 108 301 124 q 72 169 86 103 q 151 238 60 236 q 531 365 278 240 q 914 613 776 489 q 924 843 922 764 q 914 997 925 953 q 963 1092 896 1079 q 1043 1010 1031 1106 l 1043 1010 z "},"":{"ha":1389,"x_min":0,"x_max":1389,"o":"m 782 1021 q 769 486 806 868 q 728 -28 732 104 q 667 -92 722 -74 q 604 -25 608 -108 q 643 476 603 0 q 654 1008 679 906 q 703 1104 636 1092 q 782 1021 769 1117 l 782 1021 z "},"":{"ha":1389,"x_min":0,"x_max":0,"o":""},"":{"ha":1389,"x_min":0,"x_max":0,"o":""},"":{"ha":1389,"x_min":0,"x_max":0,"o":""},"":{"ha":1389,"x_min":0,"x_max":0,"o":""},"":{"ha":1389,"x_min":0,"x_max":0,"o":""},"":{"ha":1389,"x_min":0,"x_max":0,"o":""},"":{"ha":1389,"x_min":0,"x_max":0,"o":""},"":{"ha":1389,"x_min":0,"x_max":0,"o":""},"":{"ha":1389,"x_min":0,"x_max":0,"o":""},"":{"ha":1389,"x_min":0,"x_max":0,"o":""},"":{"ha":1389,"x_min":0,"x_max":0,"o":""},"":{"ha":1389,"x_min":0,"x_max":0,"o":""},"":{"ha":1389,"x_min":0,"x_max":0,"o":""},"":{"ha":1389,"x_min":0,"x_max":0,"o":""},"":{"ha":1389,"x_min":0,"x_max":0,"o":""},"":{"ha":1389,"x_min":0,"x_max":0,"o":""},"":{"ha":1389,"x_min":0,"x_max":0,"o":""},"":{"ha":1389,"x_min":0,"x_max":0,"o":""},"":{"ha":1389,"x_min":0,"x_max":0,"o":""},"":{"ha":1389,"x_min":0,"x_max":0,"o":""},"":{"ha":1389,"x_min":0,"x_max":0,"o":""},"":{"ha":1389,"x_min":0,"x_max":0,"o":""},"":{"ha":1389,"x_min":0,"x_max":0,"o":""},"":{"ha":1389,"x_min":0,"x_max":0,"o":""},"":{"ha":1389,"x_min":0,"x_max":0,"o":""},"":{"ha":1389,"x_min":0,"x_max":0,"o":""},"":{"ha":1389,"x_min":0,"x_max":0,"o":""},"":{"ha":1389,"x_min":0,"x_max":0,"o":""},"":{"ha":1389,"x_min":0,"x_max":0,"o":""},"":{"ha":1389,"x_min":0,"x_max":0,"o":""},"":{"ha":1389,"x_min":0,"x_max":0,"o":""},"":{"ha":1389,"x_min":0,"x_max":0,"o":""},"":{"ha":1389,"x_min":0,"x_max":0,"o":""},"":{"ha":1389,"x_min":0,"x_max":0,"o":""},"":{"ha":1389,"x_min":0,"x_max":0,"o":""},"":{"ha":1389,"x_min":0,"x_max":0,"o":""},"":{"ha":1389,"x_min":0,"x_max":0,"o":""},"":{"ha":1389,"x_min":0,"x_max":0,"o":""},"":{"ha":1389,"x_min":0,"x_max":0,"o":""},"":{"ha":1389,"x_min":0,"x_max":0,"o":""},"":{"ha":1389,"x_min":0,"x_max":0,"o":""},"":{"ha":1389,"x_min":0,"x_max":0,"o":""},"":{"ha":1389,"x_min":0,"x_max":0,"o":""},"":{"ha":1389,"x_min":0,"x_max":0,"o":""},"":{"ha":1389,"x_min":0,"x_max":0,"o":""},"":{"ha":1389,"x_min":0,"x_max":0,"o":""},"":{"ha":1389,"x_min":0,"x_max":0,"o":""},"":{"ha":1389,"x_min":0,"x_max":0,"o":""},"":{"ha":1389,"x_min":0,"x_max":0,"o":""},"":{"ha":1389,"x_min":0,"x_max":0,"o":""},"":{"ha":1389,"x_min":0,"x_max":0,"o":""},"":{"ha":1389,"x_min":0,"x_max":0,"o":""},"":{"ha":1389,"x_min":0,"x_max":0,"o":""},"":{"ha":1389,"x_min":0,"x_max":0,"o":""},"":{"ha":1389,"x_min":0,"x_max":0,"o":""},"":{"ha":1389,"x_min":0,"x_max":0,"o":""},"":{"ha":1389,"x_min":0,"x_max":0,"o":""},"":{"ha":1389,"x_min":0,"x_max":0,"o":""},"":{"ha":1389,"x_min":0,"x_max":0,"o":""},"":{"ha":1389,"x_min":0,"x_max":0,"o":""},"":{"ha":1389,"x_min":0,"x_max":0,"o":""},"":{"ha":1389,"x_min":0,"x_max":0,"o":""},"":{"ha":1389,"x_min":0,"x_max":0,"o":""},"":{"ha":1389,"x_min":0,"x_max":0,"o":""},"":{"ha":1389,"x_min":0,"x_max":0,"o":""},"":{"ha":1389,"x_min":0,"x_max":0,"o":""},"":{"ha":1389,"x_min":0,"x_max":0,"o":""},"":{"ha":1389,"x_min":0,"x_max":0,"o":""},"":{"ha":1389,"x_min":0,"x_max":0,"o":""},"":{"ha":1389,"x_min":0,"x_max":0,"o":""},"":{"ha":1389,"x_min":0,"x_max":0,"o":""},"":{"ha":1389,"x_min":0,"x_max":0,"o":""},"":{"ha":1389,"x_min":0,"x_max":0,"o":""},"":{"ha":1389,"x_min":0,"x_max":0,"o":""},"":{"ha":1389,"x_min":0,"x_max":0,"o":""},"":{"ha":1389,"x_min":0,"x_max":0,"o":""},"":{"ha":1389,"x_min":0,"x_max":0,"o":""},"":{"ha":1389,"x_min":0,"x_max":0,"o":""},"":{"ha":1389,"x_min":0,"x_max":0,"o":""},"":{"ha":1389,"x_min":0,"x_max":0,"o":""},"":{"ha":1389,"x_min":0,"x_max":0,"o":""},"":{"ha":1389,"x_min":0,"x_max":0,"o":""},"":{"ha":1389,"x_min":0,"x_max":0,"o":""},"":{"ha":1389,"x_min":0,"x_max":0,"o":""},"":{"ha":1389,"x_min":0,"x_max":0,"o":""},"":{"ha":1389,"x_min":0,"x_max":0,"o":""},"":{"ha":1389,"x_min":0,"x_max":0,"o":""},"":{"ha":1389,"x_min":0,"x_max":0,"o":""},"":{"ha":1389,"x_min":0,"x_max":0,"o":""},"":{"ha":1389,"x_min":0,"x_max":0,"o":""},"":{"ha":1389,"x_min":0,"x_max":0,"o":""},"":{"ha":1389,"x_min":0,"x_max":0,"o":""},"":{"ha":1389,"x_min":0,"x_max":0,"o":""},"":{"ha":1389,"x_min":0,"x_max":0,"o":""},"":{"ha":1389,"x_min":0,"x_max":0,"o":""},"":{"ha":1389,"x_min":0,"x_max":0,"o":""},"":{"ha":1389,"x_min":0,"x_max":0,"o":""},"":{"ha":1389,"x_min":0,"x_max":0,"o":""},"":{"ha":1389,"x_min":0,"x_max":0,"o":""},"":{"ha":1389,"x_min":0,"x_max":0,"o":""},"":{"ha":1389,"x_min":0,"x_max":0,"o":""},"":{"ha":1389,"x_min":0,"x_max":0,"o":""},"":{"ha":1389,"x_min":0,"x_max":0,"o":""},"":{"ha":1389,"x_min":0,"x_max":0,"o":""},"":{"ha":1389,"x_min":0,"x_max":0,"o":""},"":{"ha":1389,"x_min":0,"x_max":0,"o":""},"":{"ha":1389,"x_min":0,"x_max":0,"o":""},"":{"ha":1389,"x_min":0,"x_max":0,"o":""},"":{"ha":1389,"x_min":0,"x_max":0,"o":""},"":{"ha":1389,"x_min":0,"x_max":0,"o":""},"":{"ha":1389,"x_min":0,"x_max":0,"o":""},"":{"ha":1389,"x_min":0,"x_max":0,"o":""},"":{"ha":1389,"x_min":0,"x_max":0,"o":""},"":{"ha":1389,"x_min":0,"x_max":0,"o":""},"":{"ha":1389,"x_min":0,"x_max":0,"o":""},"":{"ha":1389,"x_min":0,"x_max":0,"o":""},"":{"ha":1389,"x_min":0,"x_max":0,"o":""},"":{"ha":1389,"x_min":0,"x_max":0,"o":""},"":{"ha":1389,"x_min":0,"x_max":0,"o":""},"":{"ha":1389,"x_min":0,"x_max":0,"o":""},"":{"ha":1389,"x_min":0,"x_max":0,"o":""},"":{"ha":1389,"x_min":0,"x_max":0,"o":""},"":{"ha":1389,"x_min":0,"x_max":0,"o":""},"":{"ha":1389,"x_min":0,"x_max":0,"o":""},"":{"ha":1389,"x_min":0,"x_max":0,"o":""},"":{"ha":1389,"x_min":0,"x_max":0,"o":""},"":{"ha":1389,"x_min":0,"x_max":0,"o":""},"":{"ha":1389,"x_min":0,"x_max":0,"o":""},"":{"ha":1389,"x_min":0,"x_max":0,"o":""},"":{"ha":1389,"x_min":0,"x_max":0,"o":""},"":{"ha":1389,"x_min":0,"x_max":0,"o":""},"":{"ha":1389,"x_min":0,"x_max":0,"o":""},"":{"ha":1389,"x_min":0,"x_max":0,"o":""},"":{"ha":1389,"x_min":0,"x_max":0,"o":""},"":{"ha":1389,"x_min":0,"x_max":0,"o":""},"":{"ha":1389,"x_min":0,"x_max":0,"o":""},"":{"ha":1389,"x_min":0,"x_max":0,"o":""},"":{"ha":1389,"x_min":0,"x_max":0,"o":""},"":{"ha":1389,"x_min":0,"x_max":0,"o":""},"":{"ha":1389,"x_min":0,"x_max":0,"o":""},"":{"ha":1389,"x_min":0,"x_max":0,"o":""},"":{"ha":1389,"x_min":0,"x_max":0,"o":""},"":{"ha":1389,"x_min":0,"x_max":0,"o":""},"":{"ha":1389,"x_min":0,"x_max":0,"o":""},"":{"ha":1389,"x_min":0,"x_max":0,"o":""},"":{"ha":1389,"x_min":0,"x_max":0,"o":""},"":{"ha":1389,"x_min":0,"x_max":0,"o":""},"":{"ha":1389,"x_min":0,"x_max":0,"o":""},"":{"ha":1389,"x_min":0,"x_max":0,"o":""},"":{"ha":1389,"x_min":0,"x_max":0,"o":""},"":{"ha":1389,"x_min":0,"x_max":0,"o":""},"":{"ha":1389,"x_min":0,"x_max":0,"o":""},"":{"ha":1389,"x_min":0,"x_max":0,"o":""},"":{"ha":1389,"x_min":0,"x_max":0,"o":""},"":{"ha":1389,"x_min":0,"x_max":0,"o":""},"":{"ha":1389,"x_min":0,"x_max":0,"o":""},"":{"ha":1389,"x_min":0,"x_max":0,"o":""},"":{"ha":1389,"x_min":0,"x_max":0,"o":""},"":{"ha":1389,"x_min":0,"x_max":0,"o":""},"":{"ha":1389,"x_min":0,"x_max":0,"o":""},"":{"ha":1389,"x_min":0,"x_max":0,"o":""},"":{"ha":1389,"x_min":0,"x_max":0,"o":""},"":{"ha":1389,"x_min":0,"x_max":0,"o":""},"":{"ha":1389,"x_min":0,"x_max":0,"o":""},"":{"ha":1389,"x_min":0,"x_max":0,"o":""},"":{"ha":1389,"x_min":0,"x_max":0,"o":""},"":{"ha":1389,"x_min":0,"x_max":0,"o":""},"":{"ha":1389,"x_min":0,"x_max":0,"o":""},"":{"ha":1389,"x_min":0,"x_max":0,"o":""},"":{"ha":1389,"x_min":0,"x_max":0,"o":""},"":{"ha":1389,"x_min":0,"x_max":0,"o":""},"":{"ha":1389,"x_min":0,"x_max":0,"o":""},"":{"ha":1389,"x_min":0,"x_max":0,"o":""},"":{"ha":1389,"x_min":0,"x_max":0,"o":""},"":{"ha":1389,"x_min":0,"x_max":0,"o":""},"":{"ha":1389,"x_min":0,"x_max":0,"o":""},"":{"ha":1389,"x_min":0,"x_max":0,"o":""},"":{"ha":1389,"x_min":0,"x_max":0,"o":""},"":{"ha":1389,"x_min":0,"x_max":0,"o":""},"":{"ha":1389,"x_min":0,"x_max":0,"o":""},"":{"ha":1389,"x_min":0,"x_max":0,"o":""},"":{"ha":1389,"x_min":0,"x_max":0,"o":""},"":{"ha":1389,"x_min":0,"x_max":0,"o":""},"":{"ha":1389,"x_min":0,"x_max":0,"o":""},"":{"ha":1389,"x_min":0,"x_max":0,"o":""},"":{"ha":1389,"x_min":0,"x_max":0,"o":""},"":{"ha":1389,"x_min":0,"x_max":0,"o":""},"":{"ha":1389,"x_min":0,"x_max":0,"o":""},"":{"ha":1389,"x_min":0,"x_max":0,"o":""},"":{"ha":1389,"x_min":0,"x_max":0,"o":""},"":{"ha":1389,"x_min":0,"x_max":0,"o":""},"":{"ha":1389,"x_min":0,"x_max":0,"o":""},"":{"ha":1389,"x_min":0,"x_max":0,"o":""},"":{"ha":1389,"x_min":0,"x_max":0,"o":""},"":{"ha":1389,"x_min":0,"x_max":0,"o":""},"":{"ha":1389,"x_min":0,"x_max":0,"o":""},"":{"ha":1389,"x_min":0,"x_max":0,"o":""},"":{"ha":1389,"x_min":0,"x_max":0,"o":""},"":{"ha":1389,"x_min":0,"x_max":0,"o":""},"":{"ha":1389,"x_min":0,"x_max":0,"o":""},"":{"ha":1389,"x_min":0,"x_max":0,"o":""},"":{"ha":1389,"x_min":0,"x_max":0,"o":""},"":{"ha":1389,"x_min":0,"x_max":0,"o":""},"":{"ha":1389,"x_min":0,"x_max":0,"o":""},"":{"ha":1389,"x_min":0,"x_max":0,"o":""},"":{"ha":1389,"x_min":0,"x_max":0,"o":""},"":{"ha":1389,"x_min":0,"x_max":0,"o":""},"":{"ha":1389,"x_min":0,"x_max":0,"o":""},"":{"ha":1389,"x_min":0,"x_max":0,"o":""},"":{"ha":1389,"x_min":0,"x_max":0,"o":""},"":{"ha":1389,"x_min":0,"x_max":0,"o":""},"":{"ha":1389,"x_min":0,"x_max":0,"o":""},"":{"ha":1389,"x_min":0,"x_max":0,"o":""},"":{"ha":1389,"x_min":0,"x_max":0,"o":""},"":{"ha":1389,"x_min":0,"x_max":0,"o":""},"":{"ha":1389,"x_min":0,"x_max":0,"o":""},"":{"ha":1389,"x_min":0,"x_max":0,"o":""},"":{"ha":1389,"x_min":0,"x_max":0,"o":""},"":{"ha":1389,"x_min":0,"x_max":0,"o":""},"":{"ha":1389,"x_min":0,"x_max":0,"o":""},"":{"ha":1389,"x_min":0,"x_max":0,"o":""},"":{"ha":1389,"x_min":0,"x_max":0,"o":""},"":{"ha":1389,"x_min":0,"x_max":0,"o":""},"":{"ha":1389,"x_min":0,"x_max":0,"o":""},"":{"ha":1389,"x_min":0,"x_max":0,"o":""},"":{"ha":1389,"x_min":0,"x_max":0,"o":""},"":{"ha":1389,"x_min":0,"x_max":0,"o":""},"":{"ha":1389,"x_min":0,"x_max":0,"o":""},"":{"ha":1389,"x_min":0,"x_max":0,"o":""},"":{"ha":1389,"x_min":0,"x_max":0,"o":""},"":{"ha":1389,"x_min":0,"x_max":0,"o":""},"":{"ha":1389,"x_min":0,"x_max":0,"o":""},"":{"ha":1389,"x_min":0,"x_max":0,"o":""},"":{"ha":1389,"x_min":0,"x_max":0,"o":""},"":{"ha":1389,"x_min":0,"x_max":0,"o":""},"":{"ha":1389,"x_min":0,"x_max":0,"o":""},"":{"ha":1389,"x_min":0,"x_max":0,"o":""},"":{"ha":1389,"x_min":0,"x_max":0,"o":""},"":{"ha":1389,"x_min":0,"x_max":0,"o":""},"":{"ha":1389,"x_min":0,"x_max":0,"o":""},"":{"ha":1389,"x_min":0,"x_max":0,"o":""},"":{"ha":1389,"x_min":0,"x_max":0,"o":""},"":{"ha":1389,"x_min":0,"x_max":0,"o":""},"":{"ha":1389,"x_min":0,"x_max":0,"o":""},"":{"ha":1389,"x_min":0,"x_max":0,"o":""},"":{"ha":1389,"x_min":0,"x_max":0,"o":""},"":{"ha":1389,"x_min":0,"x_max":0,"o":""},"":{"ha":1389,"x_min":0,"x_max":0,"o":""},"":{"ha":1389,"x_min":0,"x_max":0,"o":""},"":{"ha":1389,"x_min":0,"x_max":0,"o":""},"":{"ha":1389,"x_min":0,"x_max":0,"o":""},"":{"ha":1389,"x_min":0,"x_max":0,"o":""},"":{"ha":1389,"x_min":0,"x_max":0,"o":""},"":{"ha":1389,"x_min":0,"x_max":0,"o":""},"":{"ha":1389,"x_min":0,"x_max":0,"o":""},"":{"ha":1389,"x_min":0,"x_max":0,"o":""},"":{"ha":1389,"x_min":0,"x_max":0,"o":""},"":{"ha":1389,"x_min":0,"x_max":0,"o":""},"":{"ha":1389,"x_min":0,"x_max":0,"o":""},"":{"ha":1389,"x_min":0,"x_max":0,"o":""},"":{"ha":1389,"x_min":0,"x_max":0,"o":""},"":{"ha":1389,"x_min":0,"x_max":0,"o":""},"":{"ha":1389,"x_min":0,"x_max":0,"o":""},"":{"ha":1389,"x_min":0,"x_max":0,"o":""},"":{"ha":1389,"x_min":0,"x_max":0,"o":""},"":{"ha":1389,"x_min":0,"x_max":0,"o":""},"":{"ha":1389,"x_min":0,"x_max":0,"o":""},"":{"ha":1389,"x_min":0,"x_max":0,"o":""},"":{"ha":1389,"x_min":0,"x_max":0,"o":""},"":{"ha":1389,"x_min":0,"x_max":0,"o":""},"":{"ha":1389,"x_min":0,"x_max":0,"o":""},"":{"ha":1389,"x_min":0,"x_max":0,"o":""},"":{"ha":1389,"x_min":0,"x_max":0,"o":""},"":{"ha":1389,"x_min":0,"x_max":0,"o":""},"":{"ha":1389,"x_min":0,"x_max":0,"o":""},"":{"ha":1389,"x_min":0,"x_max":0,"o":""},"":{"ha":1389,"x_min":0,"x_max":0,"o":""},"":{"ha":1389,"x_min":0,"x_max":0,"o":""},"":{"ha":1389,"x_min":0,"x_max":0,"o":""},"":{"ha":1389,"x_min":0,"x_max":0,"o":""},"":{"ha":1389,"x_min":0,"x_max":0,"o":""},"":{"ha":1389,"x_min":0,"x_max":0,"o":""},"":{"ha":1389,"x_min":0,"x_max":0,"o":""},"":{"ha":1389,"x_min":0,"x_max":0,"o":""},"":{"ha":1389,"x_min":0,"x_max":0,"o":""},"":{"ha":1389,"x_min":0,"x_max":0,"o":""},"":{"ha":1389,"x_min":0,"x_max":0,"o":""},"":{"ha":1389,"x_min":0,"x_max":0,"o":""},"":{"ha":1389,"x_min":0,"x_max":0,"o":""},"":{"ha":1389,"x_min":0,"x_max":0,"o":""},"":{"ha":1389,"x_min":0,"x_max":0,"o":""},"":{"ha":1389,"x_min":0,"x_max":0,"o":""},"":{"ha":1389,"x_min":0,"x_max":0,"o":""},"":{"ha":1389,"x_min":0,"x_max":0,"o":""},"":{"ha":1389,"x_min":0,"x_max":0,"o":""},"":{"ha":1389,"x_min":0,"x_max":0,"o":""},"":{"ha":1389,"x_min":0,"x_max":0,"o":""},"":{"ha":1389,"x_min":0,"x_max":0,"o":""},"":{"ha":1389,"x_min":0,"x_max":0,"o":""},"":{"ha":1389,"x_min":0,"x_max":0,"o":""},"":{"ha":1389,"x_min":0,"x_max":0,"o":""},"":{"ha":1389,"x_min":0,"x_max":0,"o":""},"":{"ha":1389,"x_min":0,"x_max":0,"o":""},"":{"ha":1389,"x_min":0,"x_max":0,"o":""},"":{"ha":1389,"x_min":0,"x_max":0,"o":""},"":{"ha":1389,"x_min":0,"x_max":0,"o":""},"":{"ha":1389,"x_min":0,"x_max":0,"o":""},"":{"ha":1389,"x_min":0,"x_max":0,"o":""},"":{"ha":1389,"x_min":0,"x_max":0,"o":""},"":{"ha":1389,"x_min":0,"x_max":0,"o":""},"":{"ha":1389,"x_min":0,"x_max":0,"o":""},"":{"ha":1389,"x_min":0,"x_max":0,"o":""},"":{"ha":1389,"x_min":0,"x_max":0,"o":""},"":{"ha":1389,"x_min":0,"x_max":0,"o":""},"":{"ha":1389,"x_min":0,"x_max":0,"o":""},"":{"ha":1389,"x_min":0,"x_max":0,"o":""},"":{"ha":1389,"x_min":0,"x_max":0,"o":""},"":{"ha":1389,"x_min":0,"x_max":0,"o":""},"":{"ha":1389,"x_min":0,"x_max":0,"o":""},"":{"ha":1389,"x_min":0,"x_max":0,"o":""},"":{"ha":1389,"x_min":0,"x_max":0,"o":""},"":{"ha":1389,"x_min":0,"x_max":0,"o":""},"":{"ha":1389,"x_min":0,"x_max":0,"o":""},"":{"ha":1389,"x_min":0,"x_max":0,"o":""},"":{"ha":1389,"x_min":0,"x_max":0,"o":""},"":{"ha":1389,"x_min":0,"x_max":0,"o":""},"":{"ha":1389,"x_min":0,"x_max":0,"o":""},"":{"ha":1389,"x_min":0,"x_max":0,"o":""},"":{"ha":1389,"x_min":0,"x_max":0,"o":""},"":{"ha":1389,"x_min":0,"x_max":0,"o":""},"":{"ha":1389,"x_min":0,"x_max":0,"o":""},"":{"ha":1389,"x_min":0,"x_max":0,"o":""},"":{"ha":1389,"x_min":0,"x_max":0,"o":""},"":{"ha":1389,"x_min":0,"x_max":0,"o":""},"":{"ha":1389,"x_min":0,"x_max":0,"o":""},"":{"ha":1389,"x_min":0,"x_max":0,"o":""},"":{"ha":1389,"x_min":0,"x_max":0,"o":""},"":{"ha":1389,"x_min":0,"x_max":0,"o":""},"":{"ha":1389,"x_min":0,"x_max":0,"o":""},"":{"ha":1389,"x_min":0,"x_max":0,"o":""},"":{"ha":1389,"x_min":0,"x_max":0,"o":""},"":{"ha":1389,"x_min":0,"x_max":0,"o":""},"":{"ha":1389,"x_min":0,"x_max":0,"o":""},"":{"ha":1389,"x_min":0,"x_max":0,"o":""},"":{"ha":1389,"x_min":0,"x_max":0,"o":""},"":{"ha":1389,"x_min":0,"x_max":0,"o":""},"":{"ha":1389,"x_min":0,"x_max":0,"o":""},"":{"ha":1389,"x_min":0,"x_max":0,"o":""},"":{"ha":1389,"x_min":0,"x_max":0,"o":""},"":{"ha":1389,"x_min":0,"x_max":0,"o":""},"":{"ha":1389,"x_min":0,"x_max":0,"o":""},"":{"ha":1389,"x_min":0,"x_max":0,"o":""},"":{"ha":1389,"x_min":0,"x_max":0,"o":""},"":{"ha":1389,"x_min":0,"x_max":0,"o":""},"":{"ha":1389,"x_min":0,"x_max":0,"o":""},"":{"ha":1389,"x_min":0,"x_max":0,"o":""},"":{"ha":1389,"x_min":0,"x_max":0,"o":""},"":{"ha":1389,"x_min":0,"x_max":0,"o":""},"":{"ha":1389,"x_min":0,"x_max":0,"o":""},"":{"ha":1389,"x_min":0,"x_max":0,"o":""},"":{"ha":1389,"x_min":0,"x_max":0,"o":""},"":{"ha":1389,"x_min":0,"x_max":0,"o":""},"":{"ha":1389,"x_min":0,"x_max":0,"o":""},"":{"ha":1389,"x_min":0,"x_max":0,"o":""},"":{"ha":1389,"x_min":0,"x_max":0,"o":""},"":{"ha":1389,"x_min":0,"x_max":0,"o":""},"":{"ha":1389,"x_min":0,"x_max":0,"o":""},"":{"ha":1389,"x_min":0,"x_max":0,"o":""},"":{"ha":1389,"x_min":0,"x_max":0,"o":""},"":{"ha":1389,"x_min":0,"x_max":0,"o":""},"":{"ha":1389,"x_min":0,"x_max":0,"o":""},"":{"ha":1389,"x_min":0,"x_max":0,"o":""},"":{"ha":1389,"x_min":0,"x_max":0,"o":""},"":{"ha":1389,"x_min":0,"x_max":0,"o":""},"":{"ha":1389,"x_min":0,"x_max":0,"o":""},"":{"ha":1389,"x_min":0,"x_max":0,"o":""},"":{"ha":1389,"x_min":0,"x_max":0,"o":""},"":{"ha":1389,"x_min":0,"x_max":0,"o":""},"":{"ha":1389,"x_min":0,"x_max":0,"o":""},"":{"ha":1389,"x_min":0,"x_max":0,"o":""},"":{"ha":1389,"x_min":0,"x_max":0,"o":""},"":{"ha":1389,"x_min":0,"x_max":0,"o":""},"":{"ha":1389,"x_min":0,"x_max":0,"o":""},"":{"ha":1389,"x_min":0,"x_max":0,"o":""},"":{"ha":1389,"x_min":0,"x_max":0,"o":""},"":{"ha":1389,"x_min":0,"x_max":0,"o":""},"":{"ha":1389,"x_min":0,"x_max":0,"o":""},"":{"ha":1389,"x_min":0,"x_max":0,"o":""},"":{"ha":1389,"x_min":0,"x_max":0,"o":""},"":{"ha":1389,"x_min":0,"x_max":0,"o":""},"":{"ha":1389,"x_min":0,"x_max":0,"o":""},"":{"ha":1389,"x_min":0,"x_max":0,"o":""},"":{"ha":1389,"x_min":0,"x_max":0,"o":""},"":{"ha":1389,"x_min":0,"x_max":0,"o":""},"":{"ha":1389,"x_min":0,"x_max":0,"o":""},"":{"ha":1389,"x_min":0,"x_max":0,"o":""},"":{"ha":1389,"x_min":0,"x_max":0,"o":""},"":{"ha":1389,"x_min":0,"x_max":0,"o":""},"":{"ha":1389,"x_min":0,"x_max":0,"o":""},"":{"ha":1389,"x_min":0,"x_max":0,"o":""},"":{"ha":1389,"x_min":0,"x_max":0,"o":""},"":{"ha":1389,"x_min":0,"x_max":0,"o":""},"":{"ha":1389,"x_min":0,"x_max":0,"o":""},"":{"ha":1389,"x_min":0,"x_max":0,"o":""},"":{"ha":1389,"x_min":0,"x_max":0,"o":""},"":{"ha":1389,"x_min":0,"x_max":0,"o":""},"":{"ha":1389,"x_min":0,"x_max":0,"o":""},"":{"ha":1389,"x_min":0,"x_max":0,"o":""},"":{"ha":1389,"x_min":0,"x_max":0,"o":""},"":{"ha":1389,"x_min":0,"x_max":0,"o":""},"":{"ha":1389,"x_min":0,"x_max":0,"o":""},"":{"ha":1389,"x_min":0,"x_max":0,"o":""},"":{"ha":1389,"x_min":0,"x_max":0,"o":""},"":{"ha":1389,"x_min":0,"x_max":0,"o":""},"":{"ha":1389,"x_min":0,"x_max":0,"o":""},"":{"ha":1389,"x_min":0,"x_max":0,"o":""},"":{"ha":1389,"x_min":0,"x_max":0,"o":""},"":{"ha":1389,"x_min":0,"x_max":0,"o":""},"":{"ha":1389,"x_min":0,"x_max":0,"o":""},"":{"ha":1389,"x_min":0,"x_max":0,"o":""},"":{"ha":1389,"x_min":0,"x_max":0,"o":""},"":{"ha":1389,"x_min":0,"x_max":0,"o":""},"":{"ha":1389,"x_min":0,"x_max":0,"o":""},"":{"ha":1389,"x_min":0,"x_max":0,"o":""},"":{"ha":1389,"x_min":0,"x_max":0,"o":""},"":{"ha":1389,"x_min":0,"x_max":0,"o":""},"":{"ha":1389,"x_min":0,"x_max":0,"o":""},"":{"ha":1389,"x_min":0,"x_max":0,"o":""},"":{"ha":1389,"x_min":0,"x_max":0,"o":""},"":{"ha":1389,"x_min":0,"x_max":0,"o":""},"":{"ha":1389,"x_min":0,"x_max":0,"o":""},"":{"ha":1389,"x_min":0,"x_max":0,"o":""},"":{"ha":1389,"x_min":0,"x_max":0,"o":""},"":{"ha":1389,"x_min":0,"x_max":0,"o":""},"":{"ha":1389,"x_min":0,"x_max":0,"o":""},"":{"ha":1389,"x_min":0,"x_max":0,"o":""},"":{"ha":1389,"x_min":0,"x_max":0,"o":""},"":{"ha":1389,"x_min":0,"x_max":0,"o":""},"":{"ha":1389,"x_min":0,"x_max":0,"o":""},"":{"ha":1389,"x_min":0,"x_max":0,"o":""},"":{"ha":1389,"x_min":0,"x_max":0,"o":""},"":{"ha":1389,"x_min":0,"x_max":0,"o":""},"":{"ha":1389,"x_min":0,"x_max":0,"o":""},"":{"ha":1389,"x_min":0,"x_max":0,"o":""},"":{"ha":1389,"x_min":0,"x_max":0,"o":""},"":{"ha":1389,"x_min":0,"x_max":0,"o":""},"":{"ha":1389,"x_min":0,"x_max":0,"o":""},"":{"ha":1389,"x_min":0,"x_max":0,"o":""},"":{"ha":1389,"x_min":0,"x_max":0,"o":""},"":{"ha":1389,"x_min":0,"x_max":0,"o":""},"":{"ha":1389,"x_min":0,"x_max":0,"o":""},"":{"ha":1389,"x_min":0,"x_max":0,"o":""},"":{"ha":1389,"x_min":0,"x_max":0,"o":""},"":{"ha":1389,"x_min":0,"x_max":0,"o":""},"":{"ha":1389,"x_min":0,"x_max":0,"o":""},"":{"ha":1389,"x_min":0,"x_max":0,"o":""},"":{"ha":1389,"x_min":0,"x_max":0,"o":""},"":{"ha":1389,"x_min":0,"x_max":0,"o":""},"":{"ha":1389,"x_min":0,"x_max":0,"o":""},"":{"ha":1389,"x_min":0,"x_max":0,"o":""},"":{"ha":1389,"x_min":0,"x_max":0,"o":""},"":{"ha":1389,"x_min":0,"x_max":0,"o":""},"":{"ha":1389,"x_min":0,"x_max":0,"o":""},"":{"ha":1389,"x_min":0,"x_max":0,"o":""},"":{"ha":1389,"x_min":0,"x_max":0,"o":""},"":{"ha":1389,"x_min":0,"x_max":0,"o":""},"":{"ha":1389,"x_min":0,"x_max":0,"o":""},"":{"ha":1389,"x_min":0,"x_max":0,"o":""},"":{"ha":1389,"x_min":0,"x_max":0,"o":""},"":{"ha":1389,"x_min":0,"x_max":0,"o":""},"":{"ha":1389,"x_min":0,"x_max":0,"o":""},"":{"ha":1389,"x_min":0,"x_max":0,"o":""},"":{"ha":1389,"x_min":0,"x_max":0,"o":""},"":{"ha":1389,"x_min":0,"x_max":0,"o":""},"":{"ha":1389,"x_min":0,"x_max":0,"o":""},"":{"ha":1389,"x_min":0,"x_max":0,"o":""},"":{"ha":1389,"x_min":0,"x_max":0,"o":""},"":{"ha":1389,"x_min":0,"x_max":0,"o":""},"":{"ha":1389,"x_min":0,"x_max":0,"o":""},"":{"ha":1389,"x_min":0,"x_max":0,"o":""},"":{"ha":1389,"x_min":0,"x_max":0,"o":""},"":{"ha":1389,"x_min":0,"x_max":0,"o":""},"":{"ha":1389,"x_min":0,"x_max":0,"o":""},"":{"ha":1389,"x_min":0,"x_max":0,"o":""},"":{"ha":1389,"x_min":0,"x_max":0,"o":""},"":{"ha":1389,"x_min":0,"x_max":0,"o":""},"":{"ha":1389,"x_min":0,"x_max":0,"o":""},"":{"ha":1389,"x_min":0,"x_max":0,"o":""},"":{"ha":1389,"x_min":0,"x_max":0,"o":""},"":{"ha":1389,"x_min":0,"x_max":0,"o":""},"":{"ha":1389,"x_min":0,"x_max":0,"o":""},"":{"ha":1389,"x_min":0,"x_max":0,"o":""},"":{"ha":1389,"x_min":0,"x_max":0,"o":""},"":{"ha":1389,"x_min":0,"x_max":0,"o":""},"":{"ha":1389,"x_min":0,"x_max":0,"o":""},"":{"ha":1389,"x_min":0,"x_max":0,"o":""},"":{"ha":1389,"x_min":0,"x_max":0,"o":""},"":{"ha":1389,"x_min":0,"x_max":0,"o":""},"":{"ha":1389,"x_min":0,"x_max":0,"o":""},"":{"ha":1389,"x_min":0,"x_max":0,"o":""},"":{"ha":1389,"x_min":0,"x_max":0,"o":""},"":{"ha":1389,"x_min":0,"x_max":0,"o":""},"":{"ha":1389,"x_min":0,"x_max":0,"o":""},"":{"ha":1389,"x_min":0,"x_max":0,"o":""},"":{"ha":1389,"x_min":0,"x_max":0,"o":""},"":{"ha":1389,"x_min":0,"x_max":0,"o":""},"":{"ha":1389,"x_min":0,"x_max":0,"o":""},"":{"ha":1389,"x_min":0,"x_max":0,"o":""},"":{"ha":1389,"x_min":0,"x_max":0,"o":""},"":{"ha":1389,"x_min":0,"x_max":0,"o":""},"":{"ha":1389,"x_min":0,"x_max":0,"o":""},"":{"ha":1389,"x_min":0,"x_max":0,"o":""},"":{"ha":1389,"x_min":0,"x_max":0,"o":""},"":{"ha":1389,"x_min":0,"x_max":0,"o":""},"":{"ha":1389,"x_min":0,"x_max":0,"o":""},"":{"ha":1389,"x_min":0,"x_max":0,"o":""},"":{"ha":1389,"x_min":0,"x_max":0,"o":""},"":{"ha":1389,"x_min":0,"x_max":0,"o":""},"":{"ha":1389,"x_min":0,"x_max":0,"o":""},"":{"ha":1389,"x_min":0,"x_max":0,"o":""},"":{"ha":1389,"x_min":0,"x_max":0,"o":""},"":{"ha":1389,"x_min":0,"x_max":0,"o":""},"":{"ha":1389,"x_min":0,"x_max":0,"o":""},"":{"ha":1389,"x_min":0,"x_max":0,"o":""},"":{"ha":1389,"x_min":0,"x_max":0,"o":""},"":{"ha":1389,"x_min":0,"x_max":0,"o":""},"":{"ha":1389,"x_min":0,"x_max":0,"o":""},"":{"ha":1389,"x_min":0,"x_max":0,"o":""},"":{"ha":1389,"x_min":0,"x_max":0,"o":""},"":{"ha":1389,"x_min":0,"x_max":0,"o":""},"":{"ha":1389,"x_min":0,"x_max":0,"o":""},"":{"ha":1389,"x_min":0,"x_max":0,"o":""},"":{"ha":1389,"x_min":0,"x_max":0,"o":""},"":{"ha":1389,"x_min":0,"x_max":0,"o":""},"":{"ha":1389,"x_min":0,"x_max":0,"o":""},"":{"ha":1389,"x_min":0,"x_max":0,"o":""},"":{"ha":1389,"x_min":0,"x_max":0,"o":""},"":{"ha":1389,"x_min":0,"x_max":0,"o":""},"":{"ha":1389,"x_min":0,"x_max":0,"o":""},"":{"ha":1389,"x_min":0,"x_max":0,"o":""},"":{"ha":1389,"x_min":0,"x_max":0,"o":""},"":{"ha":1389,"x_min":0,"x_max":0,"o":""},"":{"ha":1389,"x_min":0,"x_max":0,"o":""},"":{"ha":1389,"x_min":0,"x_max":0,"o":""},"":{"ha":1389,"x_min":0,"x_max":0,"o":""},"":{"ha":1389,"x_min":0,"x_max":0,"o":""},"":{"ha":1389,"x_min":0,"x_max":0,"o":""},"":{"ha":1389,"x_min":0,"x_max":0,"o":""},"":{"ha":1389,"x_min":0,"x_max":0,"o":""},"":{"ha":1389,"x_min":0,"x_max":0,"o":""},"":{"ha":1389,"x_min":0,"x_max":0,"o":""},"":{"ha":1389,"x_min":0,"x_max":0,"o":""},"":{"ha":1389,"x_min":0,"x_max":0,"o":""},"":{"ha":1389,"x_min":0,"x_max":0,"o":""},"":{"ha":1389,"x_min":0,"x_max":0,"o":""},"":{"ha":1389,"x_min":0,"x_max":0,"o":""},"":{"ha":1389,"x_min":0,"x_max":0,"o":""},"":{"ha":1389,"x_min":0,"x_max":0,"o":""},"":{"ha":1389,"x_min":0,"x_max":0,"o":""},"":{"ha":1389,"x_min":0,"x_max":0,"o":""},"":{"ha":1389,"x_min":0,"x_max":0,"o":""},"":{"ha":1389,"x_min":0,"x_max":0,"o":""},"":{"ha":1389,"x_min":0,"x_max":0,"o":""},"":{"ha":1389,"x_min":0,"x_max":0,"o":""},"":{"ha":1389,"x_min":0,"x_max":0,"o":""},"":{"ha":1389,"x_min":0,"x_max":0,"o":""},"":{"ha":1389,"x_min":0,"x_max":0,"o":""},"":{"ha":1389,"x_min":0,"x_max":0,"o":""},"":{"ha":1389,"x_min":0,"x_max":0,"o":""},"":{"ha":1389,"x_min":0,"x_max":0,"o":""},"":{"ha":1389,"x_min":0,"x_max":0,"o":""},"":{"ha":1389,"x_min":0,"x_max":0,"o":""},"":{"ha":1389,"x_min":0,"x_max":0,"o":""},"":{"ha":1389,"x_min":0,"x_max":0,"o":""},"":{"ha":1389,"x_min":0,"x_max":0,"o":""},"":{"ha":1389,"x_min":0,"x_max":0,"o":""},"":{"ha":1389,"x_min":0,"x_max":0,"o":""},"":{"ha":1389,"x_min":0,"x_max":0,"o":""},"":{"ha":1389,"x_min":0,"x_max":0,"o":""},"":{"ha":1389,"x_min":0,"x_max":0,"o":""},"":{"ha":1389,"x_min":0,"x_max":0,"o":""},"":{"ha":1389,"x_min":0,"x_max":0,"o":""},"":{"ha":1389,"x_min":0,"x_max":0,"o":""},"":{"ha":1389,"x_min":0,"x_max":0,"o":""},"":{"ha":1389,"x_min":0,"x_max":0,"o":""},"":{"ha":1389,"x_min":0,"x_max":0,"o":""},"":{"ha":1389,"x_min":0,"x_max":0,"o":""},"":{"ha":1389,"x_min":0,"x_max":0,"o":""},"":{"ha":1389,"x_min":0,"x_max":0,"o":""},"":{"ha":1389,"x_min":0,"x_max":0,"o":""},"":{"ha":1389,"x_min":0,"x_max":0,"o":""},"":{"ha":1389,"x_min":0,"x_max":0,"o":""},"":{"ha":1389,"x_min":0,"x_max":0,"o":""},"":{"ha":1389,"x_min":0,"x_max":0,"o":""},"":{"ha":1389,"x_min":0,"x_max":0,"o":""},"":{"ha":1389,"x_min":0,"x_max":0,"o":""},"":{"ha":1389,"x_min":0,"x_max":0,"o":""},"":{"ha":1389,"x_min":0,"x_max":0,"o":""},"":{"ha":1389,"x_min":0,"x_max":0,"o":""},"":{"ha":1389,"x_min":0,"x_max":0,"o":""},"":{"ha":1389,"x_min":0,"x_max":0,"o":""},"":{"ha":1389,"x_min":0,"x_max":0,"o":""},"":{"ha":1389,"x_min":0,"x_max":0,"o":""},"":{"ha":1389,"x_min":0,"x_max":0,"o":""},"":{"ha":1389,"x_min":0,"x_max":0,"o":""},"":{"ha":1389,"x_min":0,"x_max":0,"o":""},"":{"ha":1389,"x_min":0,"x_max":0,"o":""},"":{"ha":1389,"x_min":0,"x_max":0,"o":""},"":{"ha":1389,"x_min":0,"x_max":0,"o":""},"":{"ha":1389,"x_min":0,"x_max":0,"o":""},"":{"ha":1389,"x_min":0,"x_max":0,"o":""},"":{"ha":1389,"x_min":0,"x_max":0,"o":""},"":{"ha":1389,"x_min":0,"x_max":0,"o":""},"":{"ha":1389,"x_min":0,"x_max":0,"o":""},"":{"ha":1389,"x_min":0,"x_max":0,"o":""},"":{"ha":1389,"x_min":0,"x_max":0,"o":""},"":{"ha":1389,"x_min":0,"x_max":0,"o":""},"":{"ha":1389,"x_min":0,"x_max":0,"o":""},"":{"ha":1389,"x_min":0,"x_max":0,"o":""},"":{"ha":1389,"x_min":0,"x_max":0,"o":""},"":{"ha":1389,"x_min":0,"x_max":0,"o":""},"":{"ha":1389,"x_min":0,"x_max":0,"o":""},"":{"ha":1389,"x_min":0,"x_max":0,"o":""},"":{"ha":1389,"x_min":0,"x_max":0,"o":""},"":{"ha":1389,"x_min":0,"x_max":0,"o":""},"":{"ha":1389,"x_min":0,"x_max":0,"o":""},"":{"ha":1389,"x_min":0,"x_max":0,"o":""},"":{"ha":1389,"x_min":0,"x_max":0,"o":""},"":{"ha":1389,"x_min":0,"x_max":0,"o":""},"":{"ha":1389,"x_min":0,"x_max":0,"o":""},"":{"ha":1389,"x_min":0,"x_max":0,"o":""},"":{"ha":1389,"x_min":0,"x_max":0,"o":""},"":{"ha":1389,"x_min":0,"x_max":0,"o":""},"":{"ha":1389,"x_min":0,"x_max":0,"o":""},"":{"ha":1389,"x_min":0,"x_max":0,"o":""},"":{"ha":1389,"x_min":0,"x_max":0,"o":""},"":{"ha":1389,"x_min":0,"x_max":0,"o":""},"":{"ha":1389,"x_min":0,"x_max":0,"o":""},"":{"ha":1389,"x_min":0,"x_max":0,"o":""},"":{"ha":1389,"x_min":0,"x_max":0,"o":""},"":{"ha":1389,"x_min":0,"x_max":0,"o":""},"":{"ha":1389,"x_min":0,"x_max":0,"o":""},"":{"ha":1389,"x_min":0,"x_max":0,"o":""},"":{"ha":1389,"x_min":0,"x_max":0,"o":""},"":{"ha":1389,"x_min":0,"x_max":0,"o":""},"":{"ha":1389,"x_min":0,"x_max":0,"o":""},"":{"ha":1389,"x_min":0,"x_max":0,"o":""},"":{"ha":1389,"x_min":0,"x_max":0,"o":""},"":{"ha":1389,"x_min":0,"x_max":0,"o":""},"":{"ha":1389,"x_min":0,"x_max":0,"o":""},"":{"ha":1389,"x_min":0,"x_max":0,"o":""},"":{"ha":1389,"x_min":0,"x_max":0,"o":""},"":{"ha":1389,"x_min":0,"x_max":0,"o":""},"":{"ha":1389,"x_min":0,"x_max":0,"o":""},"":{"ha":1389,"x_min":0,"x_max":0,"o":""},"":{"ha":1389,"x_min":0,"x_max":0,"o":""},"":{"ha":1389,"x_min":0,"x_max":0,"o":""},"":{"ha":1389,"x_min":0,"x_max":0,"o":""},"":{"ha":1389,"x_min":0,"x_max":0,"o":""},"":{"ha":1389,"x_min":0,"x_max":0,"o":""},"":{"ha":1389,"x_min":0,"x_max":0,"o":""},"":{"ha":1389,"x_min":0,"x_max":0,"o":""},"":{"ha":1389,"x_min":0,"x_max":0,"o":""},"":{"ha":1389,"x_min":0,"x_max":0,"o":""},"":{"ha":1389,"x_min":0,"x_max":0,"o":""},"":{"ha":1389,"x_min":0,"x_max":0,"o":""},"":{"ha":1389,"x_min":0,"x_max":0,"o":""},"":{"ha":1389,"x_min":0,"x_max":0,"o":""},"":{"ha":1389,"x_min":0,"x_max":0,"o":""},"":{"ha":1389,"x_min":0,"x_max":0,"o":""},"":{"ha":1389,"x_min":0,"x_max":0,"o":""},"":{"ha":1389,"x_min":0,"x_max":0,"o":""},"":{"ha":1389,"x_min":0,"x_max":0,"o":""},"":{"ha":1389,"x_min":0,"x_max":0,"o":""},"":{"ha":1389,"x_min":0,"x_max":0,"o":""},"":{"ha":1389,"x_min":0,"x_max":0,"o":""},"":{"ha":1389,"x_min":0,"x_max":0,"o":""},"":{"ha":1389,"x_min":0,"x_max":0,"o":""},"":{"ha":1179,"x_min":56,"x_max":1124,"o":"m 1124 661 q 1085 621 1124 644 q 1000 601 1040 597 q 921 606 961 606 q 846 604 885 607 q 829 311 833 461 q 826 58 826 222 q 768 7 826 14 q 710 56 710 1 q 711 314 706 172 q 731 604 717 446 q 694 657 688 611 q 743 714 701 703 q 775 896 757 807 q 796 990 775 894 q 864 1029 807 1033 q 913 982 921 1025 q 889 864 900 931 q 864 715 874 786 q 961 714 908 717 q 1064 704 1014 711 q 1111 688 1094 700 q 1124 661 1124 676 l 1124 661 m 518 779 q 475 519 496 626 q 418 278 451 403 q 343 235 401 222 q 299 301 283 246 q 358 567 326 403 q 399 800 385 706 q 358 856 406 838 q 119 892 300 878 q 56 954 54 897 q 125 1006 58 1011 q 278 986 204 999 q 446 944 374 969 q 510 893 492 929 q 518 779 529 853 l 518 779 z "},"":{"ha":1168,"x_min":56,"x_max":1114,"o":"m 1058 776 q 1107 722 1136 776 q 1033 668 1078 668 l 851 668 q 839 578 842 608 q 828 444 832 517 q 768 392 825 400 q 711 436 711 382 q 720 584 714 526 q 731 683 726 642 q 724 732 719 703 q 750 774 729 765 q 769 886 763 851 q 788 972 778 936 q 760 986 786 968 q 808 1024 744 994 q 878 1029 839 1038 q 911 1000 917 1021 q 892 894 903 953 q 871 776 881 833 l 1058 776 m 554 879 q 503 663 550 819 q 417 422 456 511 q 342 411 401 392 q 303 474 282 429 q 386 697 346 572 q 429 860 422 811 q 415 885 431 876 q 376 894 403 890 q 239 906 314 903 q 103 908 176 908 q 56 964 51 908 q 100 1019 60 1019 q 253 1015 163 1019 q 422 1003 358 1010 q 519 972 490 994 q 554 879 557 943 l 554 879 m 936 229 q 908 54 918 132 q 890 -142 899 -21 q 828 -186 888 -187 q 771 -129 768 -183 q 783 44 774 -51 q 811 229 794 140 q 804 251 814 244 q 775 261 797 258 q 664 267 729 267 q 538 267 703 267 q 479 326 476 267 q 538 385 481 385 q 694 383 633 386 q 853 374 765 382 q 926 333 906 368 q 936 229 950 296 l 936 229 z "},"":{"ha":1389,"x_min":0,"x_max":0,"o":""},"":{"ha":1389,"x_min":0,"x_max":0,"o":""},"":{"ha":1181,"x_min":56,"x_max":1125,"o":"m 1069 779 q 1125 725 1133 779 q 1040 669 1117 669 l 851 669 q 832 508 839 592 q 824 343 826 431 q 764 290 824 299 q 707 335 704 282 q 732 668 715 533 q 790 989 750 813 q 860 1026 801 1032 q 910 981 918 1022 q 890 886 900 933 q 869 779 879 832 l 1069 779 m 553 881 q 501 664 549 821 q 415 425 454 513 q 342 414 401 393 q 301 476 282 432 q 385 700 344 575 q 428 861 421 814 q 414 886 429 878 q 375 896 401 892 q 238 907 314 904 q 103 910 176 910 q 56 965 51 910 q 100 1021 60 1021 q 253 1017 163 1021 q 421 1004 358 1011 q 519 974 490 996 q 553 881 557 944 l 553 881 m 1000 -35 q 794 -67 885 -50 q 593 -103 704 -83 q 499 -82 532 -112 q 474 1 467 -51 q 496 147 481 75 q 531 288 504 182 q 592 310 542 324 q 636 261 642 296 q 618 158 625 208 q 604 49 610 107 q 604 28 603 31 q 618 22 607 21 q 801 49 668 29 q 988 74 915 65 q 1033 25 1031 79 q 1000 -35 1035 -29 l 1000 -35 z "},"":{"ha":1389,"x_min":0,"x_max":0,"o":""},"":{"ha":1389,"x_min":0,"x_max":0,"o":""},"":{"ha":1168,"x_min":56,"x_max":1114,"o":"m 1058 778 q 1107 724 1136 778 q 1033 669 1078 669 l 851 669 q 840 568 846 629 q 831 425 835 507 q 771 371 828 381 q 714 417 714 363 q 721 574 715 496 q 731 683 725 629 q 724 733 719 703 q 750 775 729 765 q 769 886 763 854 q 788 972 778 938 q 760 986 786 968 q 808 1024 744 994 q 878 1029 839 1038 q 911 1000 917 1021 q 892 896 911 1000 q 871 778 879 826 l 1058 778 m 554 879 q 503 664 550 821 q 417 425 456 513 q 342 413 401 393 q 303 476 282 432 q 386 700 346 575 q 429 861 422 814 q 415 885 431 876 q 376 894 403 890 q 239 906 314 903 q 103 908 176 908 q 56 964 51 908 q 100 1019 60 1019 q 253 1015 163 1019 q 422 1003 358 1010 q 519 972 490 996 q 554 879 557 943 l 554 879 m 981 -86 q 790 -99 733 -101 q 639 -114 689 -106 q 529 -90 564 -125 q 507 14 496 -56 q 524 97 515 64 q 547 174 535 143 q 475 214 482 161 q 524 278 469 267 q 746 313 646 301 q 931 326 842 324 q 990 272 985 326 q 931 215 996 218 q 783 203 844 211 q 690 183 721 194 q 649 119 667 175 q 632 28 635 74 q 636 7 631 14 q 653 0 642 -1 q 786 14 699 7 q 964 22 881 21 q 1043 -28 1036 25 q 981 -86 1051 -82 l 981 -86 z "},"":{"ha":1168,"x_min":56,"x_max":1114,"o":"m 1058 778 q 1107 724 1136 778 q 1033 669 1078 669 l 851 669 q 840 567 844 628 q 831 424 835 506 q 771 371 828 379 q 714 415 714 363 q 721 574 715 494 q 731 683 725 629 q 724 733 719 703 q 750 775 729 765 q 769 886 763 854 q 788 972 778 938 q 760 986 786 968 q 808 1024 744 994 q 878 1029 839 1038 q 911 1000 917 1021 q 892 896 911 1000 q 871 778 879 826 l 1058 778 m 554 879 q 503 664 550 821 q 417 424 456 513 q 342 413 401 393 q 303 475 282 431 q 386 699 346 574 q 429 861 422 813 q 415 885 431 876 q 376 894 403 890 q 239 906 314 903 q 103 908 176 908 q 56 964 51 908 q 100 1019 60 1019 q 253 1015 163 1019 q 422 1003 358 1010 q 519 972 490 996 q 554 879 557 943 l 554 879 m 1013 11 q 1056 -43 1056 11 q 1011 -101 1057 -99 q 825 -129 938 -107 q 665 -147 731 -147 q 581 -97 619 -147 q 540 14 540 -47 q 597 111 540 68 q 800 193 663 161 q 822 206 822 199 q 803 221 824 211 q 688 256 763 240 q 567 269 617 269 q 517 325 517 269 q 557 378 517 381 q 771 347 679 372 q 908 288 863 324 q 965 175 976 235 q 885 103 954 118 q 711 49 765 76 q 665 3 665 26 q 674 -26 665 -17 q 694 -36 682 -36 q 851 -12 742 -36 q 1013 11 960 11 l 1013 11 z "},"":{"ha":1168,"x_min":56,"x_max":1114,"o":"m 1058 776 q 1107 722 1136 776 q 1033 667 1078 667 l 851 667 q 840 571 844 624 q 831 433 835 511 q 771 379 828 389 q 714 425 714 371 q 721 578 715 503 q 731 682 725 624 q 724 732 719 701 q 750 774 729 764 q 769 886 763 851 q 788 972 778 936 q 760 986 786 968 q 808 1024 744 994 q 878 1029 839 1038 q 911 1000 917 1021 q 892 894 903 953 q 871 776 881 833 l 1058 776 m 554 879 q 503 663 550 819 q 417 422 456 510 q 342 410 401 390 q 303 474 282 429 q 386 697 346 572 q 429 860 422 811 q 415 885 431 876 q 376 894 403 890 q 239 906 314 903 q 103 908 176 908 q 56 964 51 908 q 100 1019 60 1019 q 253 1015 163 1019 q 422 1003 358 1010 q 519 972 490 994 q 554 879 557 943 l 554 879 m 931 246 q 906 61 913 113 q 863 -154 889 -44 q 800 -185 857 -185 q 751 -136 744 -185 q 785 85 764 -58 q 808 231 801 192 q 804 251 811 244 q 779 258 799 254 q 704 265 744 263 q 625 268 661 268 q 649 115 635 193 q 644 21 663 36 q 540 -39 611 -10 q 413 -69 465 -69 q 271 -39 321 -69 q 219 53 219 -7 q 318 168 219 114 q 415 268 415 222 q 379 278 415 275 q 257 285 383 278 q 203 339 197 288 q 260 389 207 389 q 343 388 315 389 q 428 381 390 386 q 522 340 499 371 q 538 282 538 321 q 439 135 538 197 q 339 61 339 72 q 351 46 339 51 q 404 39 367 39 q 482 54 439 39 q 554 93 529 69 q 593 269 603 140 q 618 378 585 379 q 735 371 665 375 q 838 361 806 365 q 921 325 900 353 q 931 246 939 300 l 931 246 z "},"":{"ha":1169,"x_min":56,"x_max":1114,"o":"m 1057 778 q 1106 724 1135 778 q 1032 669 1076 669 l 851 669 q 839 568 844 631 q 829 425 833 508 q 769 371 826 381 q 713 417 713 363 q 719 574 714 499 q 731 683 725 636 q 724 733 719 703 q 750 775 728 765 q 768 886 760 847 q 786 972 776 936 q 760 986 785 969 q 807 1024 744 994 q 878 1029 839 1038 q 911 1000 917 1021 q 890 896 903 957 q 869 778 882 844 l 1057 778 m 553 879 q 501 664 549 821 q 417 425 456 513 q 342 413 401 393 q 303 476 282 432 q 385 700 346 576 q 428 861 421 814 q 414 885 429 876 q 375 894 403 890 q 239 906 314 903 q 103 908 176 908 q 56 964 51 908 q 100 1019 60 1019 q 253 1015 163 1019 q 421 1003 358 1010 q 519 972 490 996 q 553 879 557 943 l 553 879 m 1086 -60 q 1025 -92 1056 -81 q 963 -103 993 -103 q 894 -39 907 -103 q 918 138 881 25 q 931 183 929 172 q 917 204 933 204 q 849 183 883 204 q 792 132 814 163 l 783 -49 q 728 -104 782 -94 q 675 -79 675 -114 l 675 -58 q 593 -100 633 -85 q 499 -117 546 -117 q 357 -86 407 -117 q 306 6 306 -54 q 404 122 306 67 q 501 226 501 179 q 465 232 501 232 q 344 232 490 232 q 290 286 286 232 q 347 340 294 340 q 429 338 390 340 q 514 329 474 335 q 610 288 583 319 q 626 229 626 265 q 526 88 626 156 q 425 6 425 19 q 438 -7 425 -4 q 490 -11 451 -11 q 590 13 535 -11 q 672 67 644 36 l 683 290 q 742 333 686 331 q 800 313 796 335 l 797 267 q 861 307 825 292 q 924 321 896 321 q 1017 283 985 321 q 1046 196 1046 250 q 1026 110 1046 172 q 997 11 1001 35 q 1006 7 996 3 q 1051 29 1006 7 q 1110 8 1093 49 q 1086 -60 1126 -31 l 1086 -60 z "},"":{"ha":1389,"x_min":0,"x_max":0,"o":""},"":{"ha":1389,"x_min":0,"x_max":0,"o":""},"":{"ha":1389,"x_min":0,"x_max":0,"o":""},"":{"ha":1389,"x_min":0,"x_max":0,"o":""},"":{"ha":1389,"x_min":0,"x_max":0,"o":""},"":{"ha":1168,"x_min":56,"x_max":1114,"o":"m 1058 778 q 1107 724 1136 778 q 1033 669 1078 669 l 851 669 q 840 567 844 628 q 831 424 835 506 q 771 371 828 379 q 714 417 714 363 q 721 574 715 496 q 731 683 725 629 q 724 733 719 703 q 750 775 729 765 q 769 886 763 854 q 788 972 778 938 q 760 986 786 968 q 808 1024 744 994 q 878 1029 839 1038 q 911 1000 917 1021 q 892 896 911 1000 q 871 778 879 826 l 1058 778 m 554 879 q 503 664 550 821 q 417 424 456 513 q 342 413 401 393 q 303 476 282 432 q 386 699 346 574 q 429 861 422 813 q 415 885 431 876 q 376 894 403 890 q 239 906 314 903 q 103 908 176 908 q 56 964 51 908 q 100 1019 60 1019 q 253 1015 163 1019 q 422 1003 358 1010 q 519 972 490 996 q 554 879 557 943 l 554 879 m 1007 -57 q 914 -110 953 -93 q 806 -133 860 -133 q 740 -47 733 -133 q 807 150 747 24 q 817 192 819 178 q 788 210 813 210 q 692 169 746 210 q 610 97 668 151 q 613 17 608 58 q 619 -64 617 -24 q 569 -119 625 -118 q 504 -76 513 -121 q 483 100 488 7 q 483 274 479 179 q 544 322 486 318 q 603 283 603 328 q 603 264 603 283 q 603 242 603 242 q 694 300 643 278 q 789 324 747 324 q 915 289 883 324 q 942 176 942 258 q 914 89 942 147 q 871 -3 876 13 q 926 24 897 8 q 978 53 954 39 q 1032 24 1031 85 q 1007 -57 1032 -37 l 1007 -57 z "},"":{"ha":1168,"x_min":56,"x_max":1114,"o":"m 1058 778 q 1107 724 1136 778 q 1033 669 1078 669 l 851 669 q 840 567 844 628 q 831 424 835 506 q 771 371 828 379 q 714 415 714 363 q 721 574 715 494 q 731 683 725 629 q 724 733 719 703 q 750 775 729 765 q 769 886 763 854 q 788 972 778 938 q 760 986 786 968 q 808 1024 744 994 q 878 1029 839 1038 q 911 1000 917 1021 q 892 896 911 1000 q 871 778 879 826 l 1058 778 m 554 879 q 503 664 550 821 q 417 424 456 513 q 342 413 401 392 q 303 476 282 432 q 386 699 346 574 q 429 861 422 813 q 415 885 431 876 q 376 894 403 890 q 239 906 314 903 q 103 908 176 908 q 56 964 51 908 q 100 1019 60 1019 q 253 1015 163 1019 q 422 1003 358 1010 q 519 972 490 996 q 554 879 557 943 l 554 879 m 907 290 l 904 193 q 954 131 957 167 q 904 94 950 97 q 882 -28 900 13 q 833 -90 868 -58 q 688 -143 768 -146 q 564 -76 604 -140 q 543 -108 557 -99 q 510 -117 532 -117 q 463 -82 474 -117 q 453 29 453 -53 q 469 201 453 117 q 519 356 488 292 q 589 365 533 388 q 628 304 644 342 q 599 200 613 264 q 576 69 583 135 q 664 156 607 121 q 785 204 711 183 l 782 285 q 844 333 782 331 q 907 290 907 338 l 907 290 m 781 92 q 700 42 736 79 q 665 -22 665 6 q 696 -46 665 -47 q 757 -10 726 -43 q 775 28 769 3 q 781 92 779 49 l 781 92 z "},"":{"ha":1168,"x_min":56,"x_max":1114,"o":"m 1058 778 q 1107 724 1136 778 q 1033 668 1078 668 l 851 668 q 840 567 846 628 q 831 424 835 506 q 771 371 828 379 q 714 415 714 361 q 721 574 715 494 q 731 683 725 629 q 724 733 719 703 q 750 775 729 765 q 769 886 764 858 q 788 972 778 938 q 760 986 786 968 q 808 1024 744 994 q 878 1029 839 1038 q 911 1000 917 1021 q 892 896 911 1000 q 871 778 879 826 l 1058 778 m 554 879 q 503 663 550 819 q 417 424 456 511 q 342 411 401 392 q 303 475 282 431 q 386 699 346 574 q 429 860 422 813 q 415 885 431 876 q 376 894 403 890 q 239 906 314 903 q 103 908 176 908 q 56 964 51 908 q 100 1019 60 1019 q 253 1015 163 1019 q 422 1003 358 1010 q 519 972 490 996 q 554 879 557 943 l 554 879 m 1063 8 q 1051 -67 1092 -29 q 981 -71 1011 -103 q 900 21 935 -17 q 831 82 857 65 q 803 0 815 49 q 775 -107 778 -96 q 701 -147 760 -154 q 661 -78 643 -140 q 731 139 722 117 q 847 351 775 257 q 915 349 860 372 q 954 296 972 326 q 917 246 939 278 q 879 186 893 210 q 969 108 915 160 q 1063 8 1022 57 l 1063 8 m 669 304 q 664 254 668 282 q 658 201 663 232 q 697 144 700 176 q 657 110 693 113 q 653 26 654 78 q 650 -56 651 -37 q 633 -115 647 -96 q 599 -132 621 -132 q 563 -125 575 -132 q 542 -96 546 -117 q 524 -106 533 -101 q 503 -112 515 -110 l 394 -121 q 321 -92 351 -124 q 279 47 279 -47 q 292 213 279 133 q 332 364 306 303 q 400 371 343 392 q 443 313 456 350 q 414 207 422 251 q 401 75 401 146 q 401 4 401 0 q 418 -7 403 -8 l 536 6 q 536 60 536 42 q 538 111 536 89 q 503 103 525 111 q 450 79 489 97 q 415 111 432 69 q 429 175 399 153 q 483 207 463 197 q 543 217 510 217 q 549 261 544 235 q 553 303 551 293 q 615 354 558 353 q 669 304 672 356 l 669 304 z "},"":{"ha":1168,"x_min":56,"x_max":1114,"o":"m 1058 778 q 1107 724 1136 778 q 1033 668 1078 668 l 851 668 q 840 574 844 625 q 831 438 835 515 q 771 385 828 393 q 714 429 714 375 q 721 581 715 507 q 731 683 725 622 q 724 733 719 703 q 750 775 729 765 q 769 886 764 858 q 788 972 778 938 q 760 986 786 968 q 808 1024 744 994 q 878 1029 839 1038 q 911 1000 917 1021 q 892 896 911 1000 q 871 778 879 826 l 1058 778 m 554 879 q 503 663 550 819 q 417 424 456 511 q 342 411 401 392 q 303 475 282 431 q 386 699 346 574 q 429 860 422 813 q 415 885 431 876 q 376 894 403 890 q 239 906 314 903 q 103 908 176 908 q 56 964 51 908 q 100 1019 60 1019 q 253 1015 163 1019 q 422 1003 358 1010 q 519 972 490 996 q 554 879 557 943 l 554 879 m 981 3 q 975 -75 1017 -33 q 897 -79 933 -115 q 754 49 817 -1 q 640 126 686 103 q 553 14 604 85 q 464 -107 469 -99 q 375 -128 431 -151 q 356 -50 318 -103 q 510 164 440 71 q 672 378 589 271 q 743 379 690 401 q 778 317 797 356 q 750 272 768 297 q 717 225 782 317 q 853 121 782 181 q 981 3 913 69 l 981 3 z "},"":{"ha":1168,"x_min":56,"x_max":1114,"o":"m 1058 776 q 1107 722 1136 776 q 1033 668 1078 668 l 851 668 q 840 565 844 626 q 831 422 835 504 q 771 369 828 378 q 714 414 714 360 q 721 572 715 493 q 731 683 725 626 q 724 732 719 703 q 750 774 729 765 q 769 886 763 851 q 788 972 778 936 q 760 986 786 968 q 808 1024 744 994 q 878 1029 839 1038 q 911 1000 917 1021 q 892 894 903 953 q 871 776 881 833 l 1058 776 m 554 879 q 503 663 550 819 q 417 422 456 511 q 342 410 401 390 q 303 474 282 429 q 386 697 346 572 q 429 860 422 811 q 415 885 431 876 q 376 894 403 890 q 239 906 314 903 q 103 908 176 908 q 56 964 51 908 q 100 1019 60 1019 q 253 1015 163 1019 q 422 1003 358 1010 q 519 972 490 994 q 554 879 557 943 l 554 879 m 1063 11 q 1051 -56 1086 -10 q 985 -75 1015 -100 q 899 -12 946 -43 q 822 33 863 11 q 790 -37 808 7 q 758 -119 778 -65 q 683 -147 746 -153 q 642 -89 622 -142 q 668 -18 660 -40 q 688 36 681 18 q 618 69 669 54 q 543 81 567 85 q 497 -15 526 53 q 433 -167 476 -61 q 358 -187 419 -199 q 324 -112 297 -175 q 447 168 388 43 q 554 369 506 288 q 635 385 574 403 q 679 339 696 367 q 635 263 657 300 q 596 190 611 218 q 667 172 628 185 q 729 146 706 158 q 765 238 749 196 q 807 328 788 288 q 890 351 829 367 q 938 307 951 335 q 895 221 915 268 q 861 143 875 174 q 960 88 907 122 q 1063 11 1025 47 l 1063 11 z "},"":{"ha":1168,"x_min":56,"x_max":1114,"o":"m 1058 778 q 1107 724 1136 778 q 1033 669 1078 669 l 851 669 q 840 567 844 628 q 831 424 835 506 q 771 371 828 379 q 714 415 714 363 q 721 574 715 494 q 731 683 725 629 q 724 733 719 703 q 750 775 729 765 q 769 886 763 854 q 788 972 778 938 q 760 986 786 968 q 808 1024 744 994 q 878 1029 839 1038 q 911 1000 917 1021 q 892 896 911 1000 q 871 778 879 826 l 1058 778 m 554 879 q 503 664 550 821 q 417 424 456 513 q 342 413 401 393 q 303 476 282 432 q 386 699 346 574 q 429 861 422 813 q 415 885 431 876 q 376 894 403 890 q 239 906 314 903 q 103 908 176 908 q 56 964 51 908 q 100 1019 60 1019 q 253 1015 163 1019 q 422 1003 358 1010 q 519 972 490 996 q 554 879 557 943 l 554 879 m 961 131 q 882 -57 961 24 q 703 -136 804 -136 q 536 -81 593 -136 q 481 68 481 -28 q 575 247 481 167 q 749 321 663 321 q 781 311 765 321 q 799 289 792 303 q 913 240 860 297 q 961 131 961 188 l 961 131 m 836 111 q 818 157 836 143 q 776 156 800 168 q 742 158 756 147 q 722 197 725 169 q 636 133 667 172 q 608 65 608 99 q 638 4 608 31 q 703 -22 665 -22 q 793 22 750 -22 q 836 111 836 65 l 836 111 z "},"":{"ha":1168,"x_min":56,"x_max":1114,"o":"m 1058 778 q 1107 724 1136 778 q 1033 668 1078 668 l 851 668 q 840 574 844 625 q 831 438 835 515 q 771 385 828 393 q 714 429 714 375 q 721 581 715 507 q 731 683 724 622 q 724 733 719 703 q 750 775 729 765 q 769 886 763 854 q 788 972 778 938 q 760 986 786 968 q 808 1024 744 994 q 878 1029 839 1038 q 911 1000 917 1021 q 892 896 911 1000 q 871 778 879 826 l 1058 778 m 554 879 q 503 664 550 821 q 417 424 456 511 q 342 413 401 393 q 303 475 282 431 q 386 699 346 575 q 429 861 422 813 q 415 885 431 876 q 376 894 403 890 q 239 906 314 903 q 103 908 176 908 q 56 964 51 908 q 100 1019 60 1019 q 253 1015 163 1019 q 422 1003 358 1010 q 519 972 490 996 q 554 879 557 943 l 554 879 m 1078 0 q 1042 -74 1078 -58 q 986 -51 1008 -86 q 921 -6 976 -35 q 796 54 890 11 q 740 -28 761 15 q 688 -128 719 -71 q 603 -157 657 -178 q 579 -78 547 -137 q 683 106 653 56 q 785 247 733 186 q 786 258 790 256 q 768 264 783 261 q 663 268 719 269 q 544 264 613 268 q 471 318 475 258 q 538 378 468 378 q 676 375 613 378 q 815 367 744 372 q 929 324 900 360 q 931 263 953 293 q 896 211 910 232 q 856 151 869 172 q 994 78 932 117 q 1078 0 1078 26 l 1078 0 z "},"":{"ha":1168,"x_min":56,"x_max":1114,"o":"m 1058 776 q 1107 722 1136 776 q 1033 668 1078 668 l 851 668 q 840 586 843 615 q 831 461 835 535 q 829 440 826 418 q 822 417 828 428 q 824 358 849 400 q 757 338 797 317 q 654 382 736 347 q 550 431 582 411 q 549 483 517 443 q 614 514 579 524 q 667 493 635 507 q 714 472 688 483 q 721 557 717 511 q 731 683 728 649 q 724 732 719 703 q 750 774 729 765 q 769 886 763 851 q 788 972 778 936 q 760 986 786 968 q 808 1024 744 994 q 878 1029 839 1038 q 911 1000 917 1021 q 892 894 903 953 q 871 776 881 833 l 1058 776 m 554 879 q 503 663 550 819 q 417 422 456 511 q 342 411 401 390 q 303 475 282 431 q 386 699 346 574 q 429 860 422 813 q 415 885 431 876 q 376 894 403 890 q 239 906 314 903 q 103 908 176 908 q 56 964 51 908 q 100 1019 60 1019 q 253 1015 163 1019 q 422 1003 358 1010 q 519 972 490 996 q 554 879 557 943 l 554 879 m 994 17 q 999 -56 1033 -8 q 919 -71 964 -101 q 835 -10 881 -39 q 742 39 788 19 q 660 -33 699 6 q 581 -128 615 -79 q 490 -149 553 -171 q 464 -82 428 -126 q 611 79 533 3 q 757 207 689 156 q 758 211 760 208 q 753 213 757 213 q 647 224 699 219 q 550 229 611 226 q 499 286 497 232 q 560 335 501 340 q 707 324 707 324 q 854 303 796 315 q 919 260 903 293 q 910 203 935 228 q 867 158 879 172 q 831 122 843 136 q 908 74 865 100 q 994 17 951 49 l 994 17 z "},"":{"ha":1389,"x_min":0,"x_max":0,"o":""},"":{"ha":1168,"x_min":56,"x_max":1114,"o":"m 1058 772 q 1107 717 1136 772 q 1033 660 1078 660 l 851 660 q 840 556 846 618 q 831 410 835 493 q 771 356 828 364 q 714 401 714 347 q 721 563 715 482 q 731 675 725 619 q 724 726 719 694 q 750 769 729 760 q 769 883 763 850 q 788 971 778 935 q 760 985 786 967 q 808 1024 744 994 q 878 1029 839 1038 q 911 1000 917 1021 q 892 893 900 942 q 871 772 881 825 l 1058 772 m 554 876 q 503 656 550 815 q 417 410 456 500 q 342 397 401 378 q 303 463 282 418 q 386 692 346 564 q 429 857 422 808 q 415 882 431 874 q 376 892 403 888 q 239 903 314 900 q 103 906 176 906 q 56 963 51 906 q 100 1019 60 1019 q 253 1015 163 1019 q 422 1003 358 1010 q 519 971 490 994 q 554 876 557 942 l 554 876 m 857 -97 q 722 -110 817 -97 q 578 -122 625 -121 q 510 -96 536 -122 q 481 -14 481 -68 q 489 89 481 39 q 513 186 496 136 q 489 203 496 192 q 481 226 481 213 q 496 264 481 246 q 543 288 513 283 q 676 299 674 299 q 826 304 758 304 q 879 250 876 304 q 835 196 882 196 q 729 192 782 196 q 639 181 675 188 q 631 167 635 176 q 622 147 626 160 q 726 157 628 147 q 835 167 794 164 q 892 119 886 174 q 843 64 896 67 q 744 53 801 60 q 647 44 688 47 q 621 46 629 43 q 601 54 611 47 q 599 32 599 42 q 597 14 597 22 q 599 -1 597 1 q 611 -7 601 -8 q 724 6 624 -6 q 856 15 799 14 q 936 -39 939 17 q 857 -97 933 -94 l 857 -97 z "},"":{"ha":1168,"x_min":56,"x_max":1114,"o":"m 1058 772 q 1107 717 1136 772 q 1033 660 1078 660 l 851 660 q 840 556 846 618 q 831 410 835 493 q 771 356 828 364 q 714 401 714 347 q 721 563 715 482 q 731 675 725 619 q 724 726 719 694 q 750 769 729 760 q 769 883 763 850 q 788 971 778 935 q 760 985 786 967 q 808 1024 744 994 q 878 1029 839 1038 q 911 1000 917 1021 q 892 893 900 942 q 871 772 881 825 l 1058 772 m 554 876 q 503 656 550 815 q 417 410 456 500 q 342 397 401 378 q 303 463 282 418 q 386 692 346 564 q 429 857 422 808 q 415 882 431 874 q 376 892 403 888 q 239 903 314 900 q 103 906 176 906 q 56 963 51 906 q 100 1019 60 1019 q 253 1015 163 1019 q 422 1003 358 1010 q 519 971 490 994 q 554 876 557 942 l 554 876 m 910 -90 q 835 -101 882 -93 q 756 -114 778 -111 q 706 -90 721 -118 q 697 -7 689 -62 q 714 82 701 29 q 739 183 722 122 l 704 182 q 686 97 693 138 q 671 -4 676 50 q 608 -58 665 -57 q 557 -3 551 -60 q 569 90 561 42 q 589 176 576 125 q 572 176 589 176 q 550 176 550 176 q 497 224 499 176 q 556 278 494 272 q 729 283 621 282 q 889 285 867 285 q 960 239 957 286 q 906 183 964 190 l 854 179 q 833 93 842 136 q 818 21 822 39 q 828 10 815 8 q 901 18 868 18 q 1001 -31 992 21 q 910 -90 1010 -82 l 910 -90 z "},"":{"ha":1168,"x_min":56,"x_max":1114,"o":"m 1058 778 q 1107 724 1136 778 q 1033 668 1078 668 l 851 668 q 840 590 842 606 q 831 471 835 543 q 771 418 828 426 q 714 463 714 408 q 721 597 715 538 q 731 683 715 538 q 724 733 719 703 q 750 775 729 765 q 769 886 763 854 q 788 972 778 938 q 760 986 786 968 q 808 1024 744 994 q 878 1029 839 1038 q 911 1000 917 1021 q 892 896 911 1000 q 871 778 879 826 l 1058 778 m 554 879 q 503 664 550 821 q 417 424 456 511 q 342 413 401 393 q 303 475 282 431 q 386 699 346 575 q 429 861 422 813 q 415 885 431 876 q 376 894 403 890 q 239 906 314 903 q 103 908 176 908 q 56 964 51 908 q 100 1019 60 1019 q 253 1015 163 1019 q 422 1003 358 1010 q 519 972 490 996 q 554 879 557 943 l 554 879 m 781 400 q 817 339 832 383 q 746 308 801 294 q 636 335 683 322 q 521 372 574 353 q 499 429 483 385 q 561 463 514 474 q 678 432 613 451 q 781 400 714 422 l 781 400 m 874 13 q 815 -117 874 -69 q 657 -161 757 -161 q 531 -114 583 -161 q 481 -14 481 -69 q 500 81 481 42 q 579 169 522 125 q 501 160 526 163 q 417 149 453 154 q 369 200 374 143 q 406 261 365 256 q 626 282 499 271 q 853 299 675 285 q 908 246 906 304 q 867 190 913 188 q 828 188 850 192 q 785 172 806 182 q 643 88 689 131 q 600 4 600 47 q 619 -39 600 -24 q 665 -53 638 -53 q 738 -35 713 -53 q 760 10 760 -18 q 742 39 760 25 q 699 60 724 53 q 689 107 674 68 q 753 136 704 147 q 846 86 817 118 q 874 13 874 56 l 874 13 z "},"":{"ha":1110,"x_min":56,"x_max":1054,"o":"m 1054 979 q 1022 788 1035 868 q 1004 638 1011 714 q 1026 619 1019 626 q 1035 585 1035 606 q 1024 565 1035 575 q 993 551 1011 553 q 972 263 982 438 q 960 -22 965 126 q 903 -76 957 -81 q 849 -11 849 -72 q 858 267 851 118 q 875 544 865 436 q 828 535 842 538 q 783 521 804 528 q 760 336 769 426 q 744 146 750 235 q 756 135 744 139 q 765 119 765 129 q 739 90 765 99 q 693 85 722 85 q 658 107 668 85 q 647 179 647 129 q 653 371 647 281 q 661 500 654 404 q 635 554 631 511 q 672 614 638 599 l 714 989 q 782 1024 719 1029 q 840 986 846 1019 q 814 788 828 897 q 794 639 799 671 q 836 649 818 644 q 883 654 860 653 q 903 821 890 729 q 931 990 915 903 q 999 1019 935 1024 q 1054 979 1061 1015 l 1054 979 m 517 782 q 474 522 493 628 q 417 279 450 403 q 342 236 401 224 q 299 303 283 247 q 357 568 325 401 q 399 801 382 693 q 357 858 406 840 q 119 894 300 879 q 56 957 54 900 q 125 1008 58 1014 q 278 989 213 1000 q 446 947 375 972 q 508 896 492 931 q 517 782 528 857 l 517 782 z "},"":{"ha":1113,"x_min":56,"x_max":1057,"o":"m 1057 979 q 1024 708 1035 824 q 1003 419 1011 579 q 942 375 1000 372 q 886 431 883 378 q 896 593 890 518 q 904 703 899 642 q 856 703 881 704 q 808 697 838 701 q 797 578 800 610 q 783 465 790 518 q 715 390 774 390 q 664 460 658 390 q 690 742 681 647 q 721 990 703 868 q 788 1018 726 1024 q 843 983 849 1014 q 829 890 842 971 q 818 806 822 839 q 867 810 847 810 q 915 810 892 811 q 925 904 919 865 q 938 988 929 943 q 1001 1010 943 1018 q 1057 979 1060 1001 l 1057 979 m 553 881 q 501 664 549 821 q 417 422 456 511 q 342 411 401 392 q 303 475 282 431 q 385 699 344 575 q 428 861 421 814 q 414 886 429 878 q 375 896 403 892 q 239 906 313 903 q 103 908 175 908 q 56 965 51 908 q 100 1021 60 1021 q 253 1017 163 1021 q 421 1004 358 1011 q 519 974 490 996 q 553 881 557 944 l 553 881 m 1006 210 q 975 39 983 113 q 963 -144 967 -28 q 903 -187 960 -189 q 843 -132 846 -186 q 847 36 839 -46 q 878 200 856 118 q 874 224 882 217 q 842 229 867 228 q 726 233 796 232 q 615 235 640 233 q 556 293 554 238 q 615 346 558 349 q 765 343 617 346 q 918 338 856 340 q 996 307 974 336 q 1006 210 1021 275 l 1006 210 z "},"":{"ha":1389,"x_min":0,"x_max":0,"o":""},"":{"ha":1389,"x_min":0,"x_max":0,"o":""},"":{"ha":1115,"x_min":56,"x_max":1060,"o":"m 1053 953 q 1025 592 1036 803 q 1004 253 1007 297 q 943 218 1000 224 q 888 261 885 213 q 900 478 893 349 q 910 642 907 600 q 850 633 876 639 q 799 617 824 628 q 788 494 793 564 q 781 394 782 411 q 718 340 775 339 q 664 394 661 340 q 688 700 683 650 q 715 974 701 858 q 782 1001 721 1006 q 838 967 843 996 q 822 850 831 918 q 810 738 815 790 q 861 744 839 742 q 915 746 889 747 q 922 853 929 944 q 933 960 928 922 q 999 1000 939 1003 q 1053 953 1058 997 l 1053 953 m 556 876 q 504 663 551 818 q 418 424 457 511 q 343 411 403 392 q 303 475 283 431 q 386 697 347 575 q 429 858 424 813 q 415 882 431 874 q 376 892 404 888 q 239 903 315 900 q 103 906 178 906 q 56 961 51 906 q 100 1017 60 1017 q 254 1013 163 1017 q 424 1000 360 1007 q 521 969 492 992 q 556 876 558 940 l 556 876 m 1025 -74 q 819 -82 907 -74 q 618 -111 726 -90 q 525 -92 557 -122 q 503 -8 496 -61 q 524 138 511 74 q 556 278 535 197 q 619 300 565 314 q 667 253 672 286 q 646 149 646 144 q 628 39 635 89 q 625 7 624 11 q 639 1 626 -3 q 826 32 733 24 q 1015 35 914 39 q 1060 -21 1060 32 q 1025 -74 1060 -74 l 1025 -74 z "},"":{"ha":1389,"x_min":0,"x_max":0,"o":""},"":{"ha":1389,"x_min":0,"x_max":0,"o":""},"":{"ha":1389,"x_min":0,"x_max":0,"o":""},"":{"ha":1218,"x_min":56,"x_max":1164,"o":"m 1060 979 q 1026 710 1038 818 q 1006 422 1013 576 q 944 378 1003 375 q 888 433 886 381 q 897 594 892 519 q 906 704 900 643 q 858 704 882 706 q 811 699 839 703 q 799 578 804 631 q 785 467 793 526 q 717 392 775 392 q 665 461 660 392 q 692 743 681 631 q 722 990 704 860 q 789 1019 728 1024 q 844 985 850 1014 q 831 890 821 815 q 821 806 825 842 q 869 810 849 810 q 917 810 894 811 q 926 904 922 867 q 940 988 932 944 q 1004 1010 946 1018 q 1060 979 1063 1001 l 1060 979 m 554 881 q 503 664 550 821 q 417 425 456 513 q 342 413 401 393 q 303 476 282 432 q 386 700 346 575 q 429 861 422 814 q 415 886 431 878 q 376 896 403 892 q 239 907 314 904 q 103 910 176 910 q 56 965 51 910 q 100 1021 60 1021 q 253 1017 163 1021 q 422 1004 360 1011 q 521 974 492 996 q 554 881 558 944 l 554 881 m 1154 42 q 997 -85 1093 -39 q 831 -125 911 -125 q 699 -76 746 -125 q 657 33 657 -33 q 765 160 657 78 q 810 224 849 222 q 690 219 749 226 q 543 193 621 213 q 479 238 488 181 q 519 308 471 294 q 689 335 592 328 q 829 335 768 340 q 938 300 904 328 q 967 229 967 275 q 889 143 967 211 q 786 28 804 68 q 789 -1 779 11 q 824 -14 799 -14 q 953 26 876 -14 q 1060 107 1026 64 q 1135 110 1086 142 q 1154 42 1183 78 l 1154 42 z "},"":{"ha":1389,"x_min":0,"x_max":0,"o":""},"":{"ha":1389,"x_min":0,"x_max":0,"o":""},"":{"ha":1389,"x_min":0,"x_max":0,"o":""},"":{"ha":1389,"x_min":0,"x_max":0,"o":""},"":{"ha":1389,"x_min":0,"x_max":0,"o":""},"":{"ha":1389,"x_min":0,"x_max":0,"o":""},"":{"ha":1389,"x_min":0,"x_max":0,"o":""},"":{"ha":1178,"x_min":56,"x_max":1122,"o":"m 1057 979 q 1024 710 1035 815 q 1003 422 1011 575 q 942 378 1000 375 q 886 433 883 381 q 896 594 890 519 q 904 704 899 643 q 856 704 881 706 q 810 699 838 703 q 797 578 803 631 q 783 467 792 526 q 715 392 774 392 q 664 461 658 392 q 690 743 679 631 q 721 990 703 860 q 788 1019 726 1024 q 843 985 849 1014 q 829 890 843 983 q 818 806 822 840 q 867 810 847 810 q 915 810 892 811 q 925 904 922 876 q 938 988 931 947 q 1001 1010 943 1018 q 1057 979 1060 1001 l 1057 979 m 553 881 q 501 664 549 821 q 417 425 456 513 q 342 413 401 393 q 303 476 282 432 q 386 700 346 576 q 428 861 422 814 q 414 886 429 878 q 375 896 403 892 q 239 907 314 904 q 103 910 176 910 q 56 965 51 910 q 100 1021 60 1021 q 253 1017 163 1021 q 421 1004 358 1011 q 519 974 490 996 q 553 881 557 944 l 553 881 m 1079 -43 q 986 -96 1025 -79 q 878 -119 932 -119 q 814 -33 806 -119 q 879 164 819 36 q 889 206 892 192 q 860 224 885 224 q 765 183 819 224 q 683 114 751 174 q 685 32 679 72 q 694 -50 690 -8 q 643 -106 700 -104 q 578 -62 586 -107 q 556 114 560 21 q 556 288 551 193 q 617 336 558 332 q 675 297 675 342 q 675 278 675 297 q 675 256 675 256 q 768 315 714 292 q 863 338 821 338 q 988 303 956 338 q 1014 190 1014 272 q 986 104 1014 161 q 943 11 949 28 q 999 39 974 25 q 1050 67 1029 54 q 1117 46 1092 90 q 1079 -43 1142 0 l 1079 -43 z "},"":{"ha":1113,"x_min":56,"x_max":1057,"o":"m 1057 979 q 1024 710 1035 825 q 1003 422 1011 581 q 942 378 1000 375 q 886 433 883 381 q 896 594 890 519 q 904 704 899 643 q 856 704 881 706 q 808 699 838 703 q 797 579 800 611 q 783 467 790 519 q 715 392 774 392 q 664 461 658 392 q 690 743 681 647 q 721 990 703 867 q 788 1019 726 1024 q 843 985 849 1014 q 829 890 843 983 q 818 806 822 840 q 867 810 847 810 q 915 810 892 811 q 925 904 919 865 q 938 988 929 943 q 1001 1010 943 1018 q 1057 979 1060 1001 l 1057 979 m 553 881 q 501 664 549 821 q 417 425 456 513 q 342 413 401 393 q 303 476 282 432 q 385 700 346 576 q 428 861 421 814 q 414 886 429 878 q 375 896 403 892 q 239 907 314 904 q 103 910 176 910 q 56 965 51 910 q 100 1021 60 1021 q 253 1017 163 1021 q 421 1004 358 1011 q 519 974 490 996 q 553 881 557 944 l 553 881 m 974 306 l 971 207 q 1021 146 1024 181 q 971 110 1017 113 q 944 -83 969 -31 q 881 -122 925 -122 q 700 -112 757 -122 q 624 -78 642 -103 q 604 -97 615 -90 q 578 -103 593 -103 q 531 -67 542 -103 q 521 44 521 -39 q 538 217 521 132 q 586 371 554 307 q 656 379 600 401 q 694 318 710 357 q 665 215 679 278 q 643 83 650 150 q 732 169 675 135 q 851 218 779 197 l 849 300 q 911 349 849 344 q 974 306 974 351 l 974 306 m 850 107 q 767 56 804 94 q 732 -10 732 19 q 749 -24 732 -21 q 825 -21 768 -26 q 849 6 844 -19 q 850 107 853 29 l 850 107 z "},"":{"ha":1389,"x_min":0,"x_max":0,"o":""},"":{"ha":1113,"x_min":56,"x_max":1057,"o":"m 1057 979 q 1024 708 1035 824 q 1003 421 1011 579 q 942 376 1000 374 q 886 432 883 379 q 896 593 890 518 q 904 703 899 642 q 856 703 881 704 q 808 697 838 701 q 797 578 800 608 q 783 467 790 519 q 715 392 774 392 q 664 461 658 392 q 690 743 681 647 q 721 990 703 867 q 788 1019 726 1024 q 843 985 849 1014 q 829 890 840 963 q 818 806 822 839 q 867 810 847 810 q 915 810 892 811 q 925 904 919 865 q 938 988 929 943 q 1001 1010 943 1018 q 1057 979 1060 1001 l 1057 979 m 553 881 q 501 664 549 821 q 417 424 456 513 q 342 413 401 392 q 303 476 282 432 q 385 700 346 576 q 428 861 421 814 q 414 886 429 878 q 375 896 403 892 q 239 907 314 904 q 103 910 176 910 q 56 965 51 910 q 100 1021 60 1021 q 253 1017 163 1021 q 421 1004 358 1011 q 519 974 490 996 q 553 881 557 944 l 553 881 m 1046 15 q 1029 -60 1076 -26 q 954 -58 981 -94 q 840 68 889 24 q 749 132 794 110 q 661 19 713 90 q 572 -101 578 -93 q 482 -122 539 -146 q 464 -44 426 -97 q 617 169 556 86 q 781 383 699 281 q 851 385 799 407 q 885 324 906 363 q 858 278 875 303 q 824 231 857 276 q 942 140 894 185 q 1046 15 992 92 l 1046 15 z "},"":{"ha":1167,"x_min":56,"x_max":1111,"o":"m 1060 979 q 1026 708 1038 824 q 1006 421 1014 579 q 944 376 1003 374 q 889 432 886 379 q 897 593 892 518 q 906 703 900 640 q 858 703 882 704 q 811 697 839 701 q 800 582 808 672 q 788 474 794 519 q 719 399 778 399 q 668 468 663 399 q 693 746 685 660 q 722 990 706 868 q 789 1018 728 1024 q 844 983 850 1014 q 832 890 836 928 q 821 806 826 846 q 869 810 849 810 q 917 810 894 811 q 926 904 922 867 q 940 988 932 944 q 1004 1010 946 1018 q 1060 979 1063 1001 l 1060 979 m 554 881 q 503 664 550 821 q 417 424 456 511 q 342 411 401 392 q 303 475 282 431 q 386 699 346 574 q 429 861 422 813 q 415 886 431 878 q 376 896 403 892 q 239 907 315 903 q 103 908 183 908 q 56 965 51 908 q 100 1021 60 1021 q 253 1017 163 1021 q 422 1004 360 1011 q 521 974 492 996 q 554 881 558 944 l 554 881 m 1106 25 q 1088 -46 1126 -4 q 1024 -57 1050 -87 q 935 39 976 3 q 871 61 883 83 q 836 -14 856 32 q 800 -104 818 -56 q 725 -132 788 -137 q 683 -74 664 -126 q 710 -3 694 -44 q 729 51 728 46 q 657 90 707 76 q 582 79 600 107 q 538 -7 563 47 q 474 -151 508 -68 q 400 -175 461 -187 q 365 -97 339 -161 q 489 183 431 61 q 594 385 546 304 q 676 400 617 418 q 721 354 738 381 q 678 279 696 311 q 640 208 653 235 q 699 193 665 207 q 769 160 726 182 q 807 251 792 215 q 849 343 829 304 q 932 365 871 381 q 979 322 993 350 q 942 244 961 290 q 911 174 932 224 q 1017 118 958 167 q 1106 25 1069 76 l 1106 25 z "},"":{"ha":1113,"x_min":56,"x_max":1057,"o":"m 1057 979 q 1024 710 1035 825 q 1003 422 1011 581 q 942 378 1000 375 q 886 433 883 381 q 896 594 890 519 q 904 704 899 643 q 856 704 881 706 q 808 699 838 703 q 797 579 800 611 q 783 467 790 519 q 715 392 774 392 q 664 461 658 392 q 690 743 681 647 q 721 990 703 867 q 788 1019 726 1024 q 843 985 849 1014 q 829 890 843 983 q 818 806 822 840 q 867 810 847 810 q 915 810 892 811 q 925 904 919 865 q 938 988 929 943 q 1001 1010 943 1018 q 1057 979 1060 1001 l 1057 979 m 553 881 q 501 664 549 821 q 417 425 456 513 q 342 413 401 393 q 303 476 282 432 q 385 700 346 576 q 428 861 421 814 q 414 886 429 878 q 375 896 403 892 q 239 907 314 904 q 103 910 176 910 q 56 965 51 910 q 100 1021 60 1021 q 253 1017 163 1021 q 421 1004 358 1011 q 519 974 490 996 q 553 881 557 944 l 553 881 m 1038 118 q 960 -50 1038 18 q 789 -114 886 -114 q 643 -68 690 -114 q 599 54 599 -26 q 635 165 599 106 q 719 250 672 226 q 733 293 711 274 q 810 303 758 314 q 975 231 913 281 q 1038 118 1038 179 l 1038 118 m 918 107 q 885 151 918 131 q 814 178 853 171 q 743 117 768 157 q 724 53 724 85 q 740 13 724 26 q 789 0 757 0 q 875 31 835 0 q 918 107 918 63 l 918 107 z "},"":{"ha":1389,"x_min":0,"x_max":0,"o":""},"":{"ha":1389,"x_min":0,"x_max":0,"o":""},"":{"ha":1389,"x_min":0,"x_max":0,"o":""},"":{"ha":1389,"x_min":0,"x_max":0,"o":""},"":{"ha":1389,"x_min":0,"x_max":0,"o":""},"":{"ha":1389,"x_min":0,"x_max":0,"o":""},"":{"ha":1196,"x_min":56,"x_max":1142,"o":"m 1075 801 q 1136 747 1161 801 q 1057 692 1111 692 l 872 692 q 861 617 865 656 q 853 542 857 578 l 1051 542 q 1126 488 1144 542 q 1035 433 1107 433 l 842 433 q 826 229 836 367 q 814 7 818 97 q 754 -44 811 -43 q 700 3 697 -46 q 718 379 707 222 q 751 715 732 588 q 735 757 728 728 q 764 799 740 783 q 781 896 783 915 q 797 989 792 967 q 865 1022 806 1029 q 919 983 925 1015 q 904 890 917 964 q 889 801 893 831 l 1075 801 m 517 781 q 474 521 493 626 q 417 276 450 401 q 342 233 401 221 q 299 300 283 244 q 357 567 325 400 q 399 801 382 694 q 357 857 406 839 q 119 894 299 879 q 56 957 54 900 q 125 1008 58 1014 q 278 989 207 1000 q 446 947 374 971 q 508 896 492 931 q 517 781 528 856 l 517 781 z "},"":{"ha":1232,"x_min":56,"x_max":1176,"o":"m 1099 893 q 1176 840 1190 893 q 1088 786 1164 786 l 883 786 q 879 756 881 776 q 874 724 875 733 l 1071 724 q 1154 674 1172 724 q 1063 619 1135 624 l 863 611 q 853 539 857 583 q 842 442 843 458 q 781 392 836 392 q 726 439 724 390 q 735 533 731 489 q 746 624 738 553 q 728 668 722 635 q 756 715 733 700 q 778 892 764 801 q 796 1004 789 975 q 863 1038 804 1044 q 915 999 919 1031 q 907 953 913 983 q 899 893 900 906 l 1099 893 m 550 881 q 499 664 547 821 q 414 424 453 513 q 340 411 400 392 q 301 475 281 431 q 383 699 343 575 q 426 861 419 814 q 413 886 428 878 q 374 896 401 892 q 238 907 313 904 q 103 910 176 910 q 56 965 53 910 q 100 1021 60 1021 q 251 1017 163 1021 q 419 1004 357 1011 q 517 974 488 997 q 550 881 554 944 l 550 881 m 931 229 q 903 56 913 129 q 885 -142 893 -25 q 822 -186 882 -187 q 767 -129 764 -183 q 779 44 769 -51 q 807 229 790 140 q 800 253 810 246 q 771 263 793 260 q 661 267 718 268 q 535 267 604 267 q 476 326 474 267 q 535 385 478 385 q 690 385 622 386 q 849 374 757 382 q 922 333 901 368 q 931 229 944 297 l 931 229 z "},"":{"ha":1389,"x_min":0,"x_max":0,"o":""},"":{"ha":1389,"x_min":0,"x_max":0,"o":""},"":{"ha":1214,"x_min":56,"x_max":1158,"o":"m 1097 899 q 1158 846 1168 899 q 1083 790 1147 793 q 986 789 1056 789 q 888 786 922 789 q 883 750 886 775 q 878 714 881 725 l 1083 714 q 1149 661 1169 714 q 1063 604 1129 607 l 865 600 q 853 490 860 558 q 840 333 846 415 q 781 283 838 283 q 726 332 724 282 q 735 471 728 385 q 746 608 740 547 q 729 658 724 621 q 757 708 735 693 q 781 889 767 796 q 800 1004 793 975 q 865 1038 807 1044 q 918 1000 924 1032 q 911 956 915 985 q 903 899 906 917 l 1097 899 m 553 881 q 501 665 549 821 q 415 425 454 511 q 342 414 401 393 q 303 476 282 433 q 385 700 346 576 q 428 863 421 814 q 414 886 429 878 q 375 896 403 892 q 239 907 314 904 q 103 910 176 910 q 56 965 51 910 q 100 1021 60 1021 q 253 1017 163 1021 q 421 1004 358 1011 q 519 974 490 997 q 553 881 557 944 l 553 881 m 1001 -35 q 796 -68 910 -49 q 593 -103 604 -101 q 500 -82 533 -112 q 474 1 467 -51 q 496 147 481 75 q 531 288 504 182 q 592 310 542 324 q 636 263 642 296 q 618 158 624 196 q 604 49 610 101 q 604 28 603 31 q 619 22 607 21 q 801 49 667 29 q 988 74 914 65 q 1033 25 1031 79 q 1001 -35 1036 -29 l 1001 -35 z "},"":{"ha":1389,"x_min":0,"x_max":0,"o":""},"":{"ha":1389,"x_min":0,"x_max":0,"o":""},"":{"ha":1389,"x_min":0,"x_max":0,"o":""},"":{"ha":1232,"x_min":56,"x_max":1176,"o":"m 1099 893 q 1176 840 1190 893 q 1088 788 1164 788 l 883 788 q 879 756 881 778 q 874 724 875 733 l 1071 724 q 1154 674 1172 724 q 1063 621 1135 625 l 863 614 q 851 524 858 586 q 839 410 842 438 q 778 360 833 360 q 724 407 721 358 q 733 518 728 458 q 746 625 739 567 q 728 669 722 636 q 756 717 733 701 q 778 892 764 803 q 796 1004 789 975 q 863 1038 804 1044 q 915 1000 919 1032 q 907 953 913 985 q 899 893 901 908 l 1099 893 m 550 881 q 499 664 547 822 q 414 425 453 514 q 340 413 400 393 q 301 476 281 432 q 383 700 344 576 q 426 863 419 814 q 413 886 428 878 q 374 896 401 892 q 238 907 313 904 q 103 910 176 910 q 56 965 53 910 q 100 1021 60 1021 q 251 1017 163 1021 q 419 1004 357 1011 q 517 974 488 997 q 550 881 554 944 l 550 881 m 1007 11 q 1050 -43 1049 11 q 1006 -101 1050 -99 q 821 -129 932 -107 q 661 -147 726 -147 q 576 -97 615 -147 q 538 14 538 -47 q 594 111 538 68 q 796 193 658 161 q 818 206 818 199 q 799 222 819 213 q 685 256 757 240 q 564 269 613 269 q 514 325 514 269 q 554 378 514 381 q 767 349 674 372 q 904 289 857 325 q 960 176 971 236 q 879 103 947 118 q 707 49 761 76 q 661 3 661 26 q 671 -26 661 -15 q 690 -36 679 -36 q 847 -12 739 -36 q 1007 11 956 11 l 1007 11 z "},"":{"ha":1389,"x_min":0,"x_max":0,"o":""},"":{"ha":1389,"x_min":0,"x_max":0,"o":""},"":{"ha":1389,"x_min":0,"x_max":0,"o":""},"":{"ha":1389,"x_min":0,"x_max":0,"o":""},"":{"ha":1389,"x_min":0,"x_max":0,"o":""},"":{"ha":1389,"x_min":0,"x_max":0,"o":""},"":{"ha":1389,"x_min":0,"x_max":0,"o":""},"":{"ha":1389,"x_min":0,"x_max":0,"o":""},"":{"ha":1389,"x_min":0,"x_max":0,"o":""},"":{"ha":1389,"x_min":0,"x_max":0,"o":""},"":{"ha":1232,"x_min":56,"x_max":1176,"o":"m 1099 893 q 1176 840 1190 893 q 1088 786 1164 786 l 883 786 q 879 756 881 776 q 874 724 875 733 l 1071 724 q 1154 674 1172 724 q 1063 621 1135 625 l 863 613 q 853 531 858 586 q 842 426 846 458 q 781 376 836 376 q 726 424 724 375 q 735 526 731 481 q 746 625 740 575 q 728 668 722 635 q 756 715 733 701 q 778 892 764 801 q 796 1004 789 975 q 863 1038 804 1044 q 915 1000 919 1032 q 907 953 913 985 q 899 893 901 908 l 1099 893 m 550 881 q 499 664 547 822 q 414 424 454 514 q 340 413 400 392 q 301 476 281 433 q 383 700 344 576 q 426 861 419 814 q 413 886 428 878 q 374 896 401 892 q 238 907 313 904 q 103 910 176 910 q 56 965 53 910 q 100 1021 60 1021 q 251 1017 163 1021 q 419 1004 357 1011 q 517 974 488 997 q 550 881 554 944 l 550 881 m 975 3 q 969 -75 1011 -33 q 892 -79 928 -115 q 750 49 814 -3 q 638 126 683 103 q 549 15 592 74 q 461 -107 507 -44 q 372 -128 428 -151 q 354 -50 317 -103 q 506 164 442 75 q 669 378 586 272 q 739 379 686 403 q 774 318 793 357 q 747 273 763 294 q 713 225 731 251 q 847 121 778 182 q 975 3 906 72 l 975 3 z "},"":{"ha":1389,"x_min":0,"x_max":0,"o":""},"":{"ha":1232,"x_min":56,"x_max":1176,"o":"m 1099 893 q 1176 840 1190 893 q 1088 788 1164 788 l 883 788 q 879 757 882 778 q 874 725 876 735 l 1071 725 q 1154 675 1172 725 q 1063 621 1135 625 l 863 613 q 851 524 858 586 q 839 410 842 436 q 778 360 833 360 q 724 407 721 358 q 733 518 728 458 q 746 625 739 567 q 728 669 722 636 q 756 717 733 701 q 778 892 764 803 q 796 1004 789 975 q 863 1038 804 1044 q 915 1000 919 1032 q 907 953 913 985 q 899 893 901 908 l 1099 893 m 550 881 q 499 664 547 822 q 414 425 453 514 q 340 413 400 393 q 301 476 281 432 q 383 700 344 576 q 426 863 419 814 q 413 886 428 878 q 374 896 401 892 q 238 907 313 904 q 103 910 176 910 q 56 965 53 910 q 100 1021 60 1021 q 251 1017 163 1021 q 419 1004 357 1011 q 517 974 488 997 q 550 881 554 944 l 550 881 m 956 131 q 878 -57 956 24 q 699 -136 800 -136 q 533 -81 590 -136 q 478 68 478 -28 q 572 247 478 167 q 744 321 658 321 q 776 311 763 321 q 794 290 788 303 q 907 240 854 299 q 956 131 956 188 l 956 131 m 831 111 q 813 157 831 144 q 772 157 796 169 q 738 158 753 147 q 718 197 721 169 q 632 133 664 172 q 604 65 604 99 q 633 4 604 31 q 699 -22 661 -22 q 789 22 746 -22 q 831 111 831 65 l 831 111 z "},"":{"ha":1389,"x_min":0,"x_max":0,"o":""},"":{"ha":1389,"x_min":0,"x_max":0,"o":""},"":{"ha":1389,"x_min":0,"x_max":0,"o":""},"":{"ha":1389,"x_min":0,"x_max":0,"o":""},"":{"ha":1389,"x_min":0,"x_max":0,"o":""},"":{"ha":1389,"x_min":0,"x_max":0,"o":""},"":{"ha":1118,"x_min":56,"x_max":1063,"o":"m 1063 981 q 1047 885 1047 879 q 1038 800 1040 836 q 1050 746 1057 786 q 1021 689 1043 707 q 978 293 994 510 q 957 -39 972 219 q 901 -76 954 -75 q 849 -40 849 -78 q 856 228 849 104 q 874 481 860 338 q 821 464 867 479 q 753 443 783 451 q 744 303 747 358 q 733 154 740 249 q 742 149 735 147 q 750 144 750 150 q 722 111 750 131 q 674 93 694 93 q 639 117 650 93 q 628 189 628 140 q 651 607 629 351 q 693 989 672 856 q 761 1024 700 1029 q 817 983 822 1018 q 803 896 814 965 q 788 807 794 842 q 851 811 808 810 q 915 814 901 813 q 926 906 921 860 q 942 989 935 961 q 1008 1021 949 1025 q 1063 981 1068 1017 l 1063 981 m 517 781 q 474 519 493 619 q 417 275 450 397 q 342 232 401 219 q 299 300 283 244 q 357 567 325 399 q 399 801 382 693 q 357 857 406 839 q 119 894 299 879 q 56 956 54 899 q 125 1008 58 1014 q 278 989 207 1000 q 446 947 374 971 q 508 896 492 931 q 517 781 528 856 l 517 781 m 903 704 q 835 697 904 704 q 775 688 794 693 q 768 628 772 661 q 761 565 764 593 q 831 589 808 579 q 885 629 869 607 q 894 658 890 638 q 903 704 897 668 l 903 704 z "},"":{"ha":1389,"x_min":0,"x_max":0,"o":""},"":{"ha":1389,"x_min":0,"x_max":0,"o":""},"":{"ha":1389,"x_min":0,"x_max":0,"o":""},"":{"ha":1140,"x_min":56,"x_max":1085,"o":"m 1083 814 q 1072 794 1083 804 q 1044 781 1060 783 q 1017 542 1031 678 q 997 304 1006 417 q 939 251 994 253 q 886 303 883 250 q 894 468 890 390 q 903 594 897 521 l 779 601 q 765 476 764 464 q 750 346 757 411 q 756 339 749 338 q 764 333 764 339 q 740 304 764 319 q 696 289 718 289 q 661 308 671 289 q 650 371 650 328 q 668 700 651 514 q 704 994 685 883 q 775 1026 713 1031 q 832 990 838 1021 q 824 932 828 967 q 818 890 819 903 l 935 885 q 944 942 940 913 q 953 994 950 971 q 1022 1019 958 1026 q 1081 981 1086 1014 q 1069 914 1076 950 q 1060 863 1063 876 q 1081 840 1074 853 q 1083 814 1086 828 l 1083 814 m 553 882 q 501 665 549 822 q 415 425 454 514 q 342 414 401 393 q 301 478 282 435 q 385 701 344 576 q 428 863 421 815 q 414 888 429 879 q 375 897 403 893 q 239 908 314 906 q 103 911 176 911 q 56 967 51 911 q 100 1022 60 1022 q 253 1018 163 1022 q 421 1006 358 1013 q 519 975 490 997 q 553 882 557 946 l 553 882 m 1021 -74 q 817 -81 900 -74 q 615 -111 721 -89 q 524 -90 554 -122 q 501 -7 494 -61 q 521 139 510 76 q 553 279 532 201 q 617 303 564 317 q 664 254 669 288 q 643 150 643 146 q 625 40 632 90 q 622 7 622 7 q 636 1 624 -3 q 822 33 731 25 q 1010 36 908 40 q 1054 -21 1053 33 q 1021 -74 1056 -74 l 1021 -74 m 922 778 l 797 786 l 789 713 l 914 703 q 918 741 917 722 q 922 778 919 760 l 922 778 z "},"":{"ha":1389,"x_min":0,"x_max":0,"o":""},"":{"ha":1389,"x_min":0,"x_max":0,"o":""},"":{"ha":1389,"x_min":0,"x_max":0,"o":""},"":{"ha":1218,"x_min":56,"x_max":1164,"o":"m 1081 861 q 1069 847 1081 854 q 1042 835 1061 842 q 1015 631 1026 747 q 1003 432 1006 519 q 954 383 1003 385 q 901 429 904 382 q 897 543 897 506 q 900 625 897 579 l 767 631 q 757 536 760 586 q 750 463 751 475 q 758 457 749 456 q 768 453 768 458 q 743 417 768 432 q 699 404 722 404 q 663 426 674 404 q 651 486 651 447 q 669 757 653 599 q 701 1004 683 904 q 771 1031 706 1035 q 831 999 836 1025 q 822 957 828 988 q 814 915 817 929 q 874 922 838 919 q 938 928 901 925 q 947 963 943 946 q 960 1000 951 979 q 1031 1031 971 1033 q 1081 986 1090 1026 q 1068 938 1075 963 q 1058 903 1061 913 q 1078 885 1072 894 q 1081 861 1083 874 l 1081 861 m 554 883 q 503 667 550 824 q 417 426 456 514 q 342 414 401 394 q 303 478 282 433 q 386 701 346 576 q 429 864 422 815 q 415 889 431 881 q 376 899 403 894 q 239 910 314 907 q 103 913 176 913 q 56 968 51 913 q 100 1024 60 1024 q 253 1019 163 1024 q 422 1007 360 1014 q 521 976 492 999 q 554 883 558 947 l 554 883 m 1154 42 q 997 -85 1093 -39 q 831 -125 911 -125 q 699 -76 746 -125 q 657 33 657 -33 q 765 160 657 79 q 810 224 849 224 q 690 221 747 226 q 543 194 619 214 q 479 239 488 181 q 519 308 471 296 q 689 336 592 329 q 829 336 767 342 q 938 301 904 329 q 967 229 967 275 q 889 143 967 211 q 786 28 804 68 q 789 -1 779 11 q 824 -12 799 -12 q 953 26 876 -12 q 1060 107 1026 65 q 1135 110 1086 142 q 1154 42 1183 78 l 1154 42 m 921 832 q 853 821 890 828 q 792 807 821 814 q 786 772 789 796 q 779 738 781 746 l 908 732 q 915 782 911 746 q 921 832 919 818 l 921 832 z "},"":{"ha":1389,"x_min":0,"x_max":0,"o":""},"":{"ha":1389,"x_min":0,"x_max":0,"o":""},"":{"ha":1389,"x_min":0,"x_max":0,"o":""},"":{"ha":1389,"x_min":0,"x_max":0,"o":""},"":{"ha":1389,"x_min":0,"x_max":0,"o":""},"":{"ha":1389,"x_min":0,"x_max":0,"o":""},"":{"ha":1389,"x_min":0,"x_max":0,"o":""},"":{"ha":1389,"x_min":0,"x_max":0,"o":""},"":{"ha":1389,"x_min":0,"x_max":0,"o":""},"":{"ha":1389,"x_min":0,"x_max":0,"o":""},"":{"ha":1389,"x_min":0,"x_max":0,"o":""},"":{"ha":1389,"x_min":0,"x_max":0,"o":""},"":{"ha":1389,"x_min":0,"x_max":0,"o":""},"":{"ha":1389,"x_min":0,"x_max":0,"o":""},"":{"ha":1389,"x_min":0,"x_max":0,"o":""},"":{"ha":1389,"x_min":0,"x_max":0,"o":""},"":{"ha":1389,"x_min":0,"x_max":0,"o":""},"":{"ha":1389,"x_min":0,"x_max":0,"o":""},"":{"ha":1389,"x_min":0,"x_max":0,"o":""},"":{"ha":1056,"x_min":56,"x_max":1000,"o":"m 1000 988 q 931 529 963 790 q 894 90 894 240 q 906 75 894 72 q 917 68 917 78 q 892 22 917 46 q 842 0 867 0 q 800 21 813 0 q 779 167 779 57 q 794 374 779 215 q 821 633 807 515 q 710 632 771 636 q 603 622 647 629 q 549 672 564 617 q 572 732 533 726 q 703 744 635 742 q 835 743 767 746 q 857 881 849 835 q 879 990 868 946 q 947 1022 889 1029 q 1000 988 1006 1017 l 1000 988 m 515 782 q 471 522 490 618 q 415 279 447 400 q 340 236 399 224 q 297 303 282 247 q 356 568 325 403 q 396 801 382 703 q 356 858 403 840 q 118 894 299 879 q 56 957 54 900 q 124 1008 57 1014 q 275 989 211 1000 q 443 947 374 972 q 506 896 489 932 q 515 782 525 857 l 515 782 z "},"":{"ha":1049,"x_min":56,"x_max":993,"o":"m 993 969 q 932 713 947 796 q 904 471 910 600 q 914 458 904 457 q 922 453 922 461 q 899 414 922 433 q 850 393 875 393 q 808 411 821 393 q 788 539 788 443 q 798 630 788 581 q 822 760 808 679 q 708 713 775 731 q 594 697 649 697 q 542 751 556 697 q 568 806 529 806 q 693 826 639 808 q 799 885 749 846 q 843 929 826 907 q 878 993 863 954 q 944 1013 890 1029 q 993 969 999 996 l 993 969 m 551 878 q 500 661 549 819 q 415 421 456 511 q 342 410 400 390 q 301 474 282 429 q 385 697 344 572 q 428 858 421 811 q 414 883 429 875 q 375 893 401 889 q 238 904 314 901 q 103 907 176 907 q 56 963 51 907 q 100 1018 60 1018 q 253 1014 163 1018 q 421 1001 358 1008 q 518 971 489 993 q 551 878 556 942 l 551 878 m 933 228 q 906 54 915 128 q 888 -142 896 -26 q 825 -186 885 -187 q 768 -129 765 -183 q 782 43 769 -54 q 810 228 793 138 q 803 251 811 244 q 772 261 794 258 q 663 267 728 267 q 536 267 701 267 q 478 325 475 267 q 536 383 479 383 q 692 383 624 385 q 851 372 758 381 q 924 332 903 367 q 933 228 946 296 l 933 228 z "},"":{"ha":1389,"x_min":0,"x_max":0,"o":""},"":{"ha":1389,"x_min":0,"x_max":0,"o":""},"":{"ha":1093,"x_min":56,"x_max":1038,"o":"m 1004 992 q 939 665 961 807 q 908 354 908 479 q 918 342 908 340 q 928 335 928 343 q 904 296 928 317 q 854 275 879 275 q 813 293 825 275 q 792 422 792 325 q 803 569 792 464 q 826 763 813 676 q 713 717 778 733 q 597 700 651 700 q 544 754 558 700 q 571 808 532 808 q 697 829 642 811 q 803 888 753 849 q 847 932 832 913 q 882 996 868 958 q 951 1024 893 1031 q 1004 992 1008 1017 l 1004 992 m 554 881 q 503 664 550 821 q 417 425 456 511 q 343 414 403 394 q 303 476 283 433 q 386 700 346 575 q 429 861 422 814 q 415 886 431 878 q 376 896 404 892 q 239 907 314 904 q 103 910 176 910 q 56 965 51 910 q 100 1021 60 1021 q 253 1017 163 1021 q 422 1004 360 1011 q 521 974 492 996 q 554 881 558 944 l 554 881 m 1004 -35 q 798 -67 889 -50 q 596 -103 707 -83 q 501 -82 535 -112 q 476 1 469 -51 q 499 147 483 76 q 533 288 507 189 q 594 310 543 324 q 639 261 644 296 q 621 158 628 203 q 607 49 611 104 q 607 28 606 31 q 621 22 610 21 q 806 49 671 29 q 992 74 919 65 q 1038 25 1036 79 q 1004 -35 1039 -29 l 1004 -35 z "},"":{"ha":1389,"x_min":0,"x_max":0,"o":""},"":{"ha":1389,"x_min":0,"x_max":0,"o":""},"":{"ha":1093,"x_min":56,"x_max":1038,"o":"m 990 969 q 929 690 949 813 q 901 426 907 563 q 911 414 901 411 q 921 407 921 415 q 897 368 921 389 q 847 347 872 347 q 806 365 818 347 q 785 494 785 397 q 794 608 785 533 q 821 760 804 678 q 707 714 771 731 q 593 697 646 697 q 540 753 554 697 q 567 807 528 807 q 692 826 636 808 q 796 885 747 846 q 840 929 825 910 q 875 993 861 956 q 942 1013 888 1029 q 990 969 996 996 l 990 969 m 550 878 q 499 663 547 819 q 414 424 453 513 q 340 413 400 392 q 301 475 281 432 q 383 699 344 575 q 426 860 419 813 q 413 883 428 875 q 374 893 401 889 q 238 904 313 901 q 103 907 176 907 q 56 963 53 907 q 100 1018 60 1018 q 251 1014 163 1018 q 419 1001 357 1008 q 517 971 488 993 q 550 878 554 942 l 550 878 m 975 -87 q 786 -99 815 -96 q 636 -114 686 -104 q 526 -90 561 -125 q 504 14 493 -56 q 521 97 513 64 q 544 174 532 143 q 472 214 479 161 q 521 276 467 267 q 742 313 642 300 q 925 326 836 324 q 985 272 979 326 q 925 214 990 217 q 779 203 842 211 q 686 183 719 194 q 646 118 663 174 q 629 28 632 75 q 633 7 628 14 q 649 0 639 -1 q 781 14 694 7 q 958 22 875 21 q 1038 -29 1031 25 q 975 -87 1044 -82 l 975 -87 z "},"":{"ha":1113,"x_min":56,"x_max":1057,"o":"m 997 969 q 935 690 956 811 q 907 426 913 561 q 917 414 907 411 q 926 407 926 415 q 903 368 926 388 q 853 347 878 347 q 811 365 824 347 q 790 494 790 397 q 800 608 790 533 q 826 760 810 678 q 711 714 776 731 q 596 697 650 697 q 544 751 557 697 q 571 806 532 806 q 696 826 642 808 q 801 885 751 846 q 847 929 831 908 q 882 993 867 954 q 949 1013 894 1029 q 997 969 1003 996 l 997 969 m 554 878 q 503 663 550 819 q 417 424 456 511 q 343 411 403 392 q 303 475 283 431 q 386 699 346 574 q 429 860 422 813 q 415 883 431 875 q 376 893 403 889 q 239 904 314 901 q 103 907 176 907 q 56 963 51 907 q 100 1018 60 1018 q 253 1014 163 1018 q 422 1001 360 1008 q 521 971 492 993 q 554 878 558 942 l 554 878 m 1014 10 q 1057 -44 1057 10 q 1013 -101 1058 -99 q 826 -129 942 -107 q 665 -147 732 -147 q 581 -97 619 -147 q 540 13 540 -47 q 597 110 540 67 q 801 192 664 160 q 824 204 824 197 q 804 221 825 211 q 689 254 764 240 q 568 268 618 268 q 518 324 517 268 q 558 376 518 379 q 772 347 678 371 q 910 288 863 324 q 967 175 978 235 q 886 103 956 118 q 711 49 767 76 q 665 3 665 26 q 675 -26 665 -15 q 696 -36 683 -36 q 853 -14 743 -36 q 1014 10 961 10 l 1014 10 z "},"":{"ha":1389,"x_min":0,"x_max":0,"o":""},"":{"ha":1169,"x_min":56,"x_max":1114,"o":"m 994 969 q 933 690 953 813 q 906 426 911 563 q 915 414 906 411 q 924 407 924 415 q 900 368 924 389 q 851 347 875 347 q 810 365 822 347 q 789 494 789 397 q 799 608 789 533 q 824 760 808 675 q 710 714 774 731 q 594 697 649 697 q 543 753 556 697 q 569 807 531 807 q 694 826 639 808 q 800 885 750 846 q 844 929 829 910 q 879 993 865 956 q 946 1013 892 1029 q 994 969 1000 996 l 994 969 m 553 878 q 501 663 549 819 q 417 424 456 511 q 342 413 401 393 q 303 475 282 431 q 385 699 346 575 q 428 860 421 813 q 414 883 429 875 q 375 893 403 889 q 239 904 314 901 q 103 907 176 907 q 56 963 51 907 q 100 1018 60 1018 q 253 1014 163 1018 q 421 1001 358 1008 q 519 971 490 993 q 553 878 557 942 l 553 878 m 1086 -60 q 1025 -92 1056 -81 q 963 -103 993 -103 q 894 -39 907 -103 q 918 138 881 25 q 931 183 929 172 q 917 204 933 204 q 849 183 883 204 q 792 132 814 163 l 783 -49 q 728 -106 782 -94 q 675 -82 675 -117 l 675 -58 q 593 -100 633 -85 q 499 -117 546 -117 q 357 -86 407 -117 q 306 6 306 -54 q 404 122 306 67 q 501 225 501 179 q 466 231 501 232 q 344 231 431 231 q 290 285 286 231 q 347 339 294 339 q 429 336 389 339 q 514 329 472 335 q 610 288 583 319 q 626 228 626 265 q 526 88 626 154 q 425 6 425 19 q 438 -7 425 -4 q 490 -11 451 -11 q 590 17 533 -11 q 672 75 644 43 l 683 289 q 742 332 685 328 q 800 313 796 335 l 797 267 q 861 307 825 292 q 924 321 896 321 q 1017 283 985 321 q 1046 196 1046 250 q 1026 108 1046 171 q 997 11 1001 33 q 1006 7 996 3 q 1051 29 1006 7 q 1110 8 1093 49 q 1086 -60 1126 -32 l 1086 -60 z "},"":{"ha":1389,"x_min":0,"x_max":0,"o":""},"":{"ha":1389,"x_min":0,"x_max":0,"o":""},"":{"ha":1389,"x_min":0,"x_max":0,"o":""},"":{"ha":1389,"x_min":0,"x_max":0,"o":""},"":{"ha":1389,"x_min":0,"x_max":0,"o":""},"":{"ha":1092,"x_min":56,"x_max":1036,"o":"m 999 969 q 938 690 957 813 q 910 426 915 563 q 919 414 910 411 q 929 407 929 415 q 906 368 929 388 q 856 347 881 347 q 814 365 825 347 q 792 494 792 397 q 801 608 792 533 q 828 760 811 678 q 713 714 778 731 q 597 697 651 697 q 546 751 558 697 q 572 806 532 806 q 697 826 643 808 q 803 885 753 846 q 849 929 832 908 q 883 993 868 954 q 950 1013 896 1029 q 999 969 1004 996 l 999 969 m 556 878 q 504 663 551 819 q 418 424 457 511 q 343 411 403 392 q 303 475 283 431 q 388 699 347 574 q 431 860 424 811 q 417 883 432 875 q 376 893 404 889 q 239 904 315 901 q 103 907 178 907 q 56 963 51 907 q 100 1018 60 1018 q 254 1014 163 1018 q 424 1001 360 1008 q 522 971 493 993 q 556 878 560 942 l 556 878 m 1010 -57 q 917 -110 956 -93 q 808 -133 863 -133 q 743 -47 736 -133 q 810 149 750 24 q 818 192 821 176 q 789 208 815 208 q 693 168 747 208 q 611 97 667 150 q 615 17 610 58 q 622 -64 619 -24 q 571 -119 628 -118 q 507 -76 515 -121 q 485 100 489 7 q 485 272 481 178 q 546 321 488 317 q 604 282 604 326 q 604 263 604 282 q 604 242 604 242 q 697 300 643 276 q 792 322 750 322 q 918 288 886 322 q 944 176 944 258 q 917 89 944 147 q 874 -3 879 13 q 931 24 899 8 q 982 53 957 38 q 1036 22 1036 85 q 1010 -57 1036 -40 l 1010 -57 z "},"":{"ha":1049,"x_min":56,"x_max":993,"o":"m 993 969 q 932 690 951 813 q 904 426 910 563 q 914 414 904 411 q 922 407 922 415 q 899 368 922 388 q 850 347 875 347 q 808 365 821 347 q 788 494 788 397 q 797 608 788 533 q 822 760 807 675 q 708 714 774 731 q 594 697 647 697 q 542 751 556 697 q 568 806 529 806 q 693 826 639 808 q 799 885 749 846 q 843 929 828 910 q 878 993 864 956 q 944 1013 890 1029 q 993 969 999 996 l 993 969 m 551 878 q 500 663 549 819 q 415 424 454 513 q 342 411 400 392 q 301 475 282 431 q 385 699 344 574 q 428 860 421 813 q 414 883 429 875 q 375 893 401 889 q 238 904 314 901 q 103 907 176 907 q 56 963 51 907 q 100 1018 60 1018 q 253 1014 163 1018 q 421 1001 358 1008 q 518 971 489 993 q 551 878 556 942 l 551 878 m 904 290 l 901 193 q 951 131 954 167 q 901 94 947 97 q 879 -28 897 13 q 831 -90 865 -58 q 686 -143 765 -146 q 563 -76 603 -140 q 542 -108 556 -99 q 508 -117 531 -117 q 461 -82 472 -117 q 451 29 451 -53 q 468 201 451 115 q 518 356 486 292 q 588 364 532 386 q 626 304 642 342 q 596 200 610 265 q 575 69 582 138 q 663 154 606 121 q 782 203 711 183 l 779 285 q 842 333 779 329 q 904 290 904 336 l 904 290 m 778 92 q 697 40 733 79 q 663 -22 663 4 q 693 -46 663 -47 q 756 -10 725 -43 q 772 28 768 3 q 778 92 776 49 l 778 92 z "},"":{"ha":1389,"x_min":0,"x_max":0,"o":""},"":{"ha":1049,"x_min":56,"x_max":993,"o":"m 993 969 q 932 689 951 814 q 904 425 910 561 q 914 413 904 411 q 922 407 922 415 q 899 367 922 388 q 850 346 875 346 q 808 364 821 346 q 788 493 788 396 q 797 607 788 532 q 822 760 807 676 q 708 714 774 731 q 594 697 647 697 q 542 751 556 697 q 568 806 529 806 q 693 826 639 808 q 799 885 749 846 q 843 929 828 910 q 878 993 864 956 q 944 1013 890 1029 q 993 969 999 996 l 993 969 m 551 878 q 500 663 549 819 q 415 422 456 513 q 342 411 400 392 q 301 474 282 429 q 385 697 344 572 q 428 858 421 811 q 414 883 429 875 q 375 893 401 889 q 238 904 314 901 q 103 907 176 907 q 56 963 51 907 q 100 1018 60 1018 q 253 1014 163 1018 q 421 1001 358 1008 q 518 971 489 993 q 551 878 556 942 l 551 878 m 978 3 q 972 -75 1014 -33 q 894 -79 931 -115 q 753 49 817 -4 q 639 126 686 101 q 551 14 603 85 q 463 -107 468 -99 q 374 -128 429 -151 q 354 -50 317 -103 q 507 163 450 85 q 671 376 589 275 q 742 378 689 401 q 775 317 796 356 q 749 271 765 296 q 714 224 747 269 q 850 121 781 179 q 978 3 910 71 l 978 3 z "},"":{"ha":1126,"x_min":56,"x_max":1072,"o":"m 997 969 q 935 701 953 803 q 908 449 914 579 q 918 436 908 435 q 926 431 926 439 q 903 390 926 411 q 853 369 878 369 q 811 388 824 369 q 790 517 790 419 q 800 619 790 554 q 826 760 807 663 q 711 713 778 729 q 596 697 651 697 q 544 751 557 697 q 571 806 532 806 q 696 826 642 808 q 801 885 751 846 q 847 929 829 907 q 882 993 865 954 q 949 1013 894 1029 q 997 969 1003 996 l 997 969 m 554 878 q 503 661 550 818 q 417 421 456 508 q 343 410 403 390 q 303 474 283 431 q 386 697 346 572 q 429 858 422 811 q 415 883 431 875 q 376 893 403 889 q 239 904 314 901 q 103 907 176 907 q 56 963 51 907 q 100 1018 60 1018 q 253 1014 163 1018 q 422 1001 360 1008 q 521 971 492 993 q 554 878 558 942 l 554 878 m 1064 11 q 1053 -56 1089 -10 q 986 -75 1017 -100 q 900 -12 947 -43 q 824 33 864 11 q 792 -37 810 6 q 760 -119 778 -69 q 685 -147 747 -153 q 643 -89 624 -142 q 668 -18 653 -61 q 689 36 686 26 q 618 69 671 54 q 543 81 567 85 q 497 -15 528 51 q 433 -167 472 -74 q 358 -187 419 -199 q 325 -112 299 -175 q 449 168 389 44 q 556 368 506 288 q 636 383 575 401 q 681 339 697 365 q 636 261 665 314 q 596 190 606 208 q 668 172 629 185 q 729 144 707 158 q 767 236 757 214 q 808 328 789 290 q 892 350 831 365 q 939 307 953 335 q 897 221 921 274 q 863 142 896 218 q 961 88 904 124 q 1064 11 1025 47 l 1064 11 z "},"":{"ha":1049,"x_min":56,"x_max":993,"o":"m 993 969 q 932 690 951 813 q 904 426 910 563 q 914 414 904 411 q 922 407 922 415 q 899 368 922 388 q 850 347 875 347 q 808 365 821 347 q 788 494 788 397 q 797 608 788 533 q 822 760 807 675 q 708 714 774 731 q 594 697 647 697 q 542 751 556 697 q 568 806 529 806 q 693 826 639 808 q 799 885 749 846 q 843 929 828 910 q 878 993 864 956 q 944 1013 890 1029 q 993 969 999 996 l 993 969 m 551 878 q 500 663 549 819 q 415 424 454 513 q 342 411 400 392 q 301 475 282 431 q 385 699 344 574 q 428 860 421 813 q 414 883 429 875 q 375 893 401 889 q 238 904 314 901 q 103 907 176 907 q 56 963 51 907 q 100 1018 60 1018 q 253 1014 163 1018 q 421 1001 358 1008 q 518 971 489 993 q 551 878 556 942 l 551 878 m 958 131 q 881 -57 958 24 q 701 -136 803 -136 q 535 -81 592 -136 q 479 68 479 -28 q 574 246 479 167 q 747 319 661 319 q 778 310 764 319 q 797 289 790 301 q 910 239 857 297 q 958 131 958 186 l 958 131 m 833 111 q 815 156 833 143 q 774 156 799 168 q 739 157 754 146 q 719 197 722 169 q 633 133 665 172 q 606 65 606 97 q 635 3 606 29 q 701 -22 664 -22 q 790 22 749 -22 q 833 111 833 65 l 833 111 z "},"":{"ha":1132,"x_min":56,"x_max":1076,"o":"m 994 969 q 933 707 950 801 q 906 460 911 589 q 915 447 906 444 q 925 440 925 449 q 901 401 925 421 q 851 381 876 381 q 810 399 822 381 q 789 526 789 431 q 799 625 789 563 q 824 760 801 639 q 710 714 775 731 q 594 697 649 697 q 543 751 556 697 q 569 806 531 806 q 694 826 640 808 q 800 885 750 846 q 844 929 829 910 q 879 993 865 956 q 946 1013 892 1029 q 994 969 1000 996 l 994 969 m 553 878 q 501 663 549 819 q 417 424 456 511 q 342 411 401 392 q 303 475 282 431 q 386 697 346 574 q 428 860 422 813 q 414 883 429 875 q 375 893 403 889 q 239 904 314 901 q 103 907 176 907 q 56 963 51 907 q 100 1018 60 1018 q 253 1014 163 1018 q 422 1001 358 1008 q 519 971 490 993 q 553 878 557 942 l 553 878 m 1076 -1 q 1040 -74 1076 -60 q 986 -51 1007 -86 q 921 -6 976 -35 q 796 54 896 7 q 740 -28 761 14 q 688 -128 719 -71 q 603 -157 657 -178 q 579 -78 547 -137 q 682 106 653 57 q 783 246 732 186 q 786 257 789 254 q 767 263 782 260 q 663 268 721 268 q 543 263 617 267 q 471 317 474 257 q 538 376 468 376 q 676 374 611 376 q 815 367 742 372 q 928 324 899 360 q 931 261 951 293 q 896 211 925 254 q 856 151 868 168 q 993 78 932 117 q 1076 -1 1076 26 l 1076 -1 z "},"":{"ha":1389,"x_min":0,"x_max":0,"o":""},"":{"ha":1389,"x_min":0,"x_max":0,"o":""},"":{"ha":1049,"x_min":56,"x_max":993,"o":"m 993 968 q 932 682 951 808 q 904 411 910 551 q 914 399 904 396 q 922 392 922 400 q 899 351 922 372 q 850 331 875 331 q 808 350 821 331 q 788 482 788 382 q 797 599 788 522 q 822 754 807 668 q 708 707 774 724 q 594 690 649 690 q 542 746 556 690 q 568 801 529 801 q 693 822 639 804 q 799 882 749 842 q 843 928 828 906 q 878 993 863 954 q 944 1013 890 1029 q 993 968 999 994 l 993 968 m 551 875 q 500 654 549 815 q 415 408 456 501 q 342 396 400 376 q 301 463 282 417 q 385 690 344 564 q 428 856 421 807 q 414 881 429 872 q 375 890 401 886 q 238 901 314 899 q 103 904 176 904 q 56 961 51 904 q 100 1018 60 1018 q 253 1014 163 1018 q 421 1001 358 1008 q 518 969 489 993 q 551 875 556 940 l 551 875 m 856 -96 q 721 -110 818 -97 q 576 -122 625 -121 q 508 -96 535 -122 q 479 -14 479 -68 q 488 89 479 39 q 513 186 496 136 q 486 203 494 190 q 479 225 479 213 q 496 263 479 244 q 542 286 514 281 q 675 297 690 299 q 825 303 757 303 q 878 250 875 303 q 833 196 881 196 q 726 192 782 196 q 636 179 672 186 q 626 167 631 175 q 619 146 622 158 q 724 157 638 147 q 833 167 794 164 q 889 119 885 174 q 842 64 893 65 q 744 55 800 61 q 646 44 688 49 q 618 44 626 43 q 599 54 607 46 q 596 32 597 42 q 594 13 594 21 q 596 -3 594 0 q 610 -7 599 -8 q 722 4 635 -6 q 853 14 799 13 q 933 -39 936 15 q 856 -96 932 -93 l 856 -96 z "},"":{"ha":1092,"x_min":56,"x_max":1036,"o":"m 1032 968 q 967 682 989 808 q 939 411 944 551 q 949 399 939 396 q 958 392 958 400 q 933 351 958 372 q 882 331 908 331 q 840 350 853 331 q 818 482 818 382 q 828 599 818 522 q 854 754 838 669 q 736 707 803 724 q 617 690 672 690 q 563 746 576 690 q 589 801 549 801 q 719 822 663 804 q 829 882 778 842 q 875 928 858 906 q 913 993 896 954 q 982 1013 925 1029 q 1032 968 1038 994 l 1032 968 m 572 875 q 518 654 568 815 q 431 408 471 500 q 353 396 415 376 q 313 463 292 417 q 399 690 357 564 q 443 856 436 807 q 429 881 444 872 q 388 890 417 886 q 244 901 324 899 q 106 904 182 904 q 56 961 53 904 q 101 1018 60 1018 q 261 1014 167 1018 q 436 1001 371 1008 q 538 969 507 993 q 572 875 576 940 l 572 875 m 940 -90 q 863 -101 911 -93 q 782 -114 804 -111 q 729 -90 746 -118 q 722 -7 713 -62 q 740 82 728 28 q 767 182 746 101 l 728 181 q 710 97 717 138 q 694 -4 700 51 q 631 -57 689 -56 q 578 -3 572 -58 q 592 90 582 44 q 613 176 599 131 q 593 176 607 176 q 569 175 579 175 q 514 222 517 175 q 576 276 511 271 q 756 282 642 281 q 921 283 897 283 q 996 238 993 285 q 936 182 999 189 l 883 178 q 858 88 868 128 q 840 10 851 61 q 853 -1 838 -4 q 932 7 900 7 q 1036 -36 1026 10 q 940 -90 1044 -82 l 940 -90 z "},"":{"ha":1049,"x_min":56,"x_max":993,"o":"m 993 969 q 932 710 949 800 q 904 465 910 594 q 914 453 904 450 q 922 446 922 454 q 899 407 922 426 q 850 386 875 386 q 808 404 821 386 q 788 532 788 436 q 797 628 788 568 q 822 760 794 613 q 708 714 774 731 q 594 697 647 697 q 542 751 556 697 q 568 806 529 806 q 693 826 639 808 q 799 885 749 846 q 843 929 828 910 q 878 993 864 956 q 944 1013 890 1029 q 993 969 999 996 l 993 969 m 551 878 q 500 663 549 819 q 415 424 454 513 q 342 411 400 392 q 301 475 282 431 q 385 697 344 574 q 428 860 421 811 q 414 883 429 875 q 375 893 401 889 q 238 904 314 901 q 103 907 176 907 q 56 963 51 907 q 100 1018 60 1018 q 253 1014 163 1018 q 421 1001 358 1008 q 518 971 489 993 q 551 878 556 942 l 551 878 m 775 411 q 813 342 826 394 q 744 304 799 290 q 635 332 676 321 q 519 368 571 350 q 497 426 482 382 q 560 460 513 469 q 675 436 619 447 q 775 411 731 425 l 775 411 m 871 13 q 813 -117 871 -69 q 654 -161 754 -161 q 528 -114 581 -161 q 479 -14 479 -69 q 499 81 479 42 q 578 169 521 125 q 500 160 525 164 q 415 149 451 154 q 368 199 372 143 q 404 260 364 254 q 625 282 497 271 q 851 299 681 286 q 906 244 903 303 q 864 189 910 186 q 825 186 849 190 q 782 172 804 182 q 642 88 688 131 q 599 4 599 46 q 618 -39 599 -22 q 663 -53 635 -53 q 735 -35 710 -53 q 758 10 758 -18 q 740 39 758 25 q 697 58 722 53 q 689 107 672 67 q 754 135 706 147 q 844 85 815 118 q 871 13 871 56 l 871 13 z "},"":{"ha":1113,"x_min":56,"x_max":1057,"o":"m 1057 983 q 1000 508 1028 819 q 968 -25 975 207 q 907 -64 964 -56 q 851 -26 849 -74 q 881 501 861 249 q 938 983 906 806 q 1006 1026 947 1035 q 1057 983 1063 1018 l 1057 983 m 854 985 q 804 596 825 792 q 765 190 785 426 q 779 176 765 183 q 793 157 793 169 q 772 128 793 147 q 725 104 747 104 q 675 126 693 104 q 654 207 653 153 q 667 376 656 242 q 683 594 679 526 q 579 596 646 597 q 486 593 485 593 q 456 436 472 511 q 417 275 439 360 q 342 232 401 219 q 299 299 283 243 q 357 565 325 397 q 399 800 382 692 q 357 856 406 838 q 119 893 299 878 q 56 956 54 899 q 125 1007 58 1013 q 278 988 213 999 q 446 946 375 971 q 508 894 492 929 q 517 779 528 854 q 510 731 514 761 q 504 696 506 703 q 579 700 539 699 q 700 701 663 703 q 717 860 708 790 q 736 988 726 939 q 801 1026 744 1029 q 854 985 860 1022 l 854 985 z "},"":{"ha":1389,"x_min":0,"x_max":0,"o":""},"":{"ha":1389,"x_min":0,"x_max":0,"o":""},"":{"ha":1389,"x_min":0,"x_max":0,"o":""},"":{"ha":1115,"x_min":56,"x_max":1060,"o":"m 1058 999 q 1003 671 1028 865 q 971 299 976 469 q 908 254 968 261 q 851 296 849 247 q 878 667 858 493 q 933 999 899 857 q 1004 1032 943 1038 q 1058 999 1064 1026 l 1058 999 m 860 993 q 796 708 818 833 q 764 439 772 574 q 772 428 763 425 q 783 421 783 429 q 760 382 783 401 q 710 361 735 361 q 661 392 681 361 q 647 511 635 432 q 662 631 653 551 q 685 789 671 710 q 586 753 656 772 q 524 738 553 744 q 474 572 504 664 q 418 426 443 483 q 343 414 403 394 q 303 478 283 433 q 386 701 347 579 q 429 864 424 818 q 415 889 431 881 q 376 899 404 894 q 239 910 315 907 q 103 913 178 913 q 56 968 51 913 q 100 1024 60 1024 q 254 1019 163 1024 q 424 1007 360 1014 q 521 976 493 999 q 556 885 558 949 q 554 871 556 879 q 553 856 554 868 q 661 907 613 871 q 739 999 715 946 q 811 1031 756 1040 q 860 993 865 1021 l 860 993 m 1025 -74 q 819 -81 904 -74 q 618 -111 724 -89 q 525 -90 557 -122 q 503 -7 496 -61 q 524 139 511 75 q 556 281 535 199 q 619 303 565 317 q 667 254 672 289 q 646 150 646 146 q 628 40 635 90 q 625 7 624 11 q 639 1 625 -1 q 826 33 733 25 q 1015 36 913 40 q 1060 -21 1060 33 q 1025 -74 1060 -74 l 1025 -74 z "},"":{"ha":1389,"x_min":0,"x_max":0,"o":""},"":{"ha":1389,"x_min":0,"x_max":0,"o":""},"":{"ha":1389,"x_min":0,"x_max":0,"o":""}}}
